<?xml version="1.0" encoding="UTF-8"?>
<svg width="20px" height="20px" viewBox="0 0 20 20" version="1.1" xmlns="http://www.w3.org/2000/svg" xmlns:xlink="http://www.w3.org/1999/xlink">
    <title>Alert</title>
    <defs>
        <linearGradient x1="21.4400413%" y1="30.7302242%" x2="89.5793876%" y2="85.4986726%" id="linearGradient-1">
            <stop stop-color="#06B8FF" offset="8.36156031%"></stop>
            <stop stop-color="#03EEFF" offset="43.7254152%"></stop>
            <stop stop-color="#2592DB" offset="100%"></stop>
        </linearGradient>
    </defs>
    <g id="页面-1" stroke="none" stroke-width="1" fill="none" fill-rule="evenodd">
        <g id="在线漏洞" transform="translate(-29.000000, -416.000000)" fill="url(#linearGradient-1)">
            <g id="编组-27备份" transform="translate(29.000000, 415.000000)">
                <g id="Alert" transform="translate(0.000000, 1.000000)">
                    <path d="M9.5,6 C11.9852814,6 14,8.01471863 14,10.5 L14,16 L16.5,16 C16.7761424,16 17,16.2238576 17,16.5 C17,16.7761424 16.7761424,17 16.5,17 L2.5,17 C2.22385763,17 2,16.7761424 2,16.5 C2,16.2238576 2.22385763,16 2.5,16 L5,16 L5,10.5 C5,8.01471863 7.01471863,6 9.5,6 Z M9.5,7 C7.6314366,7 6.10487355,8.4642776 6.00517886,10.3079648 L6,10.5 L6,16 L13,16 L13,10.5 C13,8.56700338 11.4329966,7 9.5,7 Z M8.5,10 C8.77614237,10 9,10.2238576 9,10.5 L9,13.5 C9,13.7761424 8.77614237,14 8.5,14 C8.22385763,14 8,13.7761424 8,13.5 L8,10.5 C8,10.2238576 8.22385763,10 8.5,10 Z M3.59353728,8.71726466 C3.86967966,8.71726466 4.09353728,8.94112229 4.09353728,9.21726466 C4.09353728,9.49340704 3.86967966,9.71726466 3.59353728,9.71726466 L2.59353728,9.71726466 C2.31739491,9.71726466 2.09353728,9.49340704 2.09353728,9.21726466 C2.09353728,8.94112229 2.31739491,8.71726466 2.59353728,8.71726466 L3.59353728,8.71726466 Z M16.4121206,8.71726466 C16.6882629,8.71726466 16.9121206,8.94112229 16.9121206,9.21726466 C16.9121206,9.49340704 16.6882629,9.71726466 16.4121206,9.71726466 L15.4121206,9.71726466 C15.1359782,9.71726466 14.9121206,9.49340704 14.9121206,9.21726466 C14.9121206,8.94112229 15.1359782,8.71726466 15.4121206,8.71726466 L16.4121206,8.71726466 Z M5.35355339,4.84184855 L6.06066017,5.54895533 C6.25592232,5.74421747 6.25592232,6.06079996 6.06066017,6.25606211 C5.86539803,6.45132426 5.54881554,6.45132426 5.35355339,6.25606211 L4.64644661,5.54895533 C4.45118446,5.35369318 4.45118446,5.03711069 4.64644661,4.84184855 C4.84170876,4.6465864 5.15829124,4.6465864 5.35355339,4.84184855 Z M13.6379668,4.84184855 C13.8332289,4.6465864 14.1498114,4.6465864 14.3450736,4.84184855 C14.5403357,5.03711069 14.5403357,5.35369318 14.3450736,5.54895533 L14.3450736,5.54895533 L13.6379668,6.25606211 C13.4427046,6.45132426 13.1261222,6.45132426 12.93086,6.25606211 C12.7355979,6.06079996 12.7355979,5.74421747 12.93086,5.54895533 L12.93086,5.54895533 Z M9.5,3 C9.77614237,3 10,3.22385763 10,3.5 L10,4.5 C10,4.77614237 9.77614237,5 9.5,5 C9.22385763,5 9,4.77614237 9,4.5 L9,3.5 C9,3.22385763 9.22385763,3 9.5,3 Z" id="形状结合"></path>
                </g>
            </g>
        </g>
    </g>
</svg>