<?xml version="1.0" encoding="UTF-8"?>
<svg width="20px" height="20px" viewBox="0 0 20 20" version="1.1" xmlns="http://www.w3.org/2000/svg" xmlns:xlink="http://www.w3.org/1999/xlink">
    <title>形状结合</title>
    <defs>
        <linearGradient x1="21.4400413%" y1="31.4343205%" x2="89.5793876%" y2="84.2015902%" id="linearGradient-1">
            <stop stop-color="#06B8FF" offset="8.36156031%"></stop>
            <stop stop-color="#03EEFF" offset="43.7254152%"></stop>
            <stop stop-color="#2592DB" offset="100%"></stop>
        </linearGradient>
    </defs>
    <g id="页面-1" stroke="none" stroke-width="1" fill="none" fill-rule="evenodd">
        <g id="仪表板占位符" transform="translate(-45.000000, -700.000000)" fill="url(#linearGradient-1)">
            <g id="编组-37" transform="translate(44.000000, 699.000000)">
                <g id="集群配置" transform="translate(1.000000, 1.000000)">
                    <path d="M7.02726188,9.97795594 L9.04392238,11.0656331 C9.36749635,11.2401514 9.56921938,11.5781425 9.56921938,11.9457792 L9.56921938,14.0061662 C9.56921938,14.3738029 9.36749635,14.7117941 9.04392238,14.8863123 L7.02726188,15.9739895 C6.73096719,16.1337947 6.37415058,16.1337947 6.07785589,15.9739895 L4.06119539,14.8863123 C3.73762142,14.7117941 3.53589838,14.3738029 3.53589838,14.0061662 L3.53589838,11.9457792 C3.53589838,11.5781425 3.73762142,11.2401514 4.06119539,11.0656331 L6.07785589,9.97795594 C6.37415058,9.81815067 6.73096719,9.81815067 7.02726188,9.97795594 Z M13.9939409,9.97795594 L16.0106014,11.0656331 C16.3341753,11.2401514 16.5358984,11.5781425 16.5358984,11.9457792 L16.5358984,14.0061662 C16.5358984,14.3738029 16.3341753,14.7117941 16.0106014,14.8863123 L13.9939409,15.9739895 C13.6976462,16.1337947 13.3408296,16.1337947 13.0445349,15.9739895 L11.0278744,14.8863123 C10.7043004,14.7117941 10.5025774,14.3738029 10.5025774,14.0061662 L10.5025774,11.9457792 C10.5025774,11.5781425 10.7043004,11.2401514 11.0278744,11.0656331 L13.0445349,9.97795594 C13.3408296,9.81815067 13.6976462,9.81815067 13.9939409,9.97795594 Z M6.55255888,10.5354384 L4.29006351,11.7557055 L4.29006351,14.1962399 L6.55255888,15.416507 L8.81505426,14.1962399 L8.81505426,11.7557055 L6.55255888,10.5354384 Z M13.5192379,10.5354384 L11.2567425,11.7557055 L11.2567425,14.1962399 L13.5192379,15.416507 L15.7817333,14.1962399 L15.7817333,11.7557055 L13.5192379,10.5354384 Z M6.55255888,11.3489498 L8.06088913,12.1624613 L8.06088913,13.7894842 L6.55255888,14.6029956 L5.04422863,13.7894842 L5.04422863,12.1624613 L6.55255888,11.3489498 Z M13.5192379,11.3489498 L15.0275681,12.1624613 L15.0275681,13.7894842 L13.5192379,14.6029956 L12.0109076,13.7894842 L12.0109076,12.1624613 L13.5192379,11.3489498 Z M10.5106014,4.28337582 L12.5272619,5.371053 C12.8508358,5.54557124 13.0525589,5.88356237 13.0525589,6.25119905 L13.0525589,8.31158611 C13.0525589,8.67922279 12.8508358,9.01721393 12.5272619,9.19173216 L10.5106014,10.2794093 C10.2143067,10.4392146 9.85749008,10.4392146 9.56119539,10.2794093 L7.54453489,9.19173216 C7.22096092,9.01721393 7.01923789,8.67922279 7.01923789,8.31158611 L7.01923789,6.25119905 C7.01923789,5.88356237 7.22096092,5.54557124 7.54453489,5.371053 L9.56119539,4.28337582 C9.85749008,4.12357055 10.2143067,4.12357055 10.5106014,4.28337582 Z M10.0358984,4.84085824 L7.77340301,6.06112541 L7.77340301,8.50165975 L10.0358984,9.72192692 L12.2983938,8.50165975 L12.2983938,6.06112541 L10.0358984,4.84085824 Z M10.0358984,5.65436969 L11.5442286,6.46788114 L11.5442286,8.09490403 L10.0358984,8.90841547 L8.52756814,8.09490403 L8.52756814,6.46788114 L10.0358984,5.65436969 Z" id="形状结合"></path>
                </g>
            </g>
        </g>
    </g>
</svg>