<?xml version="1.0" encoding="UTF-8"?>
<svg width="12px" height="12px" viewBox="0 0 12 12" version="1.1" xmlns="http://www.w3.org/2000/svg" xmlns:xlink="http://www.w3.org/1999/xlink">
    <title>put away</title>
    <g id="页面-1" stroke="none" stroke-width="1" fill="none" fill-rule="evenodd">
        <g id="Risk-explorer_graph-view" transform="translate(-322.000000, -96.000000)" fill="#8A9FC7">
            <g id="编组-8" transform="translate(84.000000, 72.000000)">
                <g id="put-away" transform="translate(238.000000, 24.000000)">
                    <path d="M10,0 C11.1045695,-2.02906125e-16 12,0.8954305 12,2 L12,10 C12,11.1045695 11.1045695,12 10,12 L2,12 C0.8954305,12 1.3527075e-16,11.1045695 0,10 L0,2 C-1.3527075e-16,0.8954305 0.8954305,2.02906125e-16 2,0 L10,0 Z M10,1 L2,1 C1.48716416,1 1.06449284,1.38604019 1.00672773,1.88337887 L1,2 L1,10 C1,10.5128358 1.38604019,10.9355072 1.88337887,10.9932723 L2,11 L10,11 C10.5128358,11 10.9355072,10.6139598 10.9932723,10.1166211 L11,10 L11,2 C11,1.44771525 10.5522847,1 10,1 Z M9.40801719,6.63806074 C9.68415957,6.63806074 9.90801719,6.86191837 9.90801719,7.13806074 C9.90801719,7.41420312 9.68415957,7.63806074 9.40801719,7.63806074 L8.40887158,7.63806074 L9.86531482,9.09466995 C10.060577,9.28993209 10.060577,9.60651458 9.86531482,9.80177673 C9.67005268,9.99703888 9.35347019,9.99703888 9.15820804,9.80177673 L7.67887158,8.32206074 L7.67890228,9.41071259 C7.67890228,9.68685496 7.45504465,9.91071259 7.17890228,9.91071259 C6.9027599,9.91071259 6.67890228,9.68685496 6.67890228,9.41071259 L6.67799779,7.14940737 L6.67787158,7.13806074 L6.67787158,7.13806074 C6.67787158,6.86191837 6.90172921,6.63806074 7.17787158,6.63806074 L9.40801719,6.63806074 Z M2.85471101,2.20165037 L4.33404747,3.68136636 L4.33401677,2.59271452 C4.33401677,2.31657214 4.5578744,2.09271452 4.83401677,2.09271452 C5.11015915,2.09271452 5.33401677,2.31657214 5.33401677,2.59271452 L5.33492126,4.85401973 C5.33500525,4.85779178 5.33504747,4.86157414 5.33504747,4.86536636 C5.33504747,5.14150873 5.11118984,5.36536636 4.83504747,5.36536636 L2.60490186,5.36536636 C2.32875949,5.36536636 2.10490186,5.14150873 2.10490186,4.86536636 C2.10490186,4.58922398 2.32875949,4.36536636 2.60490186,4.36536636 L3.60404747,4.36536636 L2.14760423,2.90875715 C1.95234208,2.71349501 1.95234208,2.39691252 2.14760423,2.20165037 C2.34286638,2.00638823 2.65944887,2.00638823 2.85471101,2.20165037 Z" id="形状结合"></path>
                </g>
            </g>
        </g>
    </g>
</svg>