<?xml version="1.0" ?><svg data-name="Layer 1" id="Layer_1" viewBox="0 0 100 100" xmlns="http://www.w3.org/2000/svg"><title/><path d="M95.01227,50a5.98579,5.98579,0,0,0-1.75733-4.2428l-18.799-18.799,20.2511-20.2511a1,1,0,0,0-1.41424-1.41424L73.04175,25.544,54.24274,6.745a6.00038,6.00038,0,0,0-8.48554,0L26.95825,25.544,6.70709,5.29285A1,1,0,0,0,5.29291,6.70709L25.544,26.95825,6.74506,45.7572a6.00024,6.00024,0,0,0,0,8.48554l18.799,18.799L5.29291,93.29285a1,1,0,0,0,1.41418,1.41424L26.95825,74.45593l18.79895,18.799.00006-.00006a6.00017,6.00017,0,0,0,8.48542.00006l18.799-18.799L93.29285,94.70709a1,1,0,0,0,1.41424-1.41424L74.45593,73.04169l18.799-18.799A5.986,5.986,0,0,0,95.01227,50ZM91.8407,52.82855,73.04175,71.6275,62.41418,60.99994H74A1,1,0,0,0,74,59H60.00031A1.00258,1.00258,0,0,0,59,60h0V74a1,1,0,0,0,2,0h-.00006V62.41418L71.6275,73.04175l-18.799,18.799a4.00016,4.00016,0,0,1-5.657.00006l-.70709.70709.70709-.70715L28.3725,73.04169,38.99994,62.41425,39,74a1,1,0,0,0,2,0l-.00006-13.99976a.98156.98156,0,0,0-.28058-.689c-.00531-.00555-.00684-.013-.01227-.01843-.00793-.00794-.0188-.01026-.02691-.01789A.96834.96834,0,0,0,39.99969,59H26a1,1,0,0,0,0,2v-.00006H37.58575L26.95825,71.6275l-18.799-18.799a4.00023,4.00023,0,0,1,0-5.657l18.799-18.799,10.62744,10.6275L26,39a1,1,0,0,0,0,2l14-.00006a1.00257,1.00257,0,0,0,.99994-1.00031V26a.99994.99994,0,0,0-1.99988,0H39V37.58575L28.3725,26.95819l18.799-18.79895a4.00009,4.00009,0,0,1,5.657,0l18.799,18.79895L60.99994,37.58575V26a.99994.99994,0,0,0-1.99988,0L59,39.99994h0V40l.00043.002A1.002,1.002,0,0,0,60,40.99994H74A1,1,0,0,0,74,39H62.41418L73.04175,28.37244l18.799,18.799a4.00016,4.00016,0,0,1,0,5.6571Z"/></svg>