<?xml version="1.0" encoding="UTF-8"?>
<svg width="20px" height="20px" viewBox="0 0 20 20" version="1.1" xmlns="http://www.w3.org/2000/svg" xmlns:xlink="http://www.w3.org/1999/xlink">
    <title>形状结合</title>
    <defs>
        <linearGradient x1="30.5195725%" y1="33.1361593%" x2="83.7244486%" y2="90.7510272%" id="linearGradient-1">
            <stop stop-color="#06B8FF" offset="0%"></stop>
            <stop stop-color="#03EEFF" offset="43.7254152%"></stop>
            <stop stop-color="#2592DB" offset="100%"></stop>
        </linearGradient>
    </defs>
    <g id="页面-1" stroke="none" stroke-width="1" fill="none" fill-rule="evenodd">
        <g id="仪表板占位符" transform="translate(-45.000000, -508.000000)" fill="url(#linearGradient-1)">
            <g id="编组-26" transform="translate(44.000000, 507.000000)">
                <g id="cronjob" transform="translate(1.000000, 1.000000)">
                    <path d="M12,8.51357844 C14.209139,8.51357844 16,10.3044394 16,12.5135784 C16,14.7227174 14.209139,16.5135784 12,16.5135784 C9.790861,16.5135784 8,14.7227174 8,12.5135784 C8,10.3044394 9.790861,8.51357844 12,8.51357844 Z M14,3.51357844 C14.5522847,3.51357844 15,3.96129369 15,4.51357844 L15,7.51357844 L14.998,7.51357844 C14.9988438,7.76062524 14.8219687,7.96477372 14.5887195,8.00710968 L14.4988438,8.01516535 C14.2227015,8.01516535 13.9988438,7.79130773 13.9988438,7.51516535 C13.9988438,7.50766519 13.999009,7.5002036 13.9993358,7.49278401 L14,4.81357844 C14,4.64789301 13.8656854,4.51357844 13.7,4.51357844 L5.3,4.51357844 C5.15798392,4.51357844 5.03901581,4.61225853 5.00792321,4.74479119 L5,4.81357844 L5,14.2135784 C5,14.3555945 5.0986801,14.4745626 5.23121275,14.5056552 L5.3,14.5135784 L7,14.5135784 C7.27614237,14.5135784 7.5,14.7374361 7.5,15.0135784 C7.5,15.2590383 7.32312484,15.4631868 7.08987563,15.5055228 L7,15.5135784 L5,15.5135784 C4.44771525,15.5135784 4,15.0658632 4,14.5135784 L4,4.51357844 C4,3.96129369 4.44771525,3.51357844 5,3.51357844 L14,3.51357844 Z M12,9.51357844 C10.3431458,9.51357844 9,10.8567242 9,12.5135784 C9,14.1704327 10.3431458,15.5135784 12,15.5135784 C13.6568542,15.5135784 15,14.1704327 15,12.5135784 C15,10.8567242 13.6568542,9.51357844 12,9.51357844 Z M11.9972277,10.2576526 C12.2733701,10.2576526 12.4972277,10.4815102 12.4972277,10.7576526 L12.4972277,12.2576526 L13.9972277,12.2576526 C14.2733701,12.2576526 14.4972277,12.4815102 14.4972277,12.7576526 C14.4972277,13.033795 14.2733701,13.2576526 13.9972277,13.2576526 L11.9972277,13.2576526 C11.7210853,13.2576526 11.4972277,13.033795 11.4972277,12.7576526 L11.4972277,10.7576526 C11.4972277,10.4815102 11.7210853,10.2576526 11.9972277,10.2576526 Z M7.5,9.51357844 C7.77614237,9.51357844 8,9.73743606 8,10.0135784 C8,10.2897208 7.77614237,10.5135784 7.5,10.5135784 L6.5,10.5135784 C6.22385763,10.5135784 6,10.2897208 6,10.0135784 C6,9.73743606 6.22385763,9.51357844 6.5,9.51357844 L7.5,9.51357844 Z M12.5,6.51357844 C12.7761424,6.51357844 13,6.73743606 13,7.01357844 C13,7.28972081 12.7761424,7.51357844 12.5,7.51357844 L6.5,7.51357844 C6.22385763,7.51357844 6,7.28972081 6,7.01357844 C6,6.73743606 6.22385763,6.51357844 6.5,6.51357844 L12.5,6.51357844 Z" id="形状结合"></path>
                </g>
            </g>
        </g>
    </g>
</svg>