<?xml version="1.0" encoding="UTF-8"?>
<svg width="20px" height="20px" viewBox="0 0 20 20" version="1.1" xmlns="http://www.w3.org/2000/svg" xmlns:xlink="http://www.w3.org/1999/xlink">
    <title>形状结合备份 1122</title>
    <defs>
        <linearGradient x1="27.1380793%" y1="33.1361593%" x2="89.5784779%" y2="90.7510272%" id="linearGradient-1">
            <stop stop-color="#06B8FF" offset="0%"></stop>
            <stop stop-color="#03EEFF" offset="43.7254152%"></stop>
            <stop stop-color="#2592DB" offset="100%"></stop>
        </linearGradient>
    </defs>
    <g id="页面-1" stroke="none" stroke-width="1" fill="none" fill-rule="evenodd">
        <g id="仪表板" transform="translate(-19.000000, -76.000000)" fill="url(#linearGradient-1)">
            <g id="编组-21" transform="translate(18.000000, 75.000000)">
                <g id="仪表盘" transform="translate(1.000000, 1.000000)">
                    <path d="M15,11.5127011 C15.5522847,11.5127011 16,11.9604163 16,12.5127011 L16,15.0001379 C16,15.5524227 15.5522847,16.0001379 15,16.0001379 L11.4961954,16.0001379 C10.9439107,16.0001379 10.4961954,15.5524227 10.4961954,15.0001379 L10.4961954,12.5127011 C10.4961954,11.9604163 10.9439107,11.5127011 11.4961954,11.5127011 L15,11.5127011 Z M8.48630272,9.50527139 C9.03858747,9.50527139 9.48630272,9.95298664 9.48630272,10.5052714 L9.48630272,15.0001379 C9.48630272,15.5524227 9.03858747,16.0001379 8.48630272,16.0001379 L5,16.0001379 C4.44771525,16.0001379 4,15.5524227 4,15.0001379 L4,10.5052714 C4,9.95298664 4.44771525,9.50527139 5,9.50527139 L8.48630272,9.50527139 Z M15,4 C15.5522847,4 16,4.44771525 16,5 L16,9.49486652 C16,10.0471513 15.5522847,10.4948665 15,10.4948665 L11.5136973,10.4948665 C10.9614125,10.4948665 10.5136973,10.0471513 10.5136973,9.49486652 L10.5136973,5 C10.5136973,4.44771525 10.9614125,4 11.5136973,4 L15,4 Z M8.50380457,4 C9.05608932,4 9.50380457,4.44771525 9.50380457,5 L9.50380457,7.48743682 C9.50380457,8.03972157 9.05608932,8.48743682 8.50380457,8.48743682 L5,8.48743682 C4.44771525,8.48743682 4,8.03972157 4,7.48743682 L4,5 C4,4.44771525 4.44771525,4 5,4 L8.50380457,4 Z" id="形状结合"></path>
                </g>
            </g>
        </g>
    </g>
</svg>