<?xml version="1.0" encoding="UTF-8"?>
<svg width="20px" height="20px" viewBox="0 0 20 20" version="1.1" xmlns="http://www.w3.org/2000/svg" xmlns:xlink="http://www.w3.org/1999/xlink">
    <title>形状结合</title>
    <defs>
        <linearGradient x1="21.4400413%" y1="39.4841285%" x2="89.5793876%" y2="69.3722793%" id="linearGradient-1">
            <stop stop-color="#06B8FF" offset="8.36156031%"></stop>
            <stop stop-color="#03EEFF" offset="43.7254152%"></stop>
            <stop stop-color="#2592DB" offset="100%"></stop>
        </linearGradient>
    </defs>
    <g id="页面-1" stroke="none" stroke-width="1" fill="none" fill-rule="evenodd">
        <g id="仪表板占位符" transform="translate(-45.000000, -412.000000)" fill="url(#linearGradient-1)" fill-rule="nonzero">
            <g id="编组-25" transform="translate(44.000000, 410.898876)">
                <g id="docker" transform="translate(1.000000, 1.101124)">
                    <path d="M14.6199478,7.16521498 C15.3416581,7.44446871 15.5935749,7.86103204 15.7195333,8.20778193 L15.7736078,8.37438019 L15.8362503,8.58987527 C15.8765936,8.71618186 15.9212635,8.80345977 16.0132393,8.82581863 L16.0633684,8.83146828 L16.3510922,8.8340531 L16.5937615,8.84286976 L16.8612011,8.86210444 C17.4091121,8.91370218 18,9.05220137 18,9.42396237 C17.7785982,10.3585579 17.1406308,10.7107392 16.5294876,10.8632705 L16.287512,10.9145424 L16.0406014,10.9517736 L15.5182392,11.0094086 C15.3474431,11.0318582 15.2318805,11.0617447 15.2055884,11.1284512 L15.1449419,11.2718272 L15.0628618,11.4446063 L14.8975042,11.7510068 L14.7577411,11.9814956 L14.6760784,12.1071198 L14.4925279,12.3697598 C13.5389562,13.6711066 11.6104209,15.3890405 8.18480256,15.5113433 C3.85464404,15.6124365 1.7982371,13.9230387 2.01558175,10.4431499 L2.03392408,10.2031103 L12.9957023,10.2031103 C13.215455,10.2031103 13.3036081,9.98989937 13.3728885,9.66818889 L13.4902099,9.04949679 C13.6194809,8.41180103 13.8546235,7.65232721 14.6199478,7.16521498 Z M14.7274708,8.58767961 L14.6754455,8.72145959 C14.6406068,8.81850827 14.609455,8.92493459 14.5810299,9.04193697 L14.5403175,9.22552241 L14.4183413,9.86720523 C14.2532431,10.6338558 13.958091,11.1397019 13.1617607,11.1999379 L12.9957023,11.2059889 L3.07307077,11.2051928 L3.07952225,11.3289462 C3.23136398,13.5299307 4.70903438,14.529496 7.86178688,14.5132517 L8.14432691,14.509187 C10.7875732,14.4148167 12.6034391,13.284278 13.7026222,11.6795934 L13.8310912,11.4847914 L14.002282,11.1985972 L14.0889279,11.035614 L14.1537806,10.9012205 L14.20539,10.7799672 C14.347012,10.4206538 14.6187126,10.2226721 14.9376585,10.1117454 C15.0411208,10.075762 15.1408466,10.0521019 15.2631339,10.0322555 L15.3939157,10.0133651 L15.8716887,9.96154917 L16.0891135,9.92916396 C16.1853782,9.91203062 16.271766,9.89251337 16.3493448,9.86926471 L16.4330708,9.84027502 L16.3409006,9.83688595 L16.0531767,9.83430114 L15.8862863,9.82156885 L15.7462259,9.79676745 C15.2338113,9.67220201 15.0041908,9.3939742 14.8511437,8.98189267 L14.8073206,8.85427241 L14.7533896,8.66710157 L14.7274708,8.58767961 Z M5.73333333,12.5069883 C6.0278852,12.5069883 6.26666667,12.7314903 6.26666667,13.0084276 C6.26666667,13.2853649 6.0278852,13.5098669 5.73333333,13.5098669 C5.43878147,13.5098669 5.2,13.2853649 5.2,13.0084276 C5.2,12.7314903 5.43878147,12.5069883 5.73333333,12.5069883 Z M4.52862344,8.23477015 L4.52862344,9.64132424 L3.03180382,9.64132424 L3.03180382,8.23477015 L4.52862344,8.23477015 Z M6.52438293,8.23477015 L6.52438293,9.64132424 L5.02756331,9.64132424 L5.02756331,8.23477015 L6.52438293,8.23477015 Z M8.52014242,8.23477015 L8.52014242,9.64132424 L7.0233228,9.64132424 L7.0233228,8.23477015 L8.52014242,8.23477015 Z M10.5159019,8.23477015 L10.5159019,9.64132424 L9.01908229,9.64132424 L9.01908229,8.23477015 L10.5159019,8.23477015 Z M12.5116614,8.23477015 L12.5116614,9.64132424 L11.0148418,9.64132424 L11.0148418,8.23477015 L12.5116614,8.23477015 Z M6.52438293,6.35936469 L6.52438293,7.76591878 L5.02756331,7.76591878 L5.02756331,6.35936469 L6.52438293,6.35936469 Z M8.52014242,6.35936469 L8.52014242,7.76591878 L7.0233228,7.76591878 L7.0233228,6.35936469 L8.52014242,6.35936469 Z M10.5159019,6.35936469 L10.5159019,7.76591878 L9.01908229,7.76591878 L9.01908229,6.35936469 L10.5159019,6.35936469 Z M10.5159019,4.48395923 L10.5159019,5.89051333 L9.01908229,5.89051333 L9.01908229,4.48395923 L10.5159019,4.48395923 Z" id="形状结合"></path>
                </g>
            </g>
        </g>
    </g>
</svg>