<?xml version="1.0" encoding="UTF-8"?>
<svg width="18px" height="18px" viewBox="0 0 18 18" version="1.1" xmlns="http://www.w3.org/2000/svg" xmlns:xlink="http://www.w3.org/1999/xlink">
    <title>harbor</title>
    <defs>
        <linearGradient x1="21.4400413%" y1="27.8790839%" x2="89.5793876%" y2="90.7510272%" id="linearGradient-1">
            <stop stop-color="#06B8FF" offset="8.36156031%"></stop>
            <stop stop-color="#03EEFF" offset="43.7254152%"></stop>
            <stop stop-color="#2592DB" offset="100%"></stop>
        </linearGradient>
    </defs>
    <g id="页面-1" stroke="none" stroke-width="1" fill="none" fill-rule="evenodd">
        <g id="在线漏洞_交互2" transform="translate(-1748.000000, -1251.000000)" fill="url(#linearGradient-1)">
            <g id="内容" transform="translate(232.000000, 614.000000)">
                <g id="编组-23" transform="translate(0.000000, 102.000000)">
                    <g id="编组-27" transform="translate(0.000000, 134.000000)">
                        <g id="3" transform="translate(32.000000, 394.000000)">
                            <g id="Group-52" transform="translate(1364.000000, 0.000000)">
                                <g id="Group-8备份" transform="translate(106.000000, 0.000000)">
                                    <g id="harbor" transform="translate(14.000000, 7.000000)">
                                        <path d="M9,3 C12.3137085,3 15,5.6862915 15,9 C15,12.3137085 12.3137085,15 9,15 C5.6862915,15 3,12.3137085 3,9 C3,5.6862915 5.6862915,3 9,3 Z M9,4 C6.23857625,4 4,6.23857625 4,9 C4,10.8361321 4.98972291,12.441102 6.46478481,13.3105258 L6.52757143,12.2806533 L8.85757143,13.1296533 L8.89677003,13.9989555 C8.93109621,13.9996507 8.96550732,14 9,14 C11.3788426,14 13.3696775,12.3387416 13.8756564,10.1130731 L9.65240823,8.71185708 L13.999,8.967 L13.9953805,8.78311038 C13.9838931,8.51395797 13.9511278,8.2503156 13.8987239,7.99382256 L9.45345931,8.14554221 L13.5094299,6.83745641 C13.3440085,6.49313826 13.1403133,6.17069006 12.9038591,5.87562666 L9.30932603,7.60089068 L11.6990452,4.79033492 C10.9204956,4.29012935 9.99412945,4 9,4 Z M6.56957143,11.5686533 L8.82457143,12.3896533 L8.84357143,12.8116533 L6.54557143,11.9726533 L6.56957143,11.5686533 Z M6.61157143,10.8716533 L8.79157143,11.6656533 L8.80957143,12.0706533 L6.58757143,11.2626533 L6.61157143,10.8716533 Z M6.65257143,10.1746533 L8.75857143,10.9406533 L8.77657143,11.3466533 L6.62957143,10.5656533 L6.65257143,10.1746533 Z M7.71428571,6.21865333 L9,7.60089068 L8.7498915,7.60089068 L8.7498915,8.90047474 L8.91066917,8.90047474 L8.91066917,9.38038227 L8.68758144,9.37989068 L8.74357143,10.6226533 L6.67157143,9.86865333 L6.70058144,9.37989068 L6.51016997,9.38038227 L6.51016997,8.90047474 L6.70469996,8.90047474 L6.70469996,7.60089068 L6.42857143,7.60089068 L7.71428571,6.21865333 Z M8.41898567,7.60089068 L7.03560579,7.60089068 L7.03560579,8.90047474 L7.47257708,8.90047474 L7.47257708,8.06829778 L7.89274865,8.06829778 L7.89274865,8.90047474 L8.41898567,8.90047474 L8.41898567,7.60089068 Z" id="形状结合"></path>
                                    </g>
                                </g>
                            </g>
                        </g>
                    </g>
                </g>
            </g>
        </g>
    </g>
</svg>