<?xml version="1.0" encoding="UTF-8"?>
<svg width="20px" height="22px" viewBox="0 0 20 22" version="1.1" xmlns="http://www.w3.org/2000/svg" xmlns:xlink="http://www.w3.org/1999/xlink">
    <title>Host</title>
    <defs>
        <linearGradient x1="21.4400413%" y1="28.0594779%" x2="89.5793876%" y2="90.4187062%" id="linearGradient-1">
            <stop stop-color="#06B8FF" offset="8.36156031%"></stop>
            <stop stop-color="#03EEFF" offset="43.7254152%"></stop>
            <stop stop-color="#2592DB" offset="100%"></stop>
        </linearGradient>
    </defs>
    <g id="页面-1" stroke="none" stroke-width="1" fill="none" fill-rule="evenodd">
        <g id="在线漏洞" transform="translate(-29.000000, -195.000000)" fill="url(#linearGradient-1)">
            <g id="编组-29" transform="translate(29.000000, 195.000000)">
                <g id="Host" transform="translate(0.000000, 0.510725)">
                    <path d="M4.75,4.48927477 L15.25,4.48927477 C15.6642136,4.48927477 16,4.82506121 16,5.23927477 L16,15.6902451 C16,16.1044587 15.6642136,16.4402451 15.25,16.4402451 L4.75,16.4402451 C4.33578644,16.4402451 4,16.1044587 4,15.6902451 L4,5.23927477 C4,4.82506121 4.33578644,4.48927477 4.75,4.48927477 Z M5.3,5.40858018 L14.7,5.40858018 C14.8656854,5.40858018 15,5.54289476 15,5.70858018 L15,15.2209397 C15,15.3866252 14.8656854,15.5209397 14.7,15.5209397 L5.3,15.5209397 C5.13431458,15.5209397 5,15.3866252 5,15.2209397 L5,5.70858018 C5,5.54289476 5.13431458,5.40858018 5.3,5.40858018 Z M5,8.16649642 L15,8.16649642 L15,9.08580184 L5,9.08580184 L5,8.16649642 Z M5,11.8437181 L15,11.8437181 L15,12.7630235 L5,12.7630235 L5,11.8437181 Z M6.3,6.3278856 L8.7,6.3278856 C8.86568542,6.3278856 9,6.46220017 9,6.6278856 L9,6.94719101 C9,7.11287644 8.86568542,7.24719101 8.7,7.24719101 L6.3,7.24719101 C6.13431458,7.24719101 6,7.11287644 6,6.94719101 L6,6.6278856 C6,6.46220017 6.13431458,6.3278856 6.3,6.3278856 Z M6.3,10.0051073 L8.7,10.0051073 C8.86568542,10.0051073 9,10.1394218 9,10.3051073 L9,10.6244127 C9,10.7900981 8.86568542,10.9244127 8.7,10.9244127 L6.3,10.9244127 C6.13431458,10.9244127 6,10.7900981 6,10.6244127 L6,10.3051073 C6,10.1394218 6.13431458,10.0051073 6.3,10.0051073 Z M6.3,13.6823289 L8.7,13.6823289 C8.86568542,13.6823289 9,13.8166435 9,13.9823289 L9,14.3016343 C9,14.4673197 8.86568542,14.6016343 8.7,14.6016343 L6.3,14.6016343 C6.13431458,14.6016343 6,14.4673197 6,14.3016343 L6,13.9823289 C6,13.8166435 6.13431458,13.6823289 6.3,13.6823289 Z" id="形状结合"></path>
                </g>
            </g>
        </g>
    </g>
</svg>