<?xml version="1.0" encoding="UTF-8"?>
<svg width="20px" height="20px" viewBox="0 0 20 20" version="1.1" xmlns="http://www.w3.org/2000/svg" xmlns:xlink="http://www.w3.org/1999/xlink">
    <title>形状结合</title>
    <defs>
        <linearGradient x1="21.4400413%" y1="32.650956%" x2="89.5793876%" y2="81.9603112%" id="linearGradient-1">
            <stop stop-color="#06B8FF" offset="8.36156031%"></stop>
            <stop stop-color="#03EEFF" offset="43.7254152%"></stop>
            <stop stop-color="#2592DB" offset="100%"></stop>
        </linearGradient>
    </defs>
    <g id="页面-1" stroke="none" stroke-width="1" fill="none" fill-rule="evenodd">
        <g id="仪表板占位符" transform="translate(-19.000000, -652.000000)" fill="url(#linearGradient-1)">
            <g id="编组-35" transform="translate(18.000000, 651.000000)">
                <g id="设置" transform="translate(1.000000, 1.000000)">
                    <path d="M12.9226497,3.93782217 C13.2799153,3.93782217 13.6100423,4.1284211 13.7886751,4.43782217 L16.7113249,9.5 C16.8899577,9.80940108 16.8899577,10.1905989 16.7113249,10.5 L13.7886751,15.5621778 C13.6100423,15.8715789 13.2799153,16.0621778 12.9226497,16.0621778 L7.07735027,16.0621778 C6.72008468,16.0621778 6.38995766,15.8715789 6.21132487,15.5621778 L3.28867513,10.5 C3.11004234,10.1905989 3.11004234,9.80940108 3.28867513,9.5 L6.21132487,4.43782217 C6.38995766,4.1284211 6.72008468,3.93782217 7.07735027,3.93782217 L12.9226497,3.93782217 Z M10,8 C8.8954305,8 8,8.8954305 8,10 C8,11.1045695 8.8954305,12 10,12 C11.1045695,12 12,11.1045695 12,10 C12,8.8954305 11.1045695,8 10,8 Z" id="形状结合"></path>
                </g>
            </g>
        </g>
    </g>
</svg>