<?xml version="1.0" encoding="UTF-8"?>
<svg width="20px" height="20px" viewBox="0 0 20 20" version="1.1" xmlns="http://www.w3.org/2000/svg" xmlns:xlink="http://www.w3.org/1999/xlink">
    <title>形状结合备份 7</title>
    <defs>
        <linearGradient x1="27.1375538%" y1="33.1428433%" x2="89.5793876%" y2="90.7348755%" id="linearGradient-1">
            <stop stop-color="#06B8FF" offset="0%"></stop>
            <stop stop-color="#03EEFF" offset="43.7254152%"></stop>
            <stop stop-color="#2592DB" offset="100%"></stop>
        </linearGradient>
    </defs>
    <g id="页面-1" stroke="none" stroke-width="1" fill="none" fill-rule="evenodd">
        <g id="仪表板占位符" transform="translate(-19.000000, -172.000000)" fill="url(#linearGradient-1)">
            <g id="编组-13" transform="translate(18.000000, 171.000000)">
                <g id="风险探索" transform="translate(1.000000, 1.000000)">
                    <path d="M3.5,6.82613215 C3.56040611,6.82613215 3.62031232,6.83707812 3.6768153,6.85843957 L9.13458895,8.92179904 C9.32908568,8.99533024 9.45777364,9.18155937 9.45777364,9.38949161 L9.45777364,16.587508 C9.45777364,16.8636504 9.23391602,17.087508 8.95777364,17.087508 C8.87133894,17.087508 8.78638039,17.0651013 8.71118805,17.0224742 L3.25341441,13.9284211 C3.09679274,13.8396311 3,13.6734939 3,13.493455 L3,7.32613215 C3,7.04998977 3.22385763,6.82613215 3.5,6.82613215 Z M16.502379,6.82613215 C16.7785214,6.82613215 17.002379,7.04998977 17.002379,7.32613215 L17.002379,7.32613215 L17.002379,13.493455 C17.002379,13.6734939 16.9055863,13.8396311 16.7489646,13.9284211 L16.7489646,13.9284211 L11.2911909,17.0224742 C11.2159986,17.0651013 11.1310401,17.087508 11.0446054,17.087508 C10.768463,17.087508 10.5446054,16.8636504 10.5446054,16.587508 L10.5446054,16.587508 L10.5446054,9.38949161 C10.5446054,9.18155937 10.6732933,8.99533024 10.8677901,8.92179904 L10.8677901,8.92179904 L16.3255637,6.85843957 C16.3820667,6.83707812 16.4419729,6.82613215 16.502379,6.82613215 Z M10.1634556,3.05104227 L16.4785682,5.23851639 C16.582941,5.27466978 16.6382437,5.38858872 16.6020903,5.49296146 C16.5826893,5.54897111 16.5394433,5.5934896 16.4840197,5.61450628 L10.1770842,8.00610041 C10.0628641,8.04941273 9.93673964,8.04941273 9.82251961,8.00610041 L3.51558413,5.61450628 C3.4123034,5.57534216 3.36032661,5.45986779 3.39949074,5.35658706 C3.42050742,5.30116342 3.4650259,5.25791742 3.52103555,5.23851639 L9.83614817,3.05104227 C9.94216076,3.01432087 10.057443,3.01432087 10.1634556,3.05104227 Z" id="形状结合备份-7"></path>
                </g>
            </g>
        </g>
    </g>
</svg>