<?xml version="1.0" encoding="UTF-8"?>
<svg width="154px" height="34px" viewBox="0 0 154 34" version="1.1" xmlns="http://www.w3.org/2000/svg" xmlns:xlink="http://www.w3.org/1999/xlink">
    <title>logo</title>
    <g id="页面-1" stroke="none" stroke-width="1" fill="none" fill-rule="evenodd">
        <g id="仪表板占位符" transform="translate(-17.000000, -10.000000)" fill="#FFFFFF">
            <g id="logo" transform="translate(17.000000, 10.628192)">
                <g transform="translate(0.000000, 0.417773)" id="编组-5">
                    <g transform="translate(1.000000, 0.000000)">
                        <g id="编组" transform="translate(0.000000, 0.954035)">
                            <path d="M23.7801633,0.0833939394 L23.7801633,3.21208081 L26.8121261,3.21205051 L26.8121261,7.05154545 C27.7418825,7.05487879 28.2094183,6.62275758 28.235192,6.59750505 L28.235192,6.59750505 L28.7155645,6.11831313 L28.0082436,11.6643737 L27.5378897,18.1358889 C27.5216433,18.2187172 26.5525745,22.3204343 23.2264713,25.9402323 L23.2264713,25.9402323 L23.36364,26.032286 C24.104828,26.5027512 24.9781662,26.6499394 24.9781662,26.6499394 L24.9781662,26.6499394 L22.5446132,26.6499394 L22.5446132,26.6499394 L22.2580921,26.9217341 C20.9950145,28.0921328 19.4533997,29.162241 17.5757564,29.9616566 L17.5757564,29.9616566 L17.4850974,30.0000404 L17.3945387,29.9616566 C15.3710573,29.1003434 13.7372894,27.9251919 12.4205272,26.6499394 L12.4205272,26.6499394 L9.99121633,26.6499394 C9.99121633,26.6499394 10.9744255,26.4842828 11.7392106,25.9427677 L11.7392106,25.9427677 L11.5298232,25.7114781 C8.36797357,22.1561856 7.43241889,18.2385197 7.41965903,18.1815758 L7.41965903,18.1815758 L6.9596447,11.7131919 L6.24374928,6.10094949 L6.72773209,6.59832323 C6.75350573,6.62438384 7.22334814,7.05882828 8.15721633,7.05256566 L8.15721633,7.05256566 L8.15716619,3.2120101 L11.1891289,3.2120101 L11.1891691,0.0833939394 L23.7801633,0.0833939394 Z M18.8393166,6.13293939 L18.4111934,10.1197071 L18.3863023,10.3533838 L17.9961676,10.3533838 L17.9961777,10.3534343 L18.3862521,10.3534343 L18.3608797,10.5870707 L17.4846762,18.7471616 L17.481467,18.7186768 L17.4810258,18.7265657 L17.4733037,18.6427273 L16.6034685,10.5870707 L16.5785072,10.3534343 L16.965914,10.3534343 L16.958,10.2653939 L16.9659341,10.3533838 L16.5785072,10.3533838 L16.5531347,10.1197475 L16.1227049,6.13288889 L14.6850974,6.56187879 L14.2211719,6.70037374 L9.29573926,8.1699798 C9.03750143,8.24937374 8.81546705,8.40735354 8.62111175,8.60836364 L8.62111175,8.60836364 L8.50139971,8.74059091 L8.50139971,8.74059091 L8.38917908,8.88389899 L8.26822099,9.06465657 L8.26822099,9.06465657 L8.15716619,9.2560202 L8.07563715,9.41438539 C7.57775698,10.4309725 7.43191905,11.6763889 7.42591691,11.7340606 L7.42591691,11.7340606 L7.35972779,10.7963838 L7.35972779,10.7963838 L7.32831091,10.9369352 L7.32831091,10.9369352 L7.35968768,10.796404 L7.42587679,11.7340808 L7.42587679,11.7340808 L7.42547564,11.7404444 L7.48080372,12.5075657 L7.87716619,18.1130909 C7.88438682,18.1366263 8.41269628,20.3221818 9.99531805,22.8787475 L9.99531805,22.8787475 L10.2427121,23.2673832 C10.7540927,24.0488922 11.3654885,24.8532583 12.0916777,25.6386263 L12.0916777,25.6386263 L12.2084438,25.5116474 C12.3210969,25.3809987 12.41976,25.238404 12.489033,25.0746162 C13.0236605,26.3358283 14.9868696,26.6499697 14.9868696,26.6499697 L14.9868696,26.6499697 L13.1152221,26.6499697 L13.1152221,26.6499697 L13.418673,26.9198563 C14.5499527,27.9022849 15.8869881,28.7999007 17.4850874,29.4920303 C19.2271648,28.7374848 20.658053,27.7378889 21.8500587,26.6499091 L21.8500587,26.6499091 L19.9824327,26.6499697 C19.9824327,26.6499697 21.946043,26.3358283 22.4802693,25.0746162 C22.5722321,25.2914848 22.7154413,25.4711818 22.8744957,25.6354242 L22.8744756,25.6353939 L23.1907766,25.2828619 C23.8082861,24.5757782 24.336043,23.8588456 24.7841519,23.159798 L24.7841519,23.159798 L24.9374706,22.916521 C26.5395447,20.3329866 27.0706578,18.1097181 27.0803825,18.067404 L27.0803825,18.067404 L27.0971304,17.8334646 L27.5375788,11.7493131 C27.5347908,11.7197071 27.378043,10.3257677 26.8121261,9.27142424 L26.8121261,9.27142424 L26.7012217,9.07774495 L26.7012217,9.07774495 L26.5801633,8.89457576 L26.4682787,8.74993434 L26.4682787,8.74993434 L26.3481605,8.61632323 L26.2267564,8.49888081 C26.0601877,8.35017778 25.8743768,8.23444444 25.6644971,8.1700404 L25.6644971,8.1700404 L20.7481504,6.70256566 L20.516649,6.63359596 L20.2842049,6.56410101 L18.8393166,6.13293939 Z M17.4846261,25.0745859 C18.0192536,26.335899 19.9824628,26.6499394 19.9824628,26.6499394 L19.9824628,26.6499394 L14.9868897,26.6499394 C14.9868897,26.6499394 16.9505,26.335899 17.4846261,25.0745859 Z M7.49340974,25.0746162 C8.02803725,26.3358283 9.99124642,26.6499697 9.99124642,26.6499697 L9.99124642,26.6499697 L4.99557307,26.6499697 C4.99557307,26.6499697 6.95918338,26.3358283 7.49340974,25.0746162 Z M2.49783668,25.0746162 C3.03246418,26.3358283 4.99557307,26.6499697 4.99557307,26.6499697 L4.99557307,26.6499697 L1.33226763e-14,26.6499697 C1.33226763e-14,26.6499697 1.96361032,26.3358283 2.49783668,25.0746162 Z M32.4719971,25.0746162 C33.0061232,26.3358283 34.9693324,26.6499697 34.9693324,26.6499697 L34.9693324,26.6499697 L29.973659,26.6499697 C29.973659,26.6499697 31.9372693,26.3358283 32.4719971,25.0746162 Z M27.476384,25.0746162 C28.01051,26.3358283 29.9737192,26.6499697 29.9737192,26.6499697 L29.9737192,26.6499697 L24.9781461,26.6499697 C24.9781461,26.6499697 26.9416562,26.3358283 27.476384,25.0746162 Z M26.3481605,3.67931313 L20.7481805,3.67929293 L20.7481605,4.75476768 L21.0222436,4.87274747 L21.5655057,5.10652525 L22.1082765,5.34005051 L25.4515086,6.77819192 C25.7850616,6.90617172 26.0762937,6.97041414 26.3481705,7.01091919 L26.3481605,7.01090909 L26.3481605,3.67931313 Z M14.2211318,3.67929293 L8.62114183,3.67931313 L8.62114183,7.01032323 L8.62114183,7.01032323 L8.7861184,6.98248364 C9.00968195,6.94070909 9.24844413,6.87877778 9.51416332,6.77631313 L9.51416332,6.77631313 L12.8533037,5.34005051 L13.3960845,5.10657576 L13.9393668,4.87277778 L14.2211719,4.75156566 L14.2211318,3.67929293 Z M20.2842049,2.24460606 L14.6850974,2.24460606 L14.6850974,4.55183838 L17.2531246,3.44733333 L17.4258181,3.37317172 L17.4846461,3.34371717 L17.4850874,3.34345455 L17.5979097,3.39951515 L17.7171003,3.45086869 L20.2841848,4.55520202 L20.2842049,2.24460606 Z M23.3162077,0.550666667 L17.7171103,0.550666667 L17.7171003,1.77733333 L20.7482106,1.77729293 L20.7482106,3.2120404 L23.3162077,3.21208081 L23.3162077,0.550666667 Z M17.2531447,0.550666667 L11.6531447,0.550666667 L11.6531447,3.21208081 L14.2211318,3.2120202 L14.2211719,1.77730303 L17.2531347,1.77730303 L17.2531447,0.550666667 Z" id="形状结合"></path>
                        </g>
                        <text id="探真科技" font-family="SourceHanSansSC-Bold, Source Han Sans SC" font-size="16" font-weight="bold" letter-spacing="1">
                            <tspan x="49" y="22.5822268">探真科技</tspan>
                        </text>
                        <text id="领航" font-family="SourceHanSansSC-Normal, Source Han Sans SC" font-size="16" font-weight="normal" letter-spacing="1">
                            <tspan x="119" y="22.5822268">领航</tspan>
                        </text>
                    </g>
                </g>
            </g>
        </g>
    </g>
</svg>