<?xml version="1.0" encoding="UTF-8"?>
<svg width="20px" height="20px" viewBox="0 0 20 20" version="1.1" xmlns="http://www.w3.org/2000/svg" xmlns:xlink="http://www.w3.org/1999/xlink">
    <title>形状结合</title>
    <defs>
        <linearGradient x1="21.4400413%" y1="27.8790839%" x2="89.5793876%" y2="90.7510272%" id="linearGradient-1">
            <stop stop-color="#06B8FF" offset="8.36156031%"></stop>
            <stop stop-color="#03EEFF" offset="43.7254152%"></stop>
            <stop stop-color="#2592DB" offset="100%"></stop>
        </linearGradient>
    </defs>
    <g id="页面-1" stroke="none" stroke-width="1" fill="none" fill-rule="evenodd">
        <g id="仪表板占位符" transform="translate(-45.000000, -748.000000)" fill="url(#linearGradient-1)">
            <g id="编组-24" transform="translate(44.000000, 747.000000)">
                <g id="白名单" transform="translate(1.000000, 1.000000)">
                    <path d="M15,4 C15.5522847,4 16,4.44771525 16,5 L16,15 C16,15.5522847 15.5522847,16 15,16 L5,16 C4.44771525,16 4,15.5522847 4,15 L4,5 C4,4.44771525 4.44771525,4 5,4 L15,4 Z M14.7,5 L5.3,5 C5.15798392,5 5.03901581,5.0986801 5.00792321,5.23121275 L5,5.3 L5,14.7 C5,14.8420161 5.0986801,14.9609842 5.23121275,14.9920768 L5.3,15 L14.7,15 C14.8420161,15 14.9609842,14.9013199 14.9920768,14.7687872 L15,14.7 L15,5.3 C15,5.13431458 14.8656854,5 14.7,5 Z M13.0108795,13 C13.2870219,13 13.5108795,13.2238576 13.5108795,13.5 C13.5108795,13.7761424 13.2870219,14 13.0108795,14 L7.01087952,14 C6.73473714,14 6.51087952,13.7761424 6.51087952,13.5 C6.51087952,13.2238576 6.73473714,13 7.01087952,13 L13.0108795,13 Z M13.0108795,11 C13.2870219,11 13.5108795,11.2238576 13.5108795,11.5 C13.5108795,11.7761424 13.2870219,12 13.0108795,12 L7.01087952,12 C6.73473714,12 6.51087952,11.7761424 6.51087952,11.5 C6.51087952,11.2238576 6.73473714,11 7.01087952,11 L13.0108795,11 Z M12.4776479,6.3181535 C12.67291,6.51341565 12.67291,6.82999814 12.4776479,7.02526028 L9.64922074,9.85368741 C9.47565439,10.0272538 9.20622999,10.0465389 9.01136185,9.91154286 L8.94211396,9.85368741 L7.5279004,8.43947384 C7.33263825,8.2442117 7.33263825,7.92762921 7.5279004,7.73236706 C7.72316254,7.53710492 8.03974503,7.53710492 8.23500718,7.73236706 L9.29566735,8.79302724 L11.7705411,6.3181535 C11.9658032,6.12289136 12.2823857,6.12289136 12.4776479,6.3181535 Z" id="形状结合"></path>
                </g>
            </g>
        </g>
    </g>
</svg>