<?xml version="1.0" encoding="UTF-8"?>
<svg width="20px" height="20px" viewBox="0 0 20 20" version="1.1" xmlns="http://www.w3.org/2000/svg" xmlns:xlink="http://www.w3.org/1999/xlink">
    <title>Setting</title>
    <defs>
        <linearGradient x1="27.1375538%" y1="33.1361593%" x2="89.5793876%" y2="90.7510272%" id="linearGradient-1">
            <stop stop-color="#06B8FF" offset="0%"></stop>
            <stop stop-color="#03EEFF" offset="43.7254152%"></stop>
            <stop stop-color="#2592DB" offset="100%"></stop>
        </linearGradient>
    </defs>
    <g id="页面-1" stroke="none" stroke-width="1" fill="none" fill-rule="evenodd">
        <g id="超级管理员_模块列表备份" transform="translate(-19.000000, -900.000000)" fill="url(#linearGradient-1)">
            <g id="告警中心备份" transform="translate(19.000000, 899.000000)">
                <g id="Setting" transform="translate(0.000000, 1.000000)">
                    <path d="M7,12 C7.92830072,12 8.70888587,12.6324456 8.93437932,13.4899607 L15.5,13.4909652 C15.7761424,13.4909652 16,13.7148228 16,13.9909652 C16,14.2671076 15.7761424,14.4909652 15.5,14.4909652 L8.93928936,14.4909838 C8.72041952,15.3581685 7.93516365,16 7,16 C6.06483635,16 5.27958048,15.3581685 5.06071064,14.4909838 L4.5,14.4909652 C4.22385763,14.4909652 4,14.2671076 4,13.9909652 C4,13.7148228 4.22385763,13.4909652 4.5,13.4909652 L5.06562068,13.4899607 C5.29111413,12.6324456 6.07169928,12 7,12 Z M7,13 C6.44771525,13 6,13.4477153 6,14 C6,14.5522847 6.44771525,15 7,15 C7.55228475,15 8,14.5522847 8,14 C8,13.4477153 7.55228475,13 7,13 Z M12,8 C12.93408,8 13.7185995,8.64034491 13.9385262,9.50600258 L15.5,9.50677425 C15.7761424,9.50677425 16,9.73063187 16,10.0067742 C16,10.2829166 15.7761424,10.5067742 15.5,10.5067742 L13.9351667,10.5070354 C13.710708,11.366077 12.9293843,12 12,12 C11.0706157,12 10.289292,11.366077 10.0648333,10.5070354 L4.5,10.5067742 C4.22385763,10.5067742 4,10.2829166 4,10.0067742 C4,9.73063187 4.22385763,9.50677425 4.5,9.50677425 L10.0614738,9.50600258 C10.2814005,8.64034491 11.06592,8 12,8 Z M12,9 C11.4477153,9 11,9.44771525 11,10 C11,10.5522847 11.4477153,11 12,11 C12.5522847,11 13,10.5522847 13,10 C13,9.44771525 12.5522847,9 12,9 Z M7,4 C7.93191279,4 8.71495822,4.63737692 8.93698631,5.49998077 L15.5,5.5 C15.7761424,5.5 16,5.72385763 16,6 C16,6.27614237 15.7761424,6.5 15.5,6.5 L8.93672788,6.50102216 C8.71435119,7.36311708 7.93155158,8 7,8 C6.06844842,8 5.28564881,7.36311708 5.06327212,6.50102216 L4.5,6.5 C4.22385763,6.5 4,6.27614237 4,6 C4,5.72385763 4.22385763,5.5 4.5,5.5 L5.06301369,5.49998077 C5.28504178,4.63737692 6.06808721,4 7,4 Z M7,5 C6.44771525,5 6,5.44771525 6,6 C6,6.55228475 6.44771525,7 7,7 C7.55228475,7 8,6.55228475 8,6 C8,5.44771525 7.55228475,5 7,5 Z" id="形状结合"></path>
                </g>
            </g>
        </g>
    </g>
</svg>