<?xml version="1.0" encoding="UTF-8"?>
<svg width="20px" height="20px" viewBox="0 0 20 20" version="1.1" xmlns="http://www.w3.org/2000/svg" xmlns:xlink="http://www.w3.org/1999/xlink">
    <title>开始</title>
    <g id="页面-1" stroke="none" stroke-width="1" fill="none" fill-rule="evenodd">
        <g id="K8s_集群扫描" transform="translate(-473.000000, -333.000000)" fill="#78849F">
            <g id="内容" transform="translate(232.000000, 66.000000)">
                <g id="编组-9" transform="translate(0.000000, 80.000000)">
                    <g id="编组-7" transform="translate(0.000000, 132.000000)">
                        <g id="编组-10备份" transform="translate(32.666667, 53.625000)">
                            <g id="编组-13" transform="translate(209.000000, 0.000000)">
                                <g id="开始" transform="translate(0.000000, 2.000000)">
                                    <path d="M9.34466392,2.3949022 C13.2106572,2.3949022 16.3446639,5.52890895 16.3446639,9.3949022 C16.3446639,13.2608955 13.2106572,16.3949022 9.34466392,16.3949022 C5.47867067,16.3949022 2.34466392,13.2608955 2.34466392,9.3949022 C2.34466392,5.52890895 5.47867067,2.3949022 9.34466392,2.3949022 Z M9.34466392,3.3949022 C6.03095542,3.3949022 3.34466392,6.0811937 3.34466392,9.3949022 C3.34466392,12.7086107 6.03095542,15.3949022 9.34466392,15.3949022 C12.6583724,15.3949022 15.3446639,12.7086107 15.3446639,9.3949022 C15.3446639,6.0811937 12.6583724,3.3949022 9.34466392,3.3949022 Z M7.84466392,6.77799739 C7.93528589,6.77799739 8.02420409,6.80262631 8.10191179,6.84925093 L11.6300865,8.96615574 C11.8668766,9.10822982 11.9436591,9.41535995 11.8015851,9.65215008 C11.7593602,9.72252488 11.7004613,9.78142378 11.6300865,9.82364866 L8.10191179,11.9405535 C7.86512166,12.0826276 7.55799153,12.005845 7.41591745,11.7690549 C7.36929283,11.6913472 7.34466392,11.602429 7.34466392,11.511807 L7.34466392,7.27799739 C7.34466392,7.00185502 7.56852154,6.77799739 7.84466392,6.77799739 Z" id="形状结合"></path>
                                </g>
                            </g>
                        </g>
                    </g>
                </g>
            </g>
        </g>
    </g>
</svg>