<?xml version="1.0" encoding="UTF-8"?>
<svg width="20px" height="20px" viewBox="0 0 20 20" version="1.1" xmlns="http://www.w3.org/2000/svg" xmlns:xlink="http://www.w3.org/1999/xlink">
    <title>形状</title>
    <g id="页面-1" stroke="none" stroke-width="1" fill="none" fill-rule="evenodd" opacity="0.797363281">
        <g id="Risk-explorer_list-view" transform="translate(-1552.000000, -247.000000)" fill="#7B8EB2" fill-rule="nonzero">
            <g id="内容" transform="translate(374.000000, 132.000000)">
                <g id="编组-7" transform="translate(0.000000, 60.000000)">
                    <g id="编组-17" transform="translate(33.000000, 50.000000)">
                        <g id="编组-16" transform="translate(1137.000000, 0.000000)">
                            <g id="编组-12" transform="translate(7.000000, 4.000000)">
                                <g id="Application-Attacks" transform="translate(0.467604, 0.827803)">
                                    <path d="M11.2507152,1.19383281 L18.1980644,5.03277612 C18.6927683,5.30590492 19,5.82631614 19,6.39141023 L19,14.0129027 C18.9997534,14.5778115 18.6926062,15.0979802 18.1980644,15.3710194 L11.2507152,19.2109975 C10.7835317,19.4691643 10.2164683,19.4691643 9.74928482,19.2109975 L2.80193564,15.3720542 C2.30706946,15.0988358 2,14.5781821 2,14.0129027 L2,6.39192762 C2.00043482,5.82720422 2.30755598,5.30727782 2.80193564,5.03432826 L9.74876745,1.19331542 C10.2160857,0.93547536 10.783397,0.93547536 11.2507152,1.19383281 Z M4.92689448,7.74976491 C4.98376208,7.94773402 5.11699669,8.11497585 5.29724881,8.21464964 L9.72393331,10.6602945 L9.72393331,15.5381325 C9.72393331,15.9667423 10.0713902,16.3141992 10.5,16.3141992 C10.9286098,16.3141992 11.2760667,15.9667423 11.2760667,15.5381325 L11.2760667,10.6602945 L15.7027512,8.21309749 C16.0605349,7.99788064 16.1839186,7.5381644 15.9819787,7.17272267 C15.7800387,6.80728093 15.3251608,6.66710715 14.9525534,6.85549813 L10.5,9.31562959 L6.04848138,6.85549813 C5.67330026,6.64837831 5.20125292,6.78457254 4.9940654,7.15971627 C4.89419156,7.33934025 4.87002688,7.5517958 4.92689448,7.74976491 Z" id="形状"></path>
                                </g>
                            </g>
                        </g>
                    </g>
                </g>
            </g>
        </g>
    </g>
</svg>