<?xml version="1.0" encoding="UTF-8"?>
<svg width="20px" height="20px" viewBox="0 0 20 20" version="1.1" xmlns="http://www.w3.org/2000/svg" xmlns:xlink="http://www.w3.org/1999/xlink">
    <title>形状结合</title>
    <g id="页面-1" stroke="none" stroke-width="1" fill="none" fill-rule="evenodd">
        <g id="Risk-explorer_list-view" transform="translate(-1735.000000, -247.000000)" fill="#CCB683">
            <g id="内容" transform="translate(374.000000, 132.000000)">
                <g id="编组-7" transform="translate(0.000000, 60.000000)">
                    <g id="编组-17" transform="translate(33.000000, 50.000000)">
                        <g id="编组-16" transform="translate(1137.000000, 0.000000)">
                            <g id="编组-15备份-3" transform="translate(183.000000, 0.000000)">
                                <g id="编组-12" transform="translate(7.000000, 4.000000)">
                                    <g id="Compliance-Check-Failures" transform="translate(0.524258, 0.169843)">
                                        <path d="M10.0033262,2.16790823 C10.3763721,1.91925377 10.86932,1.9492704 11.2094394,2.24135099 L11.2094394,2.24135099 L11.4885278,2.47179677 C12.9926161,3.66527765 14.747439,4.28873156 16.7529965,4.34215848 C17.7982362,4.40023495 17.9489758,4.86092503 18.0017219,5.26940971 L18.0017219,5.26940971 L18.001158,6.98070061 C18.0005884,7.91796375 17.9996866,8.82769979 17.9989272,9.68439017 L17.9981146,10.6853235 C17.9980007,10.8473577 17.9979001,11.0068618 17.9978166,11.1636315 L17.9975508,12.0698058 C17.7662315,14.8650028 13.8854712,17.8244075 10.4989899,19.6070133 C4.99824475,16.9174078 3.08553835,14.0308159 3.00222194,12.0698058 C3.00153717,11.7141112 3.00101675,11.3946167 3.00063108,11.1017498 L3.000802,8.01559431 C3.0008776,7.93498021 3.00095393,7.85271581 3.0010299,7.76844657 L3.00185381,6.63829359 C3.00190932,6.53231315 3.00196009,6.42290975 3.00200501,6.30972884 L3.00222194,5.17953586 C3.08275011,4.45535456 3.50943744,4.32602883 4.24899709,4.32602883 C5.80842299,4.40488295 7.7265327,3.68550942 10.0033262,2.16790823 Z M15.0427169,7.50262778 C14.7498237,7.20973456 14.27495,7.20973456 13.9820567,7.50262778 L13.9820567,7.50262778 L9.91173772,11.572522 L7.9682262,9.62977468 C7.67533298,9.33688146 7.20045925,9.33688146 6.90756603,9.62977468 C6.61467281,9.9226679 6.61467281,10.3975416 6.90756603,10.6904348 L6.90756603,10.6904348 L9.38243977,13.1653086 C9.67533298,13.4582018 10.1502067,13.4582018 10.4430999,13.1653086 C10.4500394,13.1583691 10.4568144,13.1513275 10.4634251,13.1441886 L10.4634251,13.1441886 L15.0427169,8.56328795 C15.3356101,8.27039473 15.3356101,7.795521 15.0427169,7.50262778 Z" id="形状结合"></path>
                                    </g>
                                </g>
                            </g>
                        </g>
                    </g>
                </g>
            </g>
        </g>
    </g>
</svg>