<?xml version="1.0" encoding="UTF-8"?>
<svg width="20px" height="20px" viewBox="0 0 20 20" version="1.1" xmlns="http://www.w3.org/2000/svg" xmlns:xlink="http://www.w3.org/1999/xlink">
    <title>形状</title>
    <g id="页面-1" stroke="none" stroke-width="1" fill="none" fill-rule="evenodd">
        <g id="Risk-explorer_list-view" transform="translate(-1674.000000, -517.000000)" fill="#4B546B" fill-rule="nonzero">
            <g id="内容" transform="translate(374.000000, 132.000000)">
                <g id="编组-7" transform="translate(0.000000, 60.000000)">
                    <g id="编组-17备份-5" transform="translate(33.000000, 320.000000)">
                        <g id="编组-16" transform="translate(1137.000000, 0.000000)">
                            <g id="编组-15备份-2" transform="translate(122.000000, 0.000000)">
                                <g id="编组-12" transform="translate(7.000000, 4.000000)">
                                    <g id="Runtime-Detections_across" transform="translate(0.496003, 0.981014)">
                                        <path d="M6.47780752,15.732824 C5.4620519,15.231432 4.80688952,14.4293786 4.53094258,13.3605533 L4.68499885,13.3605533 C4.8393353,13.3609588 4.98223668,13.2770749 5.060176,13.1403222 C5.13811531,13.0035694 5.13933104,12.8345847 5.06336782,12.6966651 L3.93926493,10.7223797 C3.86140531,10.5847256 3.71806752,10.5000122 3.56301211,10.5000122 C3.40795671,10.5000122 3.26461892,10.5847256 3.1867593,10.7223797 L2.05757763,12.698403 C1.98039566,12.8363539 1.98083729,13.0061132 2.05873591,13.1436389 C2.13663454,13.2811646 2.28013447,13.3655262 2.43510014,13.3648981 L2.75083085,13.3648981 C3.15374724,15.6294173 4.58511621,16.7703666 5.71768373,17.3265033 C6.64857151,17.7743399 7.65870063,18.0224228 8.68622954,18.0555716 C9.16428031,18.0570074 9.55321489,17.6608444 9.55555556,17.1700899 C9.55657074,16.9344037 9.46502977,16.7082389 9.30160816,16.5426981 C9.13813049,16.3758949 8.91671819,16.2827247 8.68622954,16.283747 C7.9217381,16.2526067 7.17096529,16.0653155 6.47780752,15.732824 Z M18.5686811,6.6902161 L18.253678,6.6902161 C17.8516902,4.42738785 16.4227753,3.28729058 15.2936623,2.72896419 C14.3649355,2.2814157 13.3571248,2.03351581 12.3319575,2.00044811 C12.0182336,1.9903395 11.7240401,2.15665531 11.5642712,2.43444272 C11.4045022,2.71223013 11.4045022,3.05742325 11.5642712,3.33521066 C11.7240401,3.61299807 12.0182336,3.77931388 12.3319575,3.76920527 C13.094662,3.80248776 13.8435738,3.9895347 14.5361347,4.31971682 C15.5495495,4.82160275 16.2032021,5.62218896 16.4785131,6.6902161 L16.3248119,6.6902161 C16.1682895,6.68739462 16.0225082,6.77178032 15.9436726,6.91083915 C15.864837,7.04989799 15.865261,7.22190899 15.9447813,7.3605551 L17.0654492,9.33336622 C17.1431294,9.47091753 17.2861368,9.55556773 17.4408349,9.55556773 C17.595533,9.55556773 17.7385405,9.47091753 17.8162207,9.33336622 L18.9351995,7.36316004 C19.0171563,7.22778965 19.0216767,7.0574794 18.9470227,6.91771457 C18.8702687,6.77704622 18.7255529,6.69002795 18.5686811,6.6902161 Z M11.6727977,9.55556162 C11.0282099,9.55349448 10.5035778,10.0794159 10.5,10.7312538 L10.5,16.8798816 C10.5035778,17.5317196 11.0282099,18.057641 11.6727977,18.0555738 L17.8272023,18.0555738 C18.4717901,18.057641 18.9964222,17.5317196 19,16.8798816 L19,10.7312538 C18.9964222,10.0794159 18.4717901,9.55349448 17.8272023,9.55556162 L11.6727977,9.55556162 Z M10.5,3.17504804 C10.496423,2.52357061 9.97190541,1.99794007 9.32745826,2.00000607 L3.1716141,2.00000607 C2.52752858,1.99845799 2.00357641,2.52393765 2,3.17504804 L2,9.32027532 C2.00049143,9.63381649 2.12423494,9.9343046 2.34398209,10.1555718 C2.56372923,10.376839 2.86146012,10.5007408 3.1716141,10.5000301 L9.32467532,10.5000301 C9.63547091,10.5017398 9.9341566,10.3782795 10.1547076,10.156904 C10.3752586,9.93552846 10.4995115,9.63446908 10.5,9.32027532 L10.5,3.17504804 Z" id="形状"></path>
                                    </g>
                                </g>
                            </g>
                        </g>
                    </g>
                </g>
            </g>
        </g>
    </g>
</svg>