<?xml version="1.0" encoding="UTF-8"?>
<svg width="20px" height="20px" viewBox="0 0 20 20" version="1.1" xmlns="http://www.w3.org/2000/svg" xmlns:xlink="http://www.w3.org/1999/xlink">
    <title>形状结合</title>
    <g id="页面-1" stroke="none" stroke-width="1" fill="none" fill-rule="evenodd">
        <g id="Risk-explorer_list-view" transform="translate(-1613.000000, -517.000000)" fill="#E05556">
            <g id="内容" transform="translate(374.000000, 132.000000)">
                <g id="编组-7" transform="translate(0.000000, 60.000000)">
                    <g id="编组-17备份-5" transform="translate(33.000000, 320.000000)">
                        <g id="编组-16" transform="translate(1137.000000, 0.000000)">
                            <g id="编组-15备份" transform="translate(61.000000, 0.000000)">
                                <g id="Image-Vulnerabilities_across" transform="translate(8.000000, 5.000000)">
                                    <path d="M17.7181632,5.4953394 C18.097859,5.4953394 18.4116542,5.77749328 18.4613166,6.14356884 L18.4681632,6.2453394 L18.4879497,6.24605488 L18.4879497,6.4953394 C18.4879497,8.06086828 17.2887909,9.34631862 15.7588941,9.48326962 C16.0814499,10.0971721 16.3088358,10.7704498 16.4207571,11.4820675 L18.25,11.4828329 C18.6642136,11.4828329 19,11.8186193 19,12.2328329 C19,12.6470464 18.6642136,12.9828329 18.25,12.9828329 L16.4823794,12.9822745 C16.4291277,13.7083485 16.2566064,14.4012872 15.9843262,15.0415801 C17.3454623,15.2672383 18.397089,16.4108362 18.4823615,17.8153737 L18.4879497,18 L18.4879497,18.2499451 L18.4681632,18.25 L18.4613166,18.3517706 C18.4116542,18.7178461 18.097859,19 17.7181632,19 C17.3729853,19 17.0822706,18.766815 16.9949539,18.4493797 L16.9750098,18.3517706 L16.9679497,18.2499451 L16.9681632,17.986103 L16.9612966,17.841643 C16.8931547,17.1285318 16.3257344,16.5611115 15.6126232,16.4929696 L15.4681632,16.486103 L15.1341561,16.4867721 C14.0385022,17.8957199 12.3756336,18.8417281 10.4884214,18.9819257 L10.4885926,6.01808706 C12.1408025,6.14087025 13.6210518,6.88127527 14.6992632,8.0092249 L15.4681632,8.00923641 C16.2478593,8.00923641 16.8886119,7.41434833 16.9612966,6.65369643 L16.9681632,6.50923641 L16.9679497,6.24605488 L16.9750098,6.14356884 C17.0246723,5.77749328 17.3384675,5.4953394 17.7181632,5.4953394 Z M2.25,5.4953394 C2.62969577,5.4953394 2.91673922,5.77749328 2.96194302,6.14356884 L2.96816322,6.2453394 L2.96816322,6.50923641 C2.96816322,7.28893253 3.5630513,7.92968509 4.32370321,8.00236984 L4.46816322,8.00923641 L5.30073681,8.0092249 C6.37395649,6.88649726 7.84550009,6.14773416 9.48847114,6.01983207 L9.48874437,18.9801892 C7.61095596,18.8340861 5.95707675,17.8900347 4.86584395,16.4867721 L4.46816322,16.486103 L4.32370321,16.4929696 C3.61059205,16.5611115 3.04317175,17.1285318 2.9750298,17.841643 L2.96816322,17.986103 L2.96816322,18.25 L2.96194302,18.3517706 C2.91673922,18.7178461 2.62969577,19 2.25,19 C1.87030423,19 1.55650904,18.7178461 1.50684662,18.3517706 L1.5,18.25 L1.48794972,18.2499451 L1.48794972,18 C1.48794972,16.5044018 2.58237064,15.2644193 4.01404535,15.0372197 C3.74267684,14.3984059 3.57076162,13.706839 3.51762061,12.9822745 L1.75,12.9828329 C1.33578644,12.9828329 1,12.6470464 1,12.2328329 C1,11.8186193 1.33578644,11.4828329 1.75,11.4828329 L3.57924285,11.4820675 C3.69104361,10.7712164 3.91806035,10.0986226 4.24057672,9.48400262 C2.69919065,9.35923064 1.48794972,8.06873526 1.48794972,6.4953394 L1.48794972,6.24605488 L1.5,6.2453394 C1.5,5.83112584 1.83578644,5.4953394 2.25,5.4953394 Z M10,1 C12.209139,1 14,2.790861 14,5 C14,5.39731935 13.9420711,5.78110868 13.8341986,6.14338274 C12.7328228,5.4201282 11.4154745,5 10,5 C8.58452552,5 7.26717724,5.4201282 6.16585128,6.14248847 C6.05792889,5.78110868 6,5.39731935 6,5 C6,2.790861 7.790861,1 10,1 Z" id="形状结合"></path>
                                </g>
                            </g>
                        </g>
                    </g>
                </g>
            </g>
        </g>
    </g>
</svg>