<?xml version="1.0" encoding="UTF-8"?>
<svg width="20px" height="20px" viewBox="0 0 20 20" version="1.1" xmlns="http://www.w3.org/2000/svg" xmlns:xlink="http://www.w3.org/1999/xlink">
    <title>形状结合备份 43</title>
    <g id="页面-1" stroke="none" stroke-width="1" fill="none" fill-rule="evenodd">
        <g id="仪表板占位符" transform="translate(-175.000000, -1015.000000)" fill="#FFFFFF">
            <g id="收起备份" transform="translate(175.000000, 1015.000000)">
                <path d="M15.9972917,14.5128003 C16.2734341,14.5128003 16.4972917,14.7366579 16.4972917,15.0128003 C16.4972917,15.2889427 16.2734341,15.5128003 15.9972917,15.5128003 L3.99729169,15.5128003 C3.72114931,15.5128003 3.49729169,15.2889427 3.49729169,15.0128003 C3.49729169,14.7366579 3.72114931,14.5128003 3.99729169,14.5128003 L15.9972917,14.5128003 Z M7.2479792,7.43009058 C7.28692584,7.48201943 7.3079792,7.54517952 7.3079792,7.61009058 L7.3079792,12.4100906 C7.3079792,12.575776 7.17366462,12.7100906 7.0079792,12.7100906 C6.94306814,12.7100906 6.87990805,12.6890372 6.8279792,12.6500906 L3.6279792,10.2500906 C3.49543086,10.1506793 3.46856795,9.96263892 3.5679792,9.83009058 C3.58503547,9.80734888 3.6052375,9.78714686 3.6279792,9.77009058 L6.8279792,7.37009058 C6.96052754,7.27067933 7.14856795,7.29754224 7.2479792,7.43009058 Z M15.9972917,11.5128003 C16.2734341,11.5128003 16.4972917,11.7366579 16.4972917,12.0128003 C16.4972917,12.2889427 16.2734341,12.5128003 15.9972917,12.5128003 L8.99729169,12.5128003 C8.72114931,12.5128003 8.49729169,12.2889427 8.49729169,12.0128003 C8.49729169,11.7366579 8.72114931,11.5128003 8.99729169,11.5128003 L15.9972917,11.5128003 Z M15.9972917,7.51280028 C16.2734341,7.51280028 16.4972917,7.7366579 16.4972917,8.01280028 C16.4972917,8.28894265 16.2734341,8.51280028 15.9972917,8.51280028 L8.99729169,8.51280028 C8.72114931,8.51280028 8.49729169,8.28894265 8.49729169,8.01280028 C8.49729169,7.7366579 8.72114931,7.51280028 8.99729169,7.51280028 L15.9972917,7.51280028 Z M15.9972917,4.51280028 C16.2734341,4.51280028 16.4972917,4.7366579 16.4972917,5.01280028 C16.4972917,5.28894265 16.2734341,5.51280028 15.9972917,5.51280028 L3.99729169,5.51280028 C3.72114931,5.51280028 3.49729169,5.28894265 3.49729169,5.01280028 C3.49729169,4.7366579 3.72114931,4.51280028 3.99729169,4.51280028 L15.9972917,4.51280028 Z" id="形状结合"></path>
            </g>
        </g>
    </g>
</svg>