<?xml version="1.0" standalone="no"?><!DOCTYPE svg PUBLIC "-//W3C//DTD SVG 1.1//EN" "http://www.w3.org/Graphics/SVG/1.1/DTD/svg11.dtd"><svg t="1640745535692" class="icon" viewBox="0 0 1024 1024" version="1.1" xmlns="http://www.w3.org/2000/svg" p-id="3880" xmlns:xlink="http://www.w3.org/1999/xlink" width="200" height="200"><defs><style type="text/css"></style></defs><path d="M0 512C0 229.2224 229.2224 0 512 0s512 229.2224 512 512-229.2224 512-512 512S0 794.7776 0 512z m460.8 394.9568V870.4a51.2 51.2 0 1 1 102.4 0v36.5568A398.4384 398.4384 0 0 0 906.9568 563.2H870.4a51.2 51.2 0 1 1 0-102.4h36.5568A398.4384 398.4384 0 0 0 563.2 116.992V153.6a51.2 51.2 0 0 1-102.4 0v-36.5568a398.4384 398.4384 0 0 0-343.7568 343.7056L153.6 460.8a51.2 51.2 0 0 1 0 102.4h-36.5568a398.4384 398.4384 0 0 0 343.7056 343.7568zM358.4 512a153.6 153.6 0 1 1 307.2 0 153.6 153.6 0 0 1-307.2 0z" fill="#676E79" p-id="3881"></path></svg>