<?xml version="1.0" encoding="UTF-8"?>
<svg width="20px" height="20px" viewBox="0 0 20 20" version="1.1" xmlns="http://www.w3.org/2000/svg" xmlns:xlink="http://www.w3.org/1999/xlink">
    <title>完成</title>
    <g id="页面-1" stroke="none" stroke-width="1" fill="none" fill-rule="evenodd">
        <g id="K8s_集群扫描" transform="translate(-764.000000, -333.000000)" fill="#78849F">
            <g id="内容" transform="translate(232.000000, 66.000000)">
                <g id="编组-9" transform="translate(0.000000, 80.000000)">
                    <g id="编组-7" transform="translate(0.000000, 132.000000)">
                        <g id="编组-10备份" transform="translate(32.666667, 53.625000)">
                            <g id="编组-15" transform="translate(500.000000, 0.000000)">
                                <g id="完成" transform="translate(0.000000, 2.000000)">
                                    <path d="M9.4055201,2.43150162 C13.2715134,2.43150162 16.4055201,5.56550837 16.4055201,9.43150162 C16.4055201,13.2974949 13.2715134,16.4315016 9.4055201,16.4315016 C5.53952686,16.4315016 2.4055201,13.2974949 2.4055201,9.43150162 C2.4055201,5.56550837 5.53952686,2.43150162 9.4055201,2.43150162 Z M9.4055201,3.43150162 C6.09181161,3.43150162 3.4055201,6.11779312 3.4055201,9.43150162 C3.4055201,12.7452101 6.09181161,15.4315016 9.4055201,15.4315016 C12.7192286,15.4315016 15.4055201,12.7452101 15.4055201,9.43150162 C15.4055201,6.11779312 12.7192286,3.43150162 9.4055201,3.43150162 Z M8.14453796,7.18076676 L10.544538,7.18076676 C11.0968227,7.18076676 11.544538,7.62848201 11.544538,8.18076676 L11.544538,10.5807668 C11.544538,11.1330515 11.0968227,11.5807668 10.544538,11.5807668 L8.14453796,11.5807668 C7.59225321,11.5807668 7.14453796,11.1330515 7.14453796,10.5807668 L7.14453796,8.18076676 C7.14453796,7.62848201 7.59225321,7.18076676 8.14453796,7.18076676 Z" id="形状结合"></path>
                                </g>
                            </g>
                        </g>
                    </g>
                </g>
            </g>
        </g>
    </g>
</svg>