<?xml version="1.0" encoding="UTF-8"?>
<svg width="20px" height="21px" viewBox="0 0 20 21" version="1.1" xmlns="http://www.w3.org/2000/svg" xmlns:xlink="http://www.w3.org/1999/xlink">
    <title>形状结合</title>
    <defs>
        <linearGradient x1="21.4400413%" y1="28.0594779%" x2="89.5793876%" y2="90.4187062%" id="linearGradient-1">
            <stop stop-color="#06B8FF" offset="8.36156031%"></stop>
            <stop stop-color="#03EEFF" offset="43.7254152%"></stop>
            <stop stop-color="#2592DB" offset="100%"></stop>
        </linearGradient>
    </defs>
    <g id="页面-1" stroke="none" stroke-width="1" fill="none" fill-rule="evenodd">
        <g id="仪表板占位符" transform="translate(-45.000000, -459.000000)" fill="url(#linearGradient-1)">
            <g id="主机" transform="translate(45.000000, 458.510725)">
                <g id="host" transform="translate(0.000000, 1.000000)">
                    <path d="M4.75,4 L15.25,4 C15.6642136,4 16,4.33578644 16,4.75 L16,15.2009704 C16,15.6151839 15.6642136,15.9509704 15.25,15.9509704 L4.75,15.9509704 C4.33578644,15.9509704 4,15.6151839 4,15.2009704 L4,4.75 C4,4.33578644 4.33578644,4 4.75,4 Z M5.3,4.91930541 L14.7,4.91930541 C14.8656854,4.91930541 15,5.05361999 15,5.21930541 L15,14.731665 C15,14.8973504 14.8656854,15.031665 14.7,15.031665 L5.3,15.031665 C5.13431458,15.031665 5,14.8973504 5,14.731665 L5,5.21930541 C5,5.05361999 5.13431458,4.91930541 5.3,4.91930541 Z M5,7.67722165 L15,7.67722165 L15,8.59652707 L5,8.59652707 L5,7.67722165 Z M5,11.3544433 L15,11.3544433 L15,12.2737487 L5,12.2737487 L5,11.3544433 Z M6.3,5.83861083 L8.7,5.83861083 C8.86568542,5.83861083 9,5.9729254 9,6.13861083 L9,6.45791624 C9,6.62360167 8.86568542,6.75791624 8.7,6.75791624 L6.3,6.75791624 C6.13431458,6.75791624 6,6.62360167 6,6.45791624 L6,6.13861083 C6,5.9729254 6.13431458,5.83861083 6.3,5.83861083 Z M6.3,9.51583248 L8.7,9.51583248 C8.86568542,9.51583248 9,9.65014706 9,9.81583248 L9,10.1351379 C9,10.3008233 8.86568542,10.4351379 8.7,10.4351379 L6.3,10.4351379 C6.13431458,10.4351379 6,10.3008233 6,10.1351379 L6,9.81583248 C6,9.65014706 6.13431458,9.51583248 6.3,9.51583248 Z M6.3,13.1930541 L8.7,13.1930541 C8.86568542,13.1930541 9,13.3273687 9,13.4930541 L9,13.8123596 C9,13.978045 8.86568542,14.1123596 8.7,14.1123596 L6.3,14.1123596 C6.13431458,14.1123596 6,13.978045 6,13.8123596 L6,13.4930541 C6,13.3273687 6.13431458,13.1930541 6.3,13.1930541 Z" id="形状结合"></path>
                </g>
            </g>
        </g>
    </g>
</svg>