<?xml version="1.0" encoding="UTF-8"?>
<svg width="22px" height="22px" viewBox="0 0 22 22" version="1.1" xmlns="http://www.w3.org/2000/svg" xmlns:xlink="http://www.w3.org/1999/xlink">
    <title>形状结合备份 647</title>
    <g id="页面-1" stroke="none" stroke-width="1" fill="none" fill-rule="evenodd">
        <g id="Recent-Scans_Image-details" transform="translate(-1846.000000, -129.000000)" fill="#4F5870" fill-rule="nonzero" stroke="#4F5870" stroke-width="0.2">
            <g id="编组-32" transform="translate(782.000000, 48.000000)">
                <g id="分享" transform="translate(1064.000000, 81.000000)">
                    <path d="M16.4899639,11.3580413 C16.4899639,11.0746555 16.7196935,10.8449258 17.0030794,10.8449258 C17.2864653,10.8449258 17.5161949,11.0746555 17.5161949,11.3580413 L17.5161949,15.6340038 C17.5161949,16.6730627 16.6738303,17.5154273 15.6347714,17.5154273 L6.39869249,17.5154273 C5.35963361,17.5154273 4.51726901,16.6730627 4.51726901,15.6340038 L4.51726901,6.91104036 C4.51726901,5.87198148 5.35963361,5.02961688 6.39869249,5.02961688 L10.8456935,5.02961688 C11.1290793,5.02961688 11.358809,5.25934651 11.358809,5.54273237 C11.358809,5.82611824 11.1290793,6.05584787 10.8456935,6.05584787 L6.39869249,6.05584787 C5.92638272,6.05584787 5.54350001,6.43873059 5.54350001,6.91104036 L5.54350001,15.6340038 C5.54350001,16.1063136 5.92638272,16.4891963 6.39869249,16.4891963 L15.6347714,16.4891963 C16.1070812,16.4891963 16.4899639,16.1063136 16.4899639,15.6340038 L16.4899639,11.3580413 Z M14.375757,5.38127202 C14.1815433,5.17487265 14.1914217,4.85011154 14.397821,4.65589777 C14.6042204,4.461684 14.9289815,4.47156236 15.1231953,4.67796172 L17.3767985,7.0725007 C17.6850099,7.39986838 17.4527396,7.93727135 17.0030794,7.93727135 L14.4274107,7.93727135 C13.1177689,7.93727135 12.042963,9.07912437 12.042963,10.5028488 L12.042963,13.5815418 C12.042963,13.8649277 11.8132333,14.0946573 11.5298475,14.0946573 C11.2464616,14.0946573 11.016732,13.8649277 11.016732,13.5815418 L11.016732,10.5028488 C11.016732,8.52581483 12.5365801,6.91104036 14.4274107,6.91104036 L15.8155591,6.91104036 L14.375757,5.38127202 Z" id="形状"></path>
                </g>
            </g>
        </g>
    </g>
</svg>