<?xml version="1.0" encoding="UTF-8"?>
<svg width="20px" height="20px" viewBox="0 0 20 20" version="1.1" xmlns="http://www.w3.org/2000/svg" xmlns:xlink="http://www.w3.org/1999/xlink">
    <title>形状结合</title>
    <defs>
        <linearGradient x1="21.7898144%" y1="27.8790839%" x2="89.0946598%" y2="90.7510272%" id="linearGradient-1">
            <stop stop-color="#06B8FF" offset="8.36156031%"></stop>
            <stop stop-color="#03EEFF" offset="43.7254152%"></stop>
            <stop stop-color="#2592DB" offset="100%"></stop>
        </linearGradient>
    </defs>
    <g id="页面-1" stroke="none" stroke-width="1" fill="none" fill-rule="evenodd">
        <g id="仪表板占位符" transform="translate(-45.000000, -844.000000)" fill="url(#linearGradient-1)">
            <g id="编组-36" transform="translate(44.000000, 843.000000)">
                <g id="用户权限" transform="translate(1.000000, 1.000000)">
                    <path d="M15.5,15 C15.7761424,15 16,15.2238576 16,15.5 C16,15.7761424 15.7761424,16 15.5,16 L10.5,16 C10.2238576,16 10,15.7761424 10,15.5 C10,15.2238576 10.2238576,15 10.5,15 L15.5,15 Z M10,4 C11.6568542,4 13,5.34314575 13,7 C13,8.56333312 11.8042026,9.84737281 10.2773798,9.98734719 C7.06812021,10.9256419 5.2734599,12.7564213 5.07240553,15.5360712 C5.05248397,15.811494 4.81306002,16.0186187 4.53763718,15.9986972 C4.26221434,15.9787756 4.05508962,15.7393517 4.07501119,15.4639288 C4.27268714,12.7309868 5.81374284,10.7573352 8.47050843,9.57974666 C7.58991798,9.05829924 7,8.09804098 7,7 C7,5.34314575 8.34314575,4 10,4 Z M15.5,13 C15.7761424,13 16,13.2238576 16,13.5 C16,13.7761424 15.7761424,14 15.5,14 L10.5,14 C10.2238576,14 10,13.7761424 10,13.5 C10,13.2238576 10.2238576,13 10.5,13 L15.5,13 Z M15.5,11 C15.7761424,11 16,11.2238576 16,11.5 C16,11.7761424 15.7761424,12 15.5,12 L10.5,12 C10.2238576,12 10,11.7761424 10,11.5 C10,11.2238576 10.2238576,11 10.5,11 L15.5,11 Z M10,5 C8.8954305,5 8,5.8954305 8,7 C8,8.1045695 8.8954305,9 10,9 C11.1045695,9 12,8.1045695 12,7 C12,5.8954305 11.1045695,5 10,5 Z" id="形状结合"></path>
                </g>
            </g>
        </g>
    </g>
</svg>