<?xml version="1.0" encoding="UTF-8"?>
<svg width="14px" height="14px" viewBox="0 0 14 14" version="1.1" xmlns="http://www.w3.org/2000/svg" xmlns:xlink="http://www.w3.org/1999/xlink">
    <title>扫描全部</title>
    <g id="页面-1" stroke="none" stroke-width="1" fill="none" fill-rule="evenodd">
        <g id="已扫描的镜像" transform="translate(-1650.000000, -143.000000)" fill="#1890ff" fill-rule="nonzero">
            <g id="内容" transform="translate(232.000000, 114.000000)">
                <g id="Group-52" transform="translate(1402.000000, 20.000000)">
                    <g id="扫描全部" transform="translate(16.000000, 9.000000)">
                        <path d="M7,1.0152515 C8.1814896,1.0152515 9.31338567,1.35789776 10.2812943,1.99124179 C10.5123645,2.14244092 10.5771128,2.45233143 10.4259136,2.68340163 C10.4070461,2.71223603 10.3857074,2.73848053 10.3623592,2.76203869 L7.70135367,7.36800317 C7.56328248,7.60714948 7.25748728,7.68908706 7.01834097,7.55101587 C6.77919465,7.41294469 6.69725708,7.10714948 6.83532826,6.86800317 L9.31042873,2.5797524 C8.60530242,2.21153218 7.81765795,2.0152515 7,2.0152515 C4.23857625,2.0152515 2,4.25382775 2,7.0152515 C2,9.77667525 4.23857625,12.0152515 7,12.0152515 C9.76142375,12.0152515 12,9.77667525 12,7.0152515 C12,6.36919663 11.8776739,5.74095056 11.642595,5.15489385 C11.539791,4.89860116 11.6642181,4.60749575 11.9205108,4.50469171 C12.1768035,4.40188767 12.4679089,4.5263148 12.5707129,4.78260749 C12.8530781,5.48654989 13,6.24111585 13,7.0152515 C13,10.32896 10.3137085,13.0152515 7,13.0152515 C3.6862915,13.0152515 1,10.32896 1,7.0152515 C1,3.701543 3.6862915,1.0152515 7,1.0152515 Z" id="形状结合"></path>
                    </g>
                </g>
            </g>
        </g>
    </g>
</svg>