<?xml version="1.0" encoding="UTF-8"?>
<svg width="20px" height="20px" viewBox="0 0 20 20" version="1.1" xmlns="http://www.w3.org/2000/svg" xmlns:xlink="http://www.w3.org/1999/xlink">
    <title>形状结合</title>
    <defs>
        <linearGradient x1="33.2892296%" y1="33.1361593%" x2="78.9296278%" y2="90.7510272%" id="linearGradient-1">
            <stop stop-color="#06B8FF" offset="0%"></stop>
            <stop stop-color="#03EEFF" offset="43.7254152%"></stop>
            <stop stop-color="#2592DB" offset="100%"></stop>
        </linearGradient>
    </defs>
    <g id="页面-1" stroke="none" stroke-width="1" fill="none" fill-rule="evenodd">
        <g id="仪表板占位符" transform="translate(-19.000000, -316.000000)" fill="url(#linearGradient-1)">
            <g id="编组-20" transform="translate(19.002012, 315.000000)">
                <g id="安全合规" transform="translate(-0.002012, 1.000000)">
                    <path d="M9.48427766,3.15727689 C9.85134751,2.91657945 10.3324731,2.94341013 10.6705045,3.22342857 L10.6705045,3.22342857 L10.9193666,3.42065682 C12.093925,4.31089766 13.4552065,4.77663706 15.003211,4.81787503 C15.8394038,4.86433626 15.9599956,5.23288875 16.0021925,5.55967687 C16.0021925,5.92315123 16.0020822,6.28444165 16.0019017,6.6413915 L16.0011897,7.69706265 C16.0007685,8.21623071 16.0002796,8.72078002 15.9998584,9.20343191 L15.9991464,10.1373825 C15.9989659,10.4375294 15.9988556,10.7257874 15.9988556,11 C15.8137999,13.2361602 12.7091882,15.6036867 10,17.0297729 C5.59939882,14.8780861 4.06923193,12.5688099 4.00257874,11 L4.00257874,11 L4.00118578,10.1308758 C4.00107989,10.0442748 4.00098899,9.96058047 4.00091182,9.87937652 L4.00086681,8.39742785 C4.00091868,8.33069594 4.00097528,8.26354106 4.0010353,8.19554701 L4.00257874,5.48777771 C4.06700134,4.90843201 4.4083516,4.8049713 5,4.8049713 C6.22023582,4.86667389 7.71499504,4.31744242 9.48427766,3.15727689 Z M12.6893908,7.90089433 C12.4941287,7.70563218 12.1775462,7.70563218 11.9822841,7.90089433 L11.9822841,7.90089433 L9.50811743,10.375061 L8.44675015,9.31510789 C8.251488,9.11984574 7.93490551,9.11984574 7.73964337,9.31510789 C7.54438122,9.51037003 7.54438122,9.82695252 7.73964337,10.0222147 L7.73964337,10.0222147 L9.15385693,11.4364282 L9.22310482,11.4942837 C9.41797296,11.6292797 9.68739736,11.6099946 9.86096371,11.4364282 L9.86096371,11.4364282 L12.6893908,8.60800111 C12.884653,8.41273896 12.884653,8.09615647 12.6893908,7.90089433 Z" id="形状结合"></path>
                </g>
            </g>
        </g>
    </g>
</svg>