<?xml version="1.0" encoding="UTF-8"?>
<svg width="20px" height="20px" viewBox="0 0 20 20" version="1.1" xmlns="http://www.w3.org/2000/svg" xmlns:xlink="http://www.w3.org/1999/xlink">
    <title>形状结合</title>
    <defs>
        <linearGradient x1="21.4400413%" y1="27.8883662%" x2="89.5793876%" y2="90.7339273%" id="linearGradient-1">
            <stop stop-color="#06B8FF" offset="8.36156031%"></stop>
            <stop stop-color="#03EEFF" offset="43.7254152%"></stop>
            <stop stop-color="#2592DB" offset="100%"></stop>
        </linearGradient>
    </defs>
    <g id="页面-1" stroke="none" stroke-width="1" fill="none" fill-rule="evenodd">
        <g id="仪表板占位符" transform="translate(-45.000000, -796.000000)" stroke="url(#linearGradient-1)">
            <g id="编组-38" transform="translate(44.000000, 795.000000)">
                <g id="数据管理" transform="translate(1.000000, 1.000000)">
                    <path d="M9.00461655,3.57568266 L9.00436448,10.5167806 L16.4216674,11.0125027 C16.1905618,12.4905642 15.4611905,13.8034362 14.4110567,14.7742036 C13.2522278,15.8454512 11.7025457,16.5 10,16.5 C8.20507456,16.5 6.58007456,15.7724627 5.40380592,14.5961941 C4.22753728,13.4199254 3.5,11.7949254 3.5,10 C3.5,8.28846839 4.16147941,6.73142026 5.24279252,5.57062796 C6.21562325,4.52629177 7.52819441,3.80250048 9.00461655,3.57568266 L9.00461655,3.57568266 Z M11.0044123,3.57707551 C12.4058043,3.79438607 13.6591253,4.45952435 14.6137366,5.42141523 C15.5687023,6.38366313 16.2248334,7.6430049 16.43092,9.04861793 L16.43092,9.04861793 L11.004384,9.04896777 Z" id="形状结合"></path>
                </g>
            </g>
        </g>
    </g>
</svg>