<?xml version="1.0" encoding="UTF-8"?>
<svg width="20px" height="20px" viewBox="0 0 20 20" version="1.1" xmlns="http://www.w3.org/2000/svg" xmlns:xlink="http://www.w3.org/1999/xlink">
    <title>形状结合</title>
    <defs>
        <linearGradient x1="21.4400413%" y1="30.7302242%" x2="89.5793876%" y2="85.4986726%" id="linearGradient-1">
            <stop stop-color="#06B8FF" offset="8.36156031%"></stop>
            <stop stop-color="#03EEFF" offset="43.7254152%"></stop>
            <stop stop-color="#2592DB" offset="100%"></stop>
        </linearGradient>
    </defs>
    <g id="页面-1" stroke="none" stroke-width="1" fill="none" fill-rule="evenodd">
        <g id="仪表板占位符" transform="translate(-19.000000, -124.000000)" fill="url(#linearGradient-1)">
            <g id="编组-22" transform="translate(18.000000, 110.000000)">
                <g id="警报中心" transform="translate(1.000000, 14.000000)">
                    <path d="M10.0172194,6 C12.5025008,6 14.5172194,8.01471863 14.5172194,10.5 L14.5162194,16 L17.0172194,16 C17.2933618,16 17.5172194,16.2238576 17.5172194,16.5 C17.5172194,16.7761424 17.2933618,17 17.0172194,17 L3.01721943,17 C2.74107706,17 2.51721943,16.7761424 2.51721943,16.5 C2.51721943,16.2238576 2.74107706,16 3.01721943,16 L5.51621943,16 L5.51721943,10.5 C5.51721943,8.01471863 7.53193806,6 10.0172194,6 Z M9.01721943,10 C8.77175954,10 8.56761106,10.1768752 8.5252751,10.4101244 L8.51721943,10.5 L8.51721943,13.5 C8.51721943,13.7761424 8.74107706,14 9.01721943,14 C9.26267932,14 9.4668278,13.8231248 9.50916376,13.5898756 L9.51721943,13.5 L9.51721943,10.5 C9.51721943,10.2238576 9.29336181,10 9.01721943,10 Z M4.11075672,8.71726466 C4.38689909,8.71726466 4.61075672,8.94112229 4.61075672,9.21726466 C4.61075672,9.49340704 4.38689909,9.71726466 4.11075672,9.71726466 L3.11075672,9.71726466 C2.83461434,9.71726466 2.61075672,9.49340704 2.61075672,9.21726466 C2.61075672,8.94112229 2.83461434,8.71726466 3.11075672,8.71726466 L4.11075672,8.71726466 Z M16.92934,8.71726466 C17.2054824,8.71726466 17.42934,8.94112229 17.42934,9.21726466 C17.42934,9.49340704 17.2054824,9.71726466 16.92934,9.71726466 L15.92934,9.71726466 C15.6531976,9.71726466 15.42934,9.49340704 15.42934,9.21726466 C15.42934,8.94112229 15.6531976,8.71726466 15.92934,8.71726466 L16.92934,8.71726466 Z M5.87077282,4.84184855 L6.57787961,5.54895533 C6.77314175,5.74421747 6.77314175,6.06079996 6.57787961,6.25606211 C6.38261746,6.45132426 6.06603497,6.45132426 5.87077282,6.25606211 L5.16366604,5.54895533 C4.9684039,5.35369318 4.9684039,5.03711069 5.16366604,4.84184855 C5.35892819,4.6465864 5.67551068,4.6465864 5.87077282,4.84184855 Z M14.1551862,4.84184855 C14.3504484,4.6465864 14.6670309,4.6465864 14.862293,4.84184855 C15.0575552,5.03711069 15.0575552,5.35369318 14.862293,5.54895533 L14.862293,5.54895533 L14.1551862,6.25606211 C13.9599241,6.45132426 13.6433416,6.45132426 13.4480794,6.25606211 C13.2528173,6.06079996 13.2528173,5.74421747 13.4480794,5.54895533 L13.4480794,5.54895533 Z M10.0172194,3 C10.2933618,3 10.5172194,3.22385763 10.5172194,3.5 L10.5172194,4.5 C10.5172194,4.77614237 10.2933618,5 10.0172194,5 C9.74107706,5 9.51721943,4.77614237 9.51721943,4.5 L9.51721943,3.5 C9.51721943,3.22385763 9.74107706,3 10.0172194,3 Z" id="形状结合"></path>
                </g>
            </g>
        </g>
    </g>
</svg>