<?xml version="1.0" encoding="UTF-8"?>
<svg width="20px" height="20px" viewBox="0 0 20 20" version="1.1" xmlns="http://www.w3.org/2000/svg" xmlns:xlink="http://www.w3.org/1999/xlink">
    <title>形状结合</title>
    <defs>
        <linearGradient x1="32.7080691%" y1="33.1361593%" x2="79.9357309%" y2="90.7510272%" id="linearGradient-1">
            <stop stop-color="#06B8FF" offset="0%"></stop>
            <stop stop-color="#03EEFF" offset="43.7254152%"></stop>
            <stop stop-color="#2592DB" offset="100%"></stop>
        </linearGradient>
    </defs>
    <g id="页面-1" stroke="none" stroke-width="1" fill="none" fill-rule="evenodd">
        <g id="仪表板占位符" transform="translate(-45.000000, -604.000000)" fill="url(#linearGradient-1)" fill-rule="nonzero">
            <g id="编组-34" transform="translate(44.000000, 603.000000)">
                <g id="镜像脆弱性" transform="translate(1.000000, 1.000000)">
                    <path d="M10.5547002,3.36980013 L16,7 L16,16 C16,16.5522847 15.5522847,17 15,17 L5,17 C4.44771525,17 4,16.5522847 4,16 L4,7 L9.4452998,3.36980013 C9.78119922,3.14586719 10.2188008,3.14586719 10.5547002,3.36980013 Z M10,4.201 L5,7.535 L5,16 L15,16 L15,7.535 L10,4.201 Z M10.0028229,7.5 C11.6596771,7.5 13.0028229,8.84314575 13.0028229,10.5 C13.0028229,11.139677 12.8026173,11.7325936 12.4614482,12.2195077 L13.5660275,13.3230821 C13.7612896,13.5183443 13.7612896,13.8349268 13.5660275,14.0301889 C13.3707653,14.2254511 13.0541828,14.2254511 12.8589207,14.0301889 L11.7600437,12.9317657 C11.2661754,13.2892627 10.6591093,13.5 10.0028229,13.5 C8.34596863,13.5 7.00282288,12.1568542 7.00282288,10.5 C7.00282288,8.84314575 8.34596863,7.5 10.0028229,7.5 Z M10.003491,8.5 C8.89892146,8.5 8.00349096,9.3954305 8.00349096,10.5 C8.00349096,11.6045695 8.89892146,12.5 10.003491,12.5 C11.1080605,12.5 12.003491,11.6045695 12.003491,10.5 C12.003491,9.3954305 11.1080605,8.5 10.003491,8.5 Z" id="形状结合"></path>
                </g>
            </g>
        </g>
    </g>
</svg>