<?xml version="1.0" encoding="UTF-8"?>
<svg width="20px" height="20px" viewBox="0 0 20 20" version="1.1" xmlns="http://www.w3.org/2000/svg" xmlns:xlink="http://www.w3.org/1999/xlink">
    <title>形状结合</title>
    <defs>
        <linearGradient x1="27.1375538%" y1="33.1361593%" x2="89.5793876%" y2="90.7510272%" id="linearGradient-1">
            <stop stop-color="#06B8FF" offset="0%"></stop>
            <stop stop-color="#03EEFF" offset="43.7254152%"></stop>
            <stop stop-color="#2592DB" offset="100%"></stop>
        </linearGradient>
    </defs>
    <g id="页面-1" stroke="none" stroke-width="1" fill="none" fill-rule="evenodd">
        <g id="仪表板占位符" transform="translate(-19.000000, -556.000000)" fill="url(#linearGradient-1)">
            <g id="编组-33" transform="translate(18.000000, 555.000000)">
                <g id="镜像扫描" transform="translate(1.000000, 1.000000)">
                    <path d="M10,3 C13.8659932,3 17,6.13400675 17,10 C17,13.8659932 13.8659932,17 10,17 C6.13400675,17 3,13.8659932 3,10 C3,8.24692655 3.64443329,6.64436856 4.70932788,5.41629803 L6.84039558,7.54676096 C6.31366954,8.22417049 6,9.07545452 6,10 C6,12.209139 7.790861,14 10,14 C12.209139,14 14,12.209139 14,10 C14,7.790861 12.209139,6 10,6 C9.07545452,6 8.22417049,6.31366954 7.54676096,6.84039558 L5.41629803,4.70932788 C6.64436856,3.64443329 8.24692655,3 10,3 Z M10,7 C11.6568542,7 13,8.34314575 13,10 C13,11.6568542 11.6568542,13 10,13 C8.34314575,13 7,11.6568542 7,10 C7,9.35211643 7.20537542,8.75220086 7.55457487,8.26180468 L9.64644661,10.3535534 C9.84170876,10.5488155 10.1582912,10.5488155 10.3535534,10.3535534 C10.5488155,10.1582912 10.5488155,9.84170876 10.3535534,9.64644661 L10.3535534,9.64644661 L8.26180468,7.55457487 C8.75220086,7.20537542 9.35211643,7 10,7 Z" id="形状结合"></path>
                </g>
            </g>
        </g>
    </g>
</svg>