<?xml version="1.0" encoding="UTF-8"?>
<svg width="20px" height="20px" viewBox="0 0 20 20" version="1.1" xmlns="http://www.w3.org/2000/svg" xmlns:xlink="http://www.w3.org/1999/xlink">
    <title>形状结合</title>
    <defs>
        <linearGradient x1="30.1491759%" y1="36.517025%" x2="86.7780951%" y2="86.5348997%" id="linearGradient-1">
            <stop stop-color="#06B8FF" offset="0%"></stop>
            <stop stop-color="#03EEFF" offset="43.7254152%"></stop>
            <stop stop-color="#2592DB" offset="100%"></stop>
        </linearGradient>
    </defs>
    <g id="页面-1" stroke="none" stroke-width="1" fill="none" fill-rule="evenodd">
        <g id="仪表板占位符" transform="translate(-45.000000, -364.000000)" fill="url(#linearGradient-1)">
            <g id="编组-23" transform="translate(44.000000, 363.000000)">
                <g id="K8s" transform="translate(1.000000, 1.000000)">
                    <path d="M10.4437337,3.03983951 L15.4397024,5.4457712 C15.7138894,5.57781271 15.9130279,5.82752455 15.9807465,6.12421913 L17.2146489,11.5302986 C17.2823675,11.8269932 17.2112958,12.1383787 17.0215525,12.3763093 L13.5642349,16.7116484 C13.3744916,16.949579 13.086728,17.0881586 12.7824034,17.0881586 L7.23729655,17.0881586 C6.93297192,17.0881586 6.64520837,16.949579 6.45546507,16.7116484 L2.9981475,12.3763093 C2.80840419,12.1383787 2.73733247,11.8269932 2.80505107,11.5302986 L4.03895342,6.12421913 C4.10667203,5.82752455 4.30581058,5.57781271 4.5799976,5.4457712 L9.57596624,3.03983951 C9.85015326,2.907798 10.1695467,2.907798 10.4437337,3.03983951 Z M10.00985,3.83089211 L4.92794534,6.2782084 L3.67281855,11.7772782 L7.18960567,16.1871898 L12.8300943,16.1871898 L16.3468814,11.7772782 L15.0917546,6.2782084 L10.00985,3.83089211 Z M10.00985,4.83089211 C10.2859924,4.83089211 10.50985,5.05474973 10.50985,5.33089211 L10.5095529,5.85832367 C11.5503434,5.97330744 12.484171,6.44324057 13.1873078,7.14439532 L13.5949762,6.81320894 C13.8095791,6.63942691 14.1244273,6.67251879 14.2982093,6.88712173 C14.4719914,7.10172466 14.4388995,7.41657288 14.2242965,7.5903549 L13.8127566,7.92400894 C14.2542229,8.6200732 14.50985,9.44563021 14.50985,10.3308921 C14.50985,10.5039311 14.5000832,10.674689 14.4810708,10.8426445 L14.9958494,10.961172 C15.2649142,11.0232905 15.4326774,11.2917677 15.3705589,11.5608325 C15.3084404,11.8298974 15.0399632,11.9976606 14.7708983,11.9355421 L14.25848,11.8175599 C13.9199571,12.7850639 13.2602951,13.6017326 12.4072865,14.1397737 L12.6376405,14.6122012 C12.7586934,14.8603964 12.6556242,15.159731 12.4074291,15.2807838 C12.1592339,15.4018367 11.8598993,15.2987675 11.7388465,15.0505724 L11.5069198,14.5758681 C11.0385797,14.741036 10.5347083,14.8308921 10.00985,14.8308921 C9.48476421,14.8308921 8.98068365,14.7409581 8.51217144,14.5756533 L8.28085349,15.0505724 C8.15980064,15.2987675 7.86046602,15.4018367 7.61227089,15.2807838 C7.36407577,15.159731 7.26100659,14.8603964 7.38205944,14.6122012 L7.6130055,14.1401471 C6.75941573,13.6019249 6.09936593,12.7847241 5.76086967,11.8165583 L5.24880164,11.9355421 C4.97973677,11.9976606 4.7112596,11.8298974 4.64914108,11.5608325 C4.58702256,11.2917677 4.75478572,11.0232905 5.02385058,10.961172 L5.53862912,10.8426445 C5.51961675,10.674689 5.50984998,10.5039311 5.50984998,10.3308921 C5.50984998,9.44563021 5.76547703,8.6200732 6.20694331,7.92400894 L5.79540341,7.5903549 C5.58080048,7.41657288 5.5477086,7.10172466 5.72149063,6.88712173 C5.89527265,6.67251879 6.21012087,6.63942691 6.4247238,6.81320894 L6.8328591,7.14392972 C7.53571617,6.44325808 8.46898607,5.97358433 9.50914253,5.85843476 L9.50984998,5.33089211 C9.50984998,5.05474973 9.7337076,4.83089211 10.00985,4.83089211 Z M10.00985,11.8308921 C9.95766287,11.8308921 9.90609823,11.828227 9.85528472,11.8230255 L8.95412656,13.6688583 C9.28725312,13.7741201 9.64192164,13.8308921 10.00985,13.8308921 C10.3774122,13.8308921 10.731741,13.774233 11.0645789,13.6691723 L10.1644873,11.8230181 C10.1136505,11.8282245 10.0620618,11.8308921 10.00985,11.8308921 Z M11.0685124,11.3935463 L11.9659732,13.2336604 C12.5552518,12.8357761 13.016853,12.2631804 13.2764666,11.5901835 L11.2795698,11.1298908 C11.2192026,11.2256213 11.1483083,11.3140483 11.0685124,11.3935463 Z M8.74013015,11.1298908 L6.74323333,11.5901835 C7.00288318,12.2632742 7.46457693,12.8359358 8.05397331,13.2338269 L8.9511876,11.3935463 C8.87139162,11.3140483 8.80049737,11.2256213 8.74013015,11.1298908 Z M10.00985,9.83089211 C9.7337076,9.83089211 9.50984998,10.0547497 9.50984998,10.3308921 C9.50984998,10.6070345 9.7337076,10.8308921 10.00985,10.8308921 C10.2859924,10.8308921 10.50985,10.6070345 10.50985,10.3308921 C10.50985,10.0547497 10.2859924,9.83089211 10.00985,9.83089211 Z M13.028418,8.5582788 L11.4320266,9.85273288 C11.4644244,9.94913144 11.4872958,10.0499053 11.4995218,10.1539355 L13.49845,10.6154418 C13.5060013,10.5215883 13.50985,10.4266896 13.50985,10.3308921 C13.50985,9.68403311 13.3343702,9.0781596 13.028418,8.5582788 Z M6.50984998,10.3308921 C6.50984998,10.4266896 6.5136987,10.5215883 6.52124995,10.6154418 L8.52017816,10.1539355 C8.53244687,10.0495419 8.55543545,9.94842747 8.58801323,9.85172287 L6.99128198,8.5582788 C6.68532972,9.0781596 6.50984998,9.68403311 6.50984998,10.3308921 Z M10.5098002,6.86632942 L10.5105529,8.91649362 C10.6182161,8.95460778 10.7202318,9.00466645 10.8150073,9.06507685 L12.4045554,7.77835154 C11.893216,7.29844049 11.2376236,6.97042572 10.5098002,6.86632942 Z M7.6157756,7.77775941 L9.20564381,9.06447109 C9.30015054,9.00433176 9.40184389,8.95448031 9.50914701,8.91649362 L9.50890006,6.86647255 C8.78177543,6.97068322 8.12678909,7.29839035 7.6157756,7.77775941 Z" id="形状结合"></path>
                </g>
            </g>
        </g>
    </g>
</svg>