<?xml version="1.0" encoding="UTF-8"?>
<svg width="22px" height="22px" viewBox="0 0 22 22" version="1.1" xmlns="http://www.w3.org/2000/svg" xmlns:xlink="http://www.w3.org/1999/xlink">
    <title>Kubernetes</title>
    <defs>
        <linearGradient x1="30.1491759%" y1="36.517025%" x2="86.7780951%" y2="86.5348997%" id="linearGradient-1">
            <stop stop-color="#06B8FF" offset="0%"></stop>
            <stop stop-color="#03EEFF" offset="43.7254152%"></stop>
            <stop stop-color="#2592DB" offset="100%"></stop>
        </linearGradient>
    </defs>
    <g id="页面-1" stroke="none" stroke-width="1" fill="none" fill-rule="evenodd">
        <g id="在线漏洞" transform="translate(-28.000000, -107.000000)" fill="url(#linearGradient-1)">
            <g id="编组-27" transform="translate(26.000000, 106.000000)">
                <g id="k8s" transform="translate(2.000000, 0.764045)">
                    <g id="Kubernetes" transform="translate(0.270120, 0.345871)">
                        <path d="M10.6637638,4.09903113 L15.6597324,6.50496283 C15.9339194,6.63700434 16.133058,6.88671618 16.2007766,7.18341076 L17.4346789,12.5894902 C17.5023975,12.8861848 17.4313258,13.1975704 17.2415825,13.4355009 L13.7842649,17.77084 C13.5945216,18.0087706 13.3067581,18.1473502 13.0024334,18.1473502 L7.45732659,18.1473502 C7.15300196,18.1473502 6.86523841,18.0087706 6.67549511,17.77084 L3.21817753,13.4355009 C3.02843423,13.1975704 2.9573625,12.8861848 3.02508111,12.5894902 L4.25898346,7.18341076 C4.32670206,6.88671618 4.52584061,6.63700434 4.80002763,6.50496283 L9.79599627,4.09903113 C10.0701833,3.96698962 10.3895767,3.96698962 10.6637638,4.09903113 Z M10.22988,4.89008374 L5.14797538,7.33740002 L3.89284858,12.8364698 L7.40963571,17.2463814 L13.0501243,17.2463814 L16.5669114,12.8364698 L15.3117846,7.33740002 L10.22988,4.89008374 Z M10.22988,5.89008374 C10.5060224,5.89008374 10.72988,6.11394136 10.72988,6.39008374 L10.729583,6.9175153 C11.7703735,7.03249907 12.704201,7.5024322 13.4073379,8.20358695 L13.8150062,7.87240057 C14.0296091,7.69861854 14.3444573,7.73171042 14.5182394,7.94631335 C14.6920214,8.16091628 14.6589295,8.4757645 14.4443266,8.64954653 L14.0327867,8.98320056 C14.474253,9.67926483 14.72988,10.5048218 14.72988,11.3900837 C14.72988,11.5631227 14.7201132,11.7338806 14.7011009,11.9018361 L15.2158794,12.0203636 C15.4849443,12.0824821 15.6527074,12.3509593 15.5905889,12.6200242 C15.5284704,12.889089 15.2599932,13.0568522 14.9909284,12.9947337 L14.47851,12.8767515 C14.1399871,13.8442555 13.4803251,14.6609243 12.6273165,15.1989653 L12.8576705,15.6713929 C12.9787234,15.919588 12.8756542,16.2189226 12.6274591,16.3399755 C12.379264,16.4610283 12.0799293,16.3579591 11.9588765,16.109764 L11.7269498,15.6350597 C11.2586097,15.8002276 10.7547384,15.8900837 10.22988,15.8900837 C9.70479425,15.8900837 9.20071369,15.8001498 8.73220148,15.634845 L8.50088352,16.109764 C8.37983068,16.3579591 8.08049605,16.4610283 7.83230093,16.3399755 C7.58410581,16.2189226 7.48103663,15.919588 7.60208948,15.6713929 L7.83303554,15.1993387 C6.97944577,14.6611165 6.31939596,13.8439157 5.98089971,12.8757499 L5.46883167,12.9947337 C5.19976681,13.0568522 4.93128963,12.889089 4.86917111,12.6200242 C4.8070526,12.3509593 4.97481576,12.0824821 5.24388062,12.0203636 L5.75865916,11.9018361 C5.73964679,11.7338806 5.72988001,11.5631227 5.72988001,11.3900837 C5.72988001,10.5048218 5.98550707,9.67926483 6.42697334,8.98320056 L6.01543345,8.64954653 C5.80083052,8.4757645 5.76773863,8.16091628 5.94152066,7.94631335 C6.11530269,7.73171042 6.43015091,7.69861854 6.64475384,7.87240057 L7.05288913,8.20312135 C7.7557462,7.5024497 8.6890161,7.03277596 9.72917257,6.91762639 L9.72988001,6.39008374 C9.72988001,6.11394136 9.95373764,5.89008374 10.22988,5.89008374 Z M10.22988,12.8900837 C10.1776929,12.8900837 10.1261283,12.8874187 10.0753148,12.8822172 L9.17415659,14.7280499 C9.50728315,14.8333117 9.86195168,14.8900837 10.22988,14.8900837 C10.5974422,14.8900837 10.951771,14.8334247 11.284609,14.7283639 L10.3845174,12.8822098 C10.3336805,12.8874161 10.2820918,12.8900837 10.22988,12.8900837 Z M11.2885424,12.452738 L12.1860032,14.2928521 C12.7752818,13.8949677 13.236883,13.322372 13.4964967,12.6493751 L11.4995998,12.1890824 C11.4392326,12.2848129 11.3683384,12.3732399 11.2885424,12.452738 Z M8.96016018,12.1890824 L6.96326337,12.6493751 C7.22291321,13.3224658 7.68460697,13.8951274 8.27400335,14.2930185 L9.17121764,12.452738 C9.09142166,12.3732399 9.0205274,12.2848129 8.96016018,12.1890824 Z M10.22988,10.8900837 C9.95373764,10.8900837 9.72988001,11.1139414 9.72988001,11.3900837 C9.72988001,11.6662261 9.95373764,11.8900837 10.22988,11.8900837 C10.5060224,11.8900837 10.72988,11.6662261 10.72988,11.3900837 C10.72988,11.1139414 10.5060224,10.8900837 10.22988,10.8900837 Z M13.248448,9.61747043 L11.6520566,10.9119245 C11.6844544,11.0083231 11.7073258,11.1090969 11.7195518,11.2131271 L13.71848,11.6746334 C13.7260313,11.5807799 13.72988,11.4858813 13.72988,11.3900837 C13.72988,10.7432247 13.5544003,10.1373512 13.248448,9.61747043 Z M6.72988001,11.3900837 C6.72988001,11.4858813 6.73372873,11.5807799 6.74127999,11.6746334 L8.7402082,11.2131271 C8.75247691,11.1087335 8.77546549,11.0076191 8.80804327,10.9109145 L7.21131202,9.61747043 C6.90535976,10.1373512 6.72988001,10.7432247 6.72988001,11.3900837 Z M10.7298303,7.92552105 L10.730583,9.97568525 C10.8382462,10.0137994 10.9402619,10.0638581 11.0350373,10.1242685 L12.6245855,8.83754317 C12.1132461,8.35763211 11.4576536,8.02961735 10.7298303,7.92552105 Z M7.83580563,8.83695104 L9.42567384,10.1236627 C9.52018057,10.0635234 9.62187393,10.0136719 9.72917705,9.97568525 L9.7289301,7.92566417 C9.00180546,8.02987484 8.34681913,8.35758198 7.83580563,8.83695104 Z" id="形状结合"></path>
                    </g>
                </g>
            </g>
        </g>
    </g>
</svg>