<?xml version="1.0" encoding="UTF-8"?>
<svg width="438px" height="104px" viewBox="0 0 438 104" version="1.1" xmlns="http://www.w3.org/2000/svg" xmlns:xlink="http://www.w3.org/1999/xlink">
    <!-- Generator: Sketch 63 (92445) - https://sketch.com -->
    <title>编组</title>
    <desc>Created with Sketch.</desc>
    <defs>
        <path d="M9.279,31.887 C6.878,34.911 2.859,39.651 0.458,42.672 L0.458,42.672 C43.79,60.027 82.243,46.4 122.442,0.135 L122.442,0.135 C122.314,0.092 122.251,0.071 122.121,0.027 L122.121,0.027 C93.319,28.847 45.88,42.119 9.279,31.887" id="path-1"></path>
        <path d="M133.636,0.044 C120.513,0.104 111.319,5.63 105.404,7.574 L105.404,7.574 C84.728,15.767 50.968,41.182 20.167,32.355 L20.167,32.355 C11.972,30.006 6.178,25.505 0,21.421 L0,21.421 C4.482,25.389 8.963,29.358 13.444,33.325 L13.444,33.325 C20.591,38.545 26.858,43.821 37.375,46.202 L37.375,46.202 C47.626,48.522 60.259,46.523 68.566,44.259 L68.566,44.259 C93.353,37.497 123.122,20.605 152.19,33.568 L152.19,33.568 C160.077,27.333 167.966,21.097 175.852,14.862 L175.852,14.862 C167.969,5.301 153.943,0.029 135.321,0.03 L135.321,0.03 C134.763,0.03 134.202,0.034 133.636,0.044" id="path-3"></path>
        <polygon id="path-5" points="0.2267 0.9681 69.1117 0.9681 69.1117 82 0.2267 82"></polygon>
    </defs>
    <g id="2" stroke="none" stroke-width="1" fill="none" fill-rule="evenodd">
        <g id="编组" transform="translate(0.000000, -1.000000)">
            <g transform="translate(80.000000, 54.971000)">
                <mask id="mask-2" fill="white">
                    <use xlink:href="#path-1"></use>
                </mask>
                <g id="Clip-2"></g>
                <path d="M9.279,31.887 C6.878,34.911 2.859,39.651 0.458,42.672 L0.458,42.672 C43.79,60.027 82.243,46.4 122.442,0.135 L122.442,0.135 C122.314,0.092 122.251,0.071 122.121,0.027 L122.121,0.027 C93.319,28.847 45.88,42.119 9.279,31.887" id="Fill-1" fill="#FFFFFF" mask="url(#mask-2)"></path>
            </g>
            <g transform="translate(0.000000, 0.971000)">
                <mask id="mask-4" fill="white">
                    <use xlink:href="#path-3"></use>
                </mask>
                <g id="Clip-4"></g>
                <path d="M133.636,0.044 C120.513,0.104 111.319,5.63 105.404,7.574 L105.404,7.574 C84.728,15.767 50.968,41.182 20.167,32.355 L20.167,32.355 C11.972,30.006 6.178,25.505 0,21.421 L0,21.421 C4.482,25.389 8.963,29.358 13.444,33.325 L13.444,33.325 C20.591,38.545 26.858,43.821 37.375,46.202 L37.375,46.202 C47.626,48.522 60.259,46.523 68.566,44.259 L68.566,44.259 C93.353,37.497 123.122,20.605 152.19,33.568 L152.19,33.568 C160.077,27.333 167.966,21.097 175.852,14.862 L175.852,14.862 C167.969,5.301 153.943,0.029 135.321,0.03 L135.321,0.03 C134.763,0.03 134.202,0.034 133.636,0.044" id="Fill-3" fill="#FFFFFF" mask="url(#mask-4)"></path>
            </g>
            <path d="M99.591,59.761 C99.591,72.814 110.172,83.394 123.222,83.394 L123.222,83.394 C136.271,83.394 146.852,72.814 146.852,59.761 L146.852,59.761 C146.852,46.713 136.271,36.132 123.222,36.132 L123.222,36.132 C110.172,36.132 99.591,46.713 99.591,59.761" id="Clip-6"></path>
            <path d="M123.222,36.132 L123.612721,36.1351662 C136.481562,36.3438667 146.852,46.84348 146.852,59.761 L146.852,59.761 L146.848834,60.15184 C146.640133,73.024542 136.14051,83.394 123.222,83.394 L123.222,83.394 L122.831249,83.3908341 C109.961438,83.1821527 99.591,72.68347 99.591,59.761 C99.591,46.713 110.172,36.132 123.222,36.132 L123.222,36.132 Z M119.2983,46.9291 L119.4983,63.7231 L128.9893,60.6031 L128.9893,56.9511 L124.2433,56.9511 L124.2433,53.3661 C124.2433,53.3661 138.6063,54.4041 134.3003,62.1301 C134.3003,62.1301 128.0683,71.3491 116.7093,67.9051 C116.7093,67.9051 108.0773,64.9071 108.2793,57.4821 L108.279697,57.4692122 C108.289968,57.2042865 108.555769,52.8991312 115.0493,48.6531 C115.0493,48.6531 99.4833,54.5611 109.7393,65.5801 C109.7393,65.5801 118.0363,74.0771 130.2503,69.9611 C130.2503,69.9611 141.2703,65.9111 139.2113,56.9511 C139.2113,56.9511 135.6283,44.6731 119.2983,46.9291 Z" id="形状结合" fill="#FFFFFF"></path>
            <g transform="translate(223.000000, 0.971000)">
                <path d="M30.7766,60.3068 C36.1106,46.2318 40.0836,29.5538 42.2396,10.4868 L36.9086,8.8948 L35.3156,9.2338 L2.0646,9.2338 L2.0646,17.2968 L33.2736,17.2968 C31.5706,29.5538 28.7346,40.8998 25.2146,51.2288 C20.1106,43.1678 14.4326,35.1108 8.9856,27.9618 L2.5176,32.1618 C9.0986,40.7858 15.7956,50.9998 21.4706,60.8758 C15.6816,74.6048 8.3076,85.7268 0.1336,92.9918 C2.0646,94.4668 4.9036,97.4158 6.3776,99.3478 C14.0936,92.0808 20.9046,82.3228 26.5776,70.1758 C29.9836,76.7638 32.8206,82.8898 34.5226,87.9978 L41.7866,82.7758 C39.5166,76.4188 35.5456,68.5918 30.7766,60.3068" id="Fill-9" fill="#FFFFFF"></path>
                <polygon id="Fill-11" fill="#FFFFFF" points="56.1995 13.4347 89.4505 13.4347 89.4505 65.7547 97.7375 65.7547 97.7375 5.9477 48.1405 5.9477 48.1405 65.7547 56.1995 65.7547"></polygon>
                <g transform="translate(36.000000, 22.000000)">
                    <mask id="mask-6" fill="white">
                        <use xlink:href="#path-5"></use>
                    </mask>
                    <g id="Clip-14"></g>
                    <path d="M62.1907,54.4191 C61.7377,70.5381 61.0547,73.4881 57.4207,73.4881 L49.0247,73.4881 C46.0757,73.4881 45.0497,72.6901 45.0497,69.6281 L45.0497,42.2771 L37.9027,42.2771 C39.4897,35.5801 40.0567,28.8851 40.0567,22.7581 L40.0567,0.9681 L32.1167,0.9681 L32.1167,22.6471 C32.1167,40.1211 28.5957,61.4591 0.2267,75.8701 C1.9267,77.0061 4.5357,80.2961 5.4427,82.0001 C24.5107,72.1251 33.3617,58.3951 37.2227,44.6611 L37.2227,70.4221 C37.2227,77.7991 40.2847,79.9571 47.7767,79.9571 L57.3117,79.9571 C66.9557,79.9571 68.0897,75.4161 69.1117,57.5971 C67.0687,57.0301 64.3457,56.0111 62.1907,54.4191" id="Fill-13" fill="#FFFFFF" mask="url(#mask-6)"></path>
                </g>
                <path d="M153.342,52.4758 C150.278,57.4708 147.213,62.2358 144.374,66.3228 C152.205,68.8168 160.604,71.8808 168.778,75.0588 C175.131,69.0428 180.238,61.5538 183.643,52.4758 L153.342,52.4758 Z M128.488,36.2458 L120.091,36.2458 L120.091,13.5498 L161.624,13.5498 C160.037,10.0298 157.995,5.7188 156.291,2.3138 L164.919,0.2718 C167.187,4.4698 169.797,9.6908 171.501,13.5498 L211.789,13.5498 L211.789,36.2458 L203.047,36.2458 L203.047,21.3798 L128.488,21.3798 L128.488,36.2458 Z M193.291,52.4758 C189.318,63.0278 183.871,71.5398 177.063,78.3498 C191.02,84.2538 203.843,90.4948 212.468,96.0528 L205.547,103.3218 C197.263,97.6468 184.209,90.9478 169.911,84.7048 C157.88,94.0128 142.672,99.6868 124.173,103.7698 C123.266,101.6198 120.657,97.9848 118.842,96.0528 C135.977,93.1068 150.164,88.4518 161.172,80.9578 C150.957,76.8748 140.63,73.0148 131.211,70.0678 L131.327,69.9548 C135.071,65.1888 139.267,59.0558 143.355,52.4758 L117.252,52.4758 L117.252,44.4178 L148.123,44.4178 C151.525,38.1768 154.819,31.8238 157.089,26.1478 L166.164,28.0758 C163.895,33.1828 161.057,38.8548 157.995,44.4178 L214.852,44.4178 L214.852,52.4758 L193.291,52.4758 Z" id="Fill-15" fill="#FFFFFF"></path>
            </g>
        </g>
    </g>
</svg>