<?xml version="1.0" encoding="UTF-8"?>
<svg width="32px" height="32px" viewBox="0 0 32 32" version="1.1" xmlns="http://www.w3.org/2000/svg" xmlns:xlink="http://www.w3.org/1999/xlink">
    <title>形状结合</title>
    <g id="页面-1" stroke="none" stroke-width="1" fill="none" fill-rule="evenodd">
        <g id="在线漏洞" transform="translate(-1860.000000, -8.000000)" fill="#8498BD" fill-rule="nonzero">
            <g id="top" transform="translate(1604.000000, 8.000000)">
                <g id="退出" transform="translate(256.000000, 0.000000)">
                    <path d="M18.25,9 C18.9403559,9 19.5,9.55964406 19.5,10.25 C19.5,10.8972087 19.0081253,11.4295339 18.3778052,11.4935464 L18.25,11.5 L13.25,11.5 C12.8703042,11.5 12.556509,11.7821539 12.5068466,12.1482294 L12.5,12.25 L12.5,19.7492828 C12.5,20.1289786 12.7821539,20.4427738 13.1482294,20.4924362 L13.25,20.4992828 L18.25,20.4992828 C18.9403559,20.4992828 19.5,21.0589269 19.5,21.7492828 C19.5,22.3964915 19.0081253,22.9288167 18.3778052,22.9928292 L18.25,22.9992828 L13.25,22.9992828 C11.5169685,22.9992828 10.1007541,21.6428281 10.0051448,19.9337067 L10,19.7492828 L10,12.25 C10,10.5169685 11.3564548,9.10075407 13.0655761,9.00514479 L13.25,9 L18.25,9 Z M20.8094056,12.5021715 C20.9807883,12.5021715 21.1439907,12.5754602 21.2578512,12.7035532 L23.8550782,15.6254336 C24.0571507,15.8527652 24.0571507,16.1953386 23.8550782,16.4226702 L21.2578512,19.3445506 C21.0377004,19.5922203 20.6584569,19.6145287 20.4107873,19.3943779 C20.2826943,19.2805174 20.2094056,19.117315 20.2094056,18.9459323 L20.209,17.263 L15.9422772,17.2636269 C15.2519213,17.2636269 14.6922772,16.7039828 14.6922772,16.0136269 C14.6922772,15.3232709 15.2519213,14.7636269 15.9422772,14.7636269 L20.209,14.763 L20.2094056,13.1021715 C20.2094056,12.7708006 20.4780347,12.5021715 20.8094056,12.5021715 Z" id="形状结合"></path>
                </g>
            </g>
        </g>
    </g>
</svg>