<?xml version="1.0" encoding="UTF-8"?>
<svg width="32px" height="32px" viewBox="0 0 32 32" version="1.1" xmlns="http://www.w3.org/2000/svg" xmlns:xlink="http://www.w3.org/1999/xlink">
    <title>头像</title>
    <g id="页面-1" stroke="none" stroke-width="1" fill="none" fill-rule="evenodd">
        <g id="消息通知" transform="translate(-1806.000000, -8.000000)">
            <g id="top" transform="translate(1639.000000, 8.000000)">
                <g id="编组-3" transform="translate(167.000000, 0.000000)">
                    <circle id="椭圆形" stroke="#D3E7F5" fill="#DCEBF5" cx="16" cy="16" r="15.5"></circle>
                    <path d="M16,7 C19.3137085,7 22,9.6862915 22,13 C22,15.2774698 20.731093,17.2585705 18.861692,18.2748891 C23.5494668,19.189576 27,22.3017279 27,26 L26.9960572,26.2023862 C24.2567548,29.1534167 20.3440237,31 16,31 C11.6554863,31 7.74236251,29.1530001 5.00301587,26.2013875 L5,26 L5,26 C5,22.3017279 8.45053318,19.189576 13.1379505,18.2734708 C11.268907,17.2585705 10,15.2774698 10,13 C10,9.6862915 12.6862915,7 16,7 Z" id="形状结合" fill="#FFFFFF"></path>
                </g>
            </g>
        </g>
    </g>
</svg>