<?xml version="1.0" standalone="no"?><!DOCTYPE svg PUBLIC "-//W3C//DTD SVG 1.1//EN" "http://www.w3.org/Graphics/SVG/1.1/DTD/svg11.dtd"><svg t="1642406484488" class="icon" viewBox="0 0 1024 1024" version="1.1" xmlns="http://www.w3.org/2000/svg" p-id="3601" xmlns:xlink="http://www.w3.org/1999/xlink" width="200" height="200"><defs><style type="text/css"></style></defs><path d="M267.662222 478.435556C152.746667 478.435556 56.888889 382.691556 56.888889 267.719111 56.888889 152.746667 152.689778 56.888889 267.662222 56.888889s210.830222 95.800889 210.830222 210.773333-95.857778 210.830222-210.830222 210.830222z m0-325.745778c-62.236444 0-114.915556 52.736-114.915555 114.972444 0 62.293333 52.679111 114.972444 114.915555 114.972445 62.293333 0 114.972444-52.679111 114.972445-114.915556 0-62.293333-52.679111-115.029333-114.915556-115.029333z m488.675556 325.802666c-114.972444 0-210.830222-95.857778-210.830222-210.830222C545.564444 152.746667 641.365333 56.888889 756.337778 56.888889 871.253333 56.888889 967.111111 152.689778 967.111111 267.662222s-95.800889 210.830222-210.773333 210.830222z m0-325.802666c-62.293333 0-114.972444 52.736-114.972445 114.972444 0 62.293333 52.679111 114.972444 114.915556 114.972445 62.293333 0 115.029333-52.679111 115.029333-114.915556 0-62.293333-52.736-115.029333-114.972444-115.029333z m0 814.421333c-114.972444 0-210.830222-95.800889-210.830222-210.773333s95.857778-210.830222 210.830222-210.830222c114.915556 0 210.773333 95.857778 210.773333 210.830222C967.111111 871.253333 871.310222 967.111111 756.337778 967.111111z m0-325.745778c-62.293333 0-114.972444 52.679111-114.972445 114.915556 0 62.293333 52.679111 115.029333 114.915556 115.029333 62.293333 0 115.029333-52.736 115.029333-114.972444 0-62.293333-52.736-114.972444-114.972444-114.972445zM267.662222 967.111111C152.746667 967.111111 56.888889 871.310222 56.888889 756.337778s95.800889-210.830222 210.773333-210.830222 210.830222 95.857778 210.830222 210.830222C478.435556 871.253333 382.634667 967.111111 267.662222 967.111111z m0-325.745778c-62.236444 0-114.915556 52.679111-114.915555 114.915556 0 62.293333 52.679111 115.029333 114.915555 115.029333 62.293333 0 114.972444-52.736 114.972445-114.972444 0-62.293333-52.679111-114.972444-114.915556-114.972445z" fill="#0161CC" p-id="3602"></path></svg>