<?xml version="1.0" encoding="UTF-8"?>
<svg width="20px" height="20px" viewBox="0 0 20 20" version="1.1" xmlns="http://www.w3.org/2000/svg" xmlns:xlink="http://www.w3.org/1999/xlink">
    <title>形状结合</title>
    <defs>
        <linearGradient x1="21.4400413%" y1="27.8879321%" x2="89.5793876%" y2="90.734727%" id="linearGradient-1">
            <stop stop-color="#06B8FF" offset="8.36156031%"></stop>
            <stop stop-color="#03EEFF" offset="43.7254152%"></stop>
            <stop stop-color="#2592DB" offset="100%"></stop>
        </linearGradient>
    </defs>
    <g id="页面-1" stroke="none" stroke-width="1" fill="none" fill-rule="evenodd">
        <g id="仪表板占位符" transform="translate(-45.000000, -268.000000)" fill="url(#linearGradient-1)" fill-rule="nonzero">
            <g id="编组-19" transform="translate(45.000000, 267.000000)">
                <g id="已扫描镜像" transform="translate(0.000000, 1.000000)">
                    <path d="M10.0028008,3 C13.8563015,3 16.984282,6.11831307 16.9999409,9.97093868 C17.0025139,9.98029386 17.0028008,9.99011342 17.0028008,10 L16.999,10.029 L16.995941,10.2406498 C16.8691324,13.9942181 13.7870918,16.9984017 10.0030202,17 L10.0038233,17 L10,17 C6.13400675,17 3,13.8659932 3,10 C3,6.13400675 6.13400675,3 10,3 L10.0028008,3 Z M6.03104114,10.5007553 L4.02061151,10.5009037 C4.26154931,13.4160787 6.5865187,15.7401295 9.50209946,15.9796359 L9.50223357,13.969331 C7.69207346,13.7446406 6.25706282,12.3105022 6.03104114,10.5007553 Z M15.9793885,10.5009037 L14.9161517,10.5010904 C14.7340308,11.0213968 14.2732695,11.410801 13.7127788,11.4903921 C13.1830575,12.8116193 11.9657771,13.7852446 10.5027476,13.9687095 L10.5029055,15.9792227 C13.4161417,15.7374693 15.7385886,13.4144104 15.9793885,10.5009037 Z M9.502,10.5 L7.0415961,10.5006962 C7.25273226,11.7573775 8.24517779,12.748998 9.50227676,12.9589018 L9.502,10.5 Z M12.0838483,10.5010904 L10.502,10.5 L10.5026776,12.9580703 C11.4822506,12.7928146 12.300534,12.1527837 12.7126636,11.2828418 C12.4222758,11.1027147 12.1981673,10.8276915 12.0838483,10.5010904 Z M4.02052886,9.50009733 L6.03091685,9.50024088 C6.07783305,9.12381712 6.17705261,8.76363429 6.3210738,8.42719409 C6.12020757,8.17290082 6,7.8504884 6,7.5 C6,6.67157288 6.67157288,6 7.5,6 C7.8504884,6 8.17290082,6.12020757 8.4282585,6.32164396 C8.76422791,6.17679849 9.12508824,6.07748305 9.50223357,6.03066899 L9.50209946,4.02036405 C6.586185,4.25989791 4.2610171,6.58445337 4.02052886,9.50009733 Z M8.98822366,7.17489588 L8.96655479,7.1835313 C8.98846539,7.28555442 9,7.39143018 9,7.5 C9,8.32842712 8.32842712,9 7.5,9 C7.39143018,9 7.28555442,8.98846539 7.1835313,8.96655479 C7.1202482,9.13659323 7.0723996,9.31558284 7.0414298,9.50029469 L9.502,9.5 L9.50227676,7.04109816 C9.32519265,7.07066673 9.15336021,7.11574738 8.98822366,7.17489588 Z M10.5026776,7.04192968 L10.502,9.5 L12.0873717,9.49969253 C12.2032609,9.17598686 12.4272561,8.90372243 12.7158539,8.72640255 C12.3061177,7.85159068 11.4855938,7.20774942 10.5026776,7.04192968 Z M10.5029055,4.0207773 L10.5027476,6.03129046 C11.9698006,6.21525991 13.1897511,7.19374192 13.7182081,8.52234574 C14.2724252,8.6017262 14.7286923,8.98591624 14.9126283,9.49969253 L15.9794711,9.50009733 C15.7391205,6.58612174 13.4164753,4.26255839 10.5029055,4.0207773 Z" id="形状结合"></path>
                </g>
            </g>
        </g>
    </g>
</svg>