<svg width="32" height="32" xmlns="http://www.w3.org/2000/svg">

 <g>
  <title>background</title>
  <rect fill="none" id="canvas_background" height="402" width="582" y="-1" x="-1"/>
 </g>
 <g>
  <title>Layer 1</title>
  <path fill="#ffffff" stroke="null" id="XMLID_223_" d="m30.944399,27.236221l-6.65715,-6.65715c1.375488,-2.073066 2.180587,-4.555237 2.180587,-7.223605c0,-7.230161 -5.882209,-13.11237 -13.11237,-13.11237s-13.11237,5.882209 -13.11237,13.11237s5.882209,13.11237 13.11237,13.11237c2.668367,0 5.150539,-0.8051 7.223605,-2.180587l6.65715,6.65715c1.022765,1.024076 2.685413,1.024076 3.708178,0c1.024076,-1.024076 1.024076,-2.684102 0,-3.708178zm-26.767593,-13.880755c0,-5.061375 4.117284,-9.178659 9.178659,-9.178659s9.178659,4.117284 9.178659,9.178659s-4.117284,9.178659 -9.178659,9.178659s-9.178659,-4.117284 -9.178659,-9.178659z"/>
 </g>
</svg>