<svg t="1678355948789" class="icon" viewBox="0 0 1024 1024" version="1.1" xmlns="http://www.w3.org/2000/svg" p-id="5074" width="200" height="200"><path d="M512 64a448 448 0 1 0 448 448 448 448 0 0 0-448-448z m165.376 618.176H611.392L512 563.2l-99.328 118.4H346.624a7.936 7.936 0 0 1-8-8 8.384 8.384 0 0 1 1.856-5.184L470.592 513.92 340.48 358.976a8.384 8.384 0 0 1-1.856-5.184A8 8 0 0 1 346.624 345.6h66.048L512 464.576l99.328-118.4h65.984a7.936 7.936 0 0 1 8 8 8.256 8.256 0 0 1-1.92 5.184l-129.92 154.88 130.048 155.008a8.704 8.704 0 0 1 1.856 5.184 8 8 0 0 1-8 7.744z" fill="" p-id="5075"></path></svg>