<svg t="1679299437081" class="icon" viewBox="0 0 1024 1024" version="1.1" xmlns="http://www.w3.org/2000/svg" p-id="5814" width="200" height="200"><path d="M920.32 275.2l-7.296-16.832-1.024-2.24a24.896 24.896 0 0 0-5.12-7.424 24.192 24.192 0 0 0-33.344-0.704l-0.704 0.448L698.624 422.4l-96.64-96.704 170.944-170.624 0.576-1.152a27.008 27.008 0 0 0-0.832-37.248 28.416 28.416 0 0 0-8.512-5.824l-14.72-6.4a326.4 326.4 0 0 0-130.176-27.072h-0.32a328.192 328.192 0 0 0-310.912 433.28l-188.608 188.352a144.256 144.256 0 0 0-42.624 102.4 145.216 145.216 0 0 0 247.744 102.784l188.672-188.032a324.928 324.928 0 0 0 105.472 17.472A328.192 328.192 0 0 0 920.32 275.2z m-301.376 381.44a248.384 248.384 0 0 1-99.904-20.544l-23.936-10.368-224.832 224.384A68.352 68.352 0 0 1 153.6 801.664a67.648 67.648 0 0 1 20.032-48.32l-6.848-6.912 6.912 6.912 224.704-224.384-10.304-24a251.584 251.584 0 0 1 230.848-350.976 247.936 247.936 0 0 1 42.496 3.648L510.912 308.16l-1.28 1.408a26.176 26.176 0 0 0-5.44 16.064 26.88 26.88 0 0 0 4.8 15.296l0.704 1.024 167.36 167.616 2.816 2.688a27.072 27.072 0 0 0 35.136 2.24l151.808-151.424a251.584 251.584 0 0 1-247.872 293.76z" p-id="5815"></path></svg>