<svg t="1678083854836" class="icon" viewBox="0 0 1024 1024" version="1.1" xmlns="http://www.w3.org/2000/svg" p-id="5895" width="200" height="200"><path d="M979.958992 200.975758a114.856456 114.856456 0 0 0 17.834323-131.581467C975.35108 26.216455 928.589314 0.019626 875.939661 0.019626H145.927047a133.629428 133.629428 0 0 0-119.464367 69.374665 114.856456 114.856456 0 0 0 17.578328 131.581467l251.557824 281.594579v323.236445A118.525718 118.525718 0 0 0 358.402957 910.338103l166.311465 95.40083 3.925258-7.253194-4.01059 7.423857a146.087854 146.087854 0 0 0 70.569308 18.090319 141.906602 141.906602 0 0 0 64.0841-16.213022 119.464367 119.464367 0 0 0 69.11867-106.664613v-418.125284l251.557824-281.59458z m-69.715992-88.062305l-7.338525 4.095921a8.021179 8.021179 0 0 1 0 0.767985 19.967616 19.967616 0 0 1 0.767985 2.389288 29.524765 29.524765 0 0 1 0.938649 7.338525 29.012775 29.012775 0 0 1-7.253194 19.114299l-259.664335 290.127748 6.314546 5.631892-6.314546-5.631892a45.823118 45.823118 0 0 0-12.1171 29.695429V896.002379a28.415453 28.415453 0 0 1-15.701031 24.148868h-1.194643a34.644666 34.644666 0 0 1-31.743389-1.791965L413.783224 825.006412a32.426042 32.426042 0 0 1-14.677051-24.831522V466.869306a46.249776 46.249776 0 0 0-12.1171-29.695428l-1.621302 1.365307 1.621302-1.365307-259.749666-290.127749a24.916854 24.916854 0 0 1-4.778575-29.439433 32.170047 32.170047 0 0 1 29.439433-16.298353h721.991435c20.564937 0 27.988795 12.287763 29.012775 15.103709v1.194644l7.338525-4.095921z m-296.612956 814.576319zM120.668866 152.251362l3.071941-2.730614-3.071941 2.730614z m288.421115 679.752249z m-375.459439-758.769394z m621.897362 927.128819z m318.201874-805.01917z" fill="" p-id="5896"></path></svg>