<svg t="1679307486488" class="icon" viewBox="0 0 1024 1024" version="1.1" xmlns="http://www.w3.org/2000/svg" p-id="6490" width="200" height="200"><path d="M511.36 31.296a480 480 0 1 1 0 960 480 480 0 0 1 0-960z m0 64a416 416 0 1 0 0 832 416 416 0 0 0 0-832z m0.832 298.56c17.408 0 31.872 13.312 33.28 30.72l25.216 304.448a58.88 58.88 0 1 1-117.376 0l25.536-304.512a33.472 33.472 0 0 1 33.344-30.72zM512 230.4c15.68 0 28.992 5.632 39.936 16.896a54.4 54.4 0 0 1 17.28 41.088c0 16.896-5.504 30.592-17.28 41.088A52.928 52.928 0 0 1 512 345.6c-16.448 0-30.592-4.864-41.6-16.128a54.208 54.208 0 0 1-16.384-41.088c0-16.896 5.504-30.592 16.448-41.92a61.248 61.248 0 0 1 41.536-16.064z" fill="" p-id="6491"></path></svg>