<svg t="1679299474840" class="icon" viewBox="0 0 1024 1024" version="1.1" xmlns="http://www.w3.org/2000/svg" p-id="5949" width="200" height="200"><path d="M154.112 972.8a39.808 39.808 0 0 0 39.68-39.744v-282.368l1.856-0.384a566.08 566.08 0 0 1 126.656-14.336c63.552 0 128 21.44 190.272 42.24s125.952 41.92 188.672 41.92a502.208 502.208 0 0 0 208.128-41.28V94.656a511.552 511.552 0 0 1-208.128 40.832c-63.552 0-128-21.44-190.208-42.24S385.28 51.2 322.496 51.2a506.24 506.24 0 0 0-208.064 41.28v840.576a39.68 39.68 0 0 0 39.68 39.744z m39.68-824.704l1.792-0.448a473.6 473.6 0 0 1 125.696-16.96h1.28a587.712 587.712 0 0 1 180.096 43.456 638.784 638.784 0 0 0 198.912 40.768 647.616 647.616 0 0 0 125.632-12.352l2.88-0.576V623.36l-1.792 0.448a473.6 473.6 0 0 1-125.696 16.96h-1.28a587.712 587.712 0 0 1-180.096-43.456A636.928 636.928 0 0 0 322.432 556.8a647.488 647.488 0 0 0-125.568 12.352l-2.88 0.512z" p-id="5950"></path></svg>