<svg t="1680257619166" class="icon" viewBox="0 0 1024 1024" version="1.1" xmlns="http://www.w3.org/2000/svg" p-id="4864" width="200" height="200"><path d="M964.544 477.184a142.016 142.016 0 0 0-224.896 168.768l-153.6 153.6c-44.8 44.8-115.2 46.656-157.312 4.608a104.512 104.512 0 0 1-30.336-76.8 117.056 117.056 0 0 1 34.88-80.448l59.52-59.456 153.6-154.048a195.904 195.904 0 0 0 58.112-134.848 182.528 182.528 0 0 0-53.504-134.4c-73.024-73.088-193.984-71.04-269.568 4.544l-153.6 153.6a142.08 142.08 0 1 0 56.128 56.128l153.6-153.6c44.8-44.8 115.2-46.656 157.312-4.608a104.512 104.512 0 0 1 30.336 76.8A117.056 117.056 0 0 1 590.592 377.6L531.2 436.48 377.6 590.592a195.904 195.904 0 0 0-58.112 134.848 182.784 182.784 0 0 0 184.064 188.16 196.864 196.864 0 0 0 139.008-58.048l153.6-153.6a142.016 142.016 0 0 0 168.832-224.896zM204.288 490.688a62.72 62.72 0 1 1 0-88.64 62.72 62.72 0 0 1 0 88.64z m704 131.264A62.72 62.72 0 1 1 864 514.88a62.72 62.72 0 0 1 44.352 107.072z" p-id="4865"></path></svg>