<svg t="1679380086372" class="icon" viewBox="0 0 1024 1024" version="1.1" xmlns="http://www.w3.org/2000/svg" p-id="6760" width="200" height="200"><path d="M960.96 536.064a449.28 449.28 0 0 0-565.056-458.368A39.424 39.424 0 0 0 416 153.6a378.88 378.88 0 0 1 96-12.8 370.56 370.56 0 0 1 369.92 391.36 373.504 373.504 0 0 1-349.888 350.144A370.688 370.688 0 0 1 141.184 512a372.096 372.096 0 0 1 81.088-231.296l1.152-1.408 260.544 260.48a38.784 38.784 0 0 0 26.816 8.768 39.488 39.488 0 0 0 28.544-64.448L277.696 222.08a78.528 78.528 0 0 0-55.296-22.72h-3.456a76.224 76.224 0 0 0-54.4 27.904A449.088 449.088 0 0 0 512 961.6h24.192a453.376 453.376 0 0 0 425.088-425.536z" p-id="6761"></path></svg>