<svg t="1679311921017" class="icon" viewBox="0 0 1024 1024" version="1.1" xmlns="http://www.w3.org/2000/svg" p-id="6625" width="200" height="200"><path d="M511.36 31.296a480 480 0 1 1 0 960 480 480 0 0 1 0-960z m0 64a416 416 0 1 0 0 832 416 416 0 0 0 0-832z m1.92 585.408c14.656 0 27.2 4.288 36.928 14.272a48.192 48.192 0 0 1 14.656 36.544 51.52 51.52 0 0 1-15.36 37.248 51.52 51.52 0 0 1-36.224 14.336 49.28 49.28 0 0 1-36.224-15.04 50.432 50.432 0 0 1-14.592-36.544c0-15.04 4.864-27.2 14.592-36.48a48.64 48.64 0 0 1 36.224-14.336z m-1.92-424.192c45.12 0 82.56 14.72 110.72 40.064 28.16 24.64 42.24 58.432 42.24 100.672 0 34.56-9.152 63.36-26.752 85.888-6.336 7.744-26.048 26.048-59.136 54.912a116.928 116.928 0 0 0-29.568 36.608c-3.52 6.4-5.76 18.176-6.656 35.392a29.312 29.312 0 0 1-29.312 27.648 35.392 35.392 0 0 1-35.2-31.872c-1.92-19.648 0.768-36.288 8.064-49.92 9.152-19.712 26.496-50.24 70.144-88.96l11.968-13.376c12.672-16.192 19.712-33.088 19.712-51.392 0-24.64-7.04-43.648-20.416-57.728-14.08-14.08-34.496-21.12-59.84-21.12-31.68 0-54.912 9.856-68.992 30.272a85.952 85.952 0 0 0-16.512 45.12 40.064 40.064 0 0 1-43.456 35.072 34.24 34.24 0 0 1-30.4-37.76c1.152-11.008 2.56-19.392 4.032-25.024 7.04-26.368 20.416-49.664 38.592-67.84 29.568-30.272 68.736-46.656 120.832-46.656z" fill="" p-id="6626"></path></svg>
