<svg t="1679306227159" class="icon" viewBox="0 0 1024 1024" version="1.1" xmlns="http://www.w3.org/2000/svg" p-id="6084" width="200" height="200"><path d="M512 64a448 448 0 1 0 448 448 448.512 448.512 0 0 0-448-448zM336.384 836.928c0-3.008-0.384-6.4-0.384-9.216a176.256 176.256 0 0 1 171.072-175.872h9.856a176.256 176.256 0 0 1 171.072 175.872c0 3.136 0 6.4-0.384 9.216a368.448 368.448 0 0 1-351.232 0z m68.544-371.2a107.072 107.072 0 1 1 110.336 106.88h-6.528a107.136 107.136 0 0 1-103.808-107.008z m358.4 316.928A255.488 255.488 0 0 0 636.16 604.608a186.432 186.432 0 1 0-248.32 0 255.488 255.488 0 0 0-127.04 177.92 369.472 369.472 0 1 1 502.4 0z" p-id="6085"></path></svg>