<?xml version="1.0" encoding="utf-8"?>
<!-- Generator: Adobe Illustrator 21.0.0, SVG Export Plug-In . SVG Version: 6.00 Build 0)  -->
<svg version="1.1" id="图层_1" xmlns="http://www.w3.org/2000/svg" xmlns:xlink="http://www.w3.org/1999/xlink" x="0px" y="0px"
	 viewBox="0 0 1011.3 303" style="enable-background:new 0 0 1011.3 303;" xml:space="preserve">
<style type="text/css">
	.st0{clip-path:url(#SVGID_2_);}
	.st1{clip-path:url(#SVGID_4_);}
	.st2{clip-path:url(#SVGID_6_);fill:#FFFFFF;}
	.st3{fill:#FFFFFF;}
	.st4{fill:#D03038;}
</style>
<g>
	<g>
		<defs>
			<path id="SVGID_1_" d="M982.9,237.5c0,0.8-0.3,1.5-0.8,2c-0.5,0.5-1.2,0.8-2,0.8c-0.8,0-1.4-0.3-2-0.8c-0.6-0.5-0.8-1.2-0.8-2
				c0-0.8,0.3-1.4,0.8-2c0.6-0.6,1.2-0.8,2-0.8c0.8,0,1.5,0.3,2,0.8C982.6,236.1,982.9,236.7,982.9,237.5z M954.5,235.2h5.7
				c5.8,0,8.6-3,8.6-9.1c0-6.1-2.9-9.2-8.6-9.2h-5.7V235.2z M949.2,240v-28h11.1c4.4,0,7.9,1.2,10.3,3.7c2.5,2.5,3.7,5.9,3.7,10.3
				c0,4.3-1.2,7.8-3.7,10.3c-2.4,2.5-5.9,3.7-10.4,3.7H949.2z M945.7,212v2.2c0,1.7-0.8,2.5-2.5,2.5h-5.5v20.7
				c0,1.7-0.8,2.5-2.5,2.5h-2.8v-23.2h-8v-2.2c0-1.7,0.8-2.5,2.5-2.5H945.7z M912.1,235.2h12.3c1.7,0,2.5,0.8,2.5,2.5v2.2h-20.1v-28
				h2.8c1.7,0,2.5,0.8,2.5,2.5V235.2z M902.4,237c0.4,1.5,0.2,3.1-0.8,4.6c-0.9,1.6-2.3,2.5-4,2.9l-0.2-0.4
				c-0.3-0.6-0.1-1.1,0.6-1.5c0.9-0.6,1.4-1.4,1.6-2.4c-0.8,0-1.4-0.2-2-0.7c-0.6-0.5-0.9-1.2-0.9-1.9c0-0.8,0.2-1.5,0.7-2
				c0.5-0.6,1.2-0.9,1.9-0.9c0.7,0,1.4,0.2,1.9,0.6C901.8,235.7,902.2,236.3,902.4,237z M894.5,237.5c0,0.8-0.3,1.5-0.8,2
				c-0.5,0.5-1.2,0.8-2,0.8c-0.8,0-1.4-0.3-2-0.8c-0.6-0.5-0.8-1.2-0.8-2c0-0.8,0.3-1.4,0.8-2c0.6-0.6,1.2-0.8,2-0.8
				c0.8,0,1.5,0.3,2,0.8C894.3,236.1,894.5,236.7,894.5,237.5z M878.1,219.2c-1.8-1.8-3.9-2.7-6.5-2.7s-4.7,0.9-6.5,2.7
				c-1.8,1.8-2.7,4.1-2.7,6.8s0.9,5,2.7,6.8c1.8,1.8,3.9,2.7,6.5,2.7s4.7-0.9,6.5-2.7c1.8-1.8,2.7-4.1,2.7-6.8
				S879.9,221,878.1,219.2z M871.6,240.5c-4.3,0-7.8-1.4-10.5-4.2c-2.7-2.8-4-6.2-4-10.4c0-4.1,1.3-7.5,4-10.3
				c2.7-2.8,6.2-4.2,10.5-4.2c4.3,0,7.8,1.4,10.5,4.2c2.7,2.8,4,6.2,4,10.3c0,4.1-1.3,7.5-4,10.3
				C879.4,239.1,875.9,240.5,871.6,240.5z M851.1,220.3c-1,0.4-1.9,0.1-2.8-0.8c-1.7-2-3.9-3-6.6-3c-2.5,0-4.7,0.9-6.5,2.8
				c-1.8,1.9-2.7,4.1-2.7,6.7c0,2.6,0.9,4.9,2.7,6.7c1.8,1.9,3.9,2.8,6.5,2.8c2.7,0,4.9-1,6.6-2.9c0.8-1,1.8-1.2,2.8-0.8l3.3,1.3
				c-1.1,2.2-2.7,4-4.9,5.4c-2.2,1.3-4.8,2-7.7,2c-4,0-7.5-1.4-10.3-4.2c-2.8-2.8-4.2-6.2-4.2-10.3c0-4.1,1.4-7.5,4.2-10.3
				c2.8-2.8,6.2-4.2,10.2-4.2c3,0,5.5,0.7,7.7,2.1c2.2,1.4,3.8,3.2,4.9,5.3L851.1,220.3z M792.2,234.3c0.8-1.2,2-1.5,3.4-0.7
				c2.6,1.4,5,2,7.1,2c1.9,0,3.2-0.3,4.1-0.9c0.9-0.6,1.3-1.4,1.3-2.4c0-0.5-0.1-1-0.4-1.4c-0.3-0.4-0.5-0.7-0.9-1s-0.8-0.5-1.5-0.7
				c-0.7-0.2-1.2-0.4-1.7-0.5c-0.4-0.1-1.1-0.2-2-0.4c-2.8-0.5-4.7-1.1-5.8-1.6c-3.2-1.4-4.8-3.7-4.8-6.9c0-1.6,0.3-2.9,1-4.1
				c0.6-1.1,1.5-2,2.6-2.6c1.1-0.6,2.2-1,3.4-1.3c1.2-0.3,2.4-0.4,3.7-0.4c2.2,0,4.1,0.3,5.7,0.9c1.6,0.6,3.2,1.5,4.8,2.7l-1.5,2.1
				c-0.9,1.2-2,1.5-3.5,0.7c-2-1-4-1.5-6-1.4c-1.2,0-2.3,0.2-3.3,0.7c-0.9,0.4-1.4,1.2-1.4,2.2c0,0.5,0.1,0.9,0.4,1.3
				c0.3,0.4,0.6,0.7,1,1c0.3,0.2,0.9,0.5,1.6,0.7c0.7,0.2,1.3,0.4,1.7,0.5c0.4,0.1,1,0.2,1.9,0.4c0.1,0,0.6,0.1,1.4,0.3
				c0.8,0.2,1.4,0.3,1.7,0.3c0.3,0.1,0.9,0.2,1.7,0.5c0.8,0.2,1.4,0.5,1.8,0.7c0.4,0.2,0.9,0.6,1.5,1c0.6,0.4,1,0.9,1.3,1.4
				c0.3,0.5,0.6,1.2,0.8,1.9c0.2,0.8,0.3,1.6,0.3,2.5c0,2.8-1,4.9-2.9,6.4c-1.9,1.5-4.5,2.2-7.8,2.2c-2.6,0-4.8-0.4-6.6-1.1
				c-1.8-0.7-3.6-1.8-5.4-3.2L792.2,234.3z M765.8,240v-28h20.6v2.4c0,1.6-0.8,2.4-2.5,2.4h-12.7v7h12v2.2c0,1.7-0.8,2.5-2.5,2.5
				h-9.5v6.8h12.7c0.7,0,1.3,0.2,1.8,0.7c0.5,0.5,0.7,1.1,0.7,1.8v2.2H765.8z M756.8,212c1.7,0,2.5,0.8,2.5,2.5V240h-2.8
				c-1.7,0-2.5-0.8-2.5-2.5V212H756.8z M749,224.7c0.1,1.5,0.1,2.7,0,3.6c-0.3,3.6-1.7,6.6-4.2,8.8c-2.5,2.3-5.7,3.4-9.5,3.4
				c-4.2,0-7.7-1.4-10.5-4.2c-2.9-2.8-4.3-6.2-4.3-10.3c0-4,1.4-7.4,4.2-10.3c2.8-2.8,6.2-4.3,10.2-4.3c2.5,0,4.8,0.6,6.9,1.7
				c2.1,1.2,3.8,2.7,5.2,4.7l-2.5,1.6c-1.2,0.7-2.3,0.6-3.5-0.5c-1.8-1.7-3.8-2.5-6-2.5c-2.6,0-4.7,0.9-6.5,2.7
				c-1.8,1.8-2.7,4.1-2.7,6.8c0,2.7,0.9,5,2.8,6.8c1.8,1.8,4.1,2.7,6.9,2.7c2.1,0,3.9-0.6,5.3-1.7c1.5-1.1,2.3-2.6,2.5-4.3h-7.8
				c-1.7,0-2.5-0.8-2.5-2.5v-2.3H749z M709.2,219.2c-1.8-1.8-3.9-2.7-6.5-2.7c-2.6,0-4.7,0.9-6.5,2.7c-1.8,1.8-2.7,4.1-2.7,6.8
				s0.9,5,2.7,6.8c1.8,1.8,3.9,2.7,6.5,2.7c2.6,0,4.7-0.9,6.5-2.7c1.8-1.8,2.7-4.1,2.7-6.8S711,221,709.2,219.2z M702.7,240.5
				c-4.3,0-7.8-1.4-10.5-4.2c-2.7-2.8-4-6.2-4-10.4c0-4.1,1.3-7.5,4-10.3s6.2-4.2,10.5-4.2c4.3,0,7.8,1.4,10.5,4.2
				c2.7,2.8,4,6.2,4,10.3c0,4.1-1.3,7.5-4,10.3C710.5,239.1,707,240.5,702.7,240.5z M672.4,235.2h12.3c1.7,0,2.5,0.8,2.5,2.5v2.2
				h-20.1v-28h2.8c1.7,0,2.5,0.8,2.5,2.5V235.2z M654.3,219.2c-1.8-1.8-3.9-2.7-6.5-2.7c-2.6,0-4.7,0.9-6.5,2.7
				c-1.8,1.8-2.7,4.1-2.7,6.8s0.9,5,2.7,6.8c1.8,1.8,3.9,2.7,6.5,2.7c2.6,0,4.7-0.9,6.5-2.7c1.8-1.8,2.7-4.1,2.7-6.8
				S656.1,221,654.3,219.2z M647.8,240.5c-4.3,0-7.8-1.4-10.5-4.2c-2.7-2.8-4-6.2-4-10.4c0-4.1,1.3-7.5,4-10.3
				c2.7-2.8,6.2-4.2,10.5-4.2c4.3,0,7.8,1.4,10.5,4.2c2.7,2.8,4,6.2,4,10.3c0,4.1-1.3,7.5-4,10.3
				C655.6,239.1,652.1,240.5,647.8,240.5z M628.6,240h-0.6l-18.4-16.6v14.1c0,1.7-0.8,2.5-2.5,2.5h-2.8v-28h0.6l18.4,16.9v-14.4
				c0-1.7,0.8-2.5,2.5-2.5h2.8V240z M592.9,212h2.8c1.7,0,2.5,0.8,2.5,2.5V240h-2.8c-1.7,0-2.5-0.8-2.5-2.5v-8.6H579V240h-2.8
				c-1.7,0-2.5-0.8-2.5-2.5V212h2.8c1.7,0,2.5,0.8,2.5,2.5v9.6h13.8V212z M566.3,220.3c-1,0.4-1.9,0.1-2.8-0.8c-1.7-2-3.9-3-6.6-3
				c-2.5,0-4.7,0.9-6.5,2.8s-2.7,4.1-2.7,6.7c0,2.6,0.9,4.9,2.7,6.7c1.8,1.9,3.9,2.8,6.5,2.8c2.7,0,4.9-1,6.6-2.9
				c0.8-1,1.8-1.2,2.8-0.8l3.3,1.3c-1.1,2.2-2.7,4-4.9,5.4c-2.2,1.3-4.8,2-7.7,2c-4,0-7.5-1.4-10.3-4.2c-2.8-2.8-4.2-6.2-4.2-10.3
				c0-4.1,1.4-7.5,4.2-10.3c2.8-2.8,6.2-4.2,10.2-4.2c3,0,5.5,0.7,7.7,2.1c2.2,1.4,3.8,3.2,4.9,5.3L566.3,220.3z M518.6,240v-28
				h20.6v2.4c0,1.6-0.8,2.4-2.5,2.4H524v7h12v2.2c0,1.7-0.8,2.5-2.5,2.5H524v6.8h12.7c0.7,0,1.3,0.2,1.8,0.7
				c0.5,0.5,0.7,1.1,0.7,1.8v2.2H518.6z M514.4,212v2.2c0,1.7-0.8,2.5-2.5,2.5h-5.5v20.7c0,1.7-0.8,2.5-2.5,2.5h-2.8v-23.2h-8v-2.2
				c0-1.7,0.8-2.5,2.5-2.5H514.4z M479.5,224.7c0.1,1.5,0.1,2.7,0,3.6c-0.3,3.6-1.7,6.6-4.2,8.8c-2.5,2.3-5.7,3.4-9.5,3.4
				c-4.2,0-7.7-1.4-10.5-4.2c-2.9-2.8-4.3-6.2-4.3-10.3c0-4,1.4-7.4,4.2-10.3c2.8-2.8,6.2-4.3,10.2-4.3c2.5,0,4.8,0.6,6.9,1.7
				c2.1,1.2,3.8,2.7,5.2,4.7l-2.5,1.6c-1.2,0.7-2.3,0.6-3.5-0.5c-1.8-1.7-3.8-2.5-6-2.5c-2.6,0-4.7,0.9-6.5,2.7
				c-1.8,1.8-2.7,4.1-2.7,6.8c0,2.7,0.9,5,2.8,6.8s4.1,2.7,6.9,2.7c2.1,0,3.9-0.6,5.3-1.7c1.5-1.1,2.3-2.6,2.5-4.3H466
				c-1.7,0-2.5-0.8-2.5-2.5v-2.3H479.5z M446.3,240h-0.6l-18.4-16.6v14.1c0,1.7-0.8,2.5-2.5,2.5H422v-28h0.6l18.4,16.9v-14.4
				c0-1.7,0.8-2.5,2.5-2.5h2.8V240z M404.2,222.5l-4,8.5h8L404.2,222.5z M396.3,238.2c-0.6,1.2-1.6,1.8-3,1.8h-3.8l14.3-28h0.5
				l14.3,28H415c-1.4,0-2.4-0.6-3-1.8l-1.3-2.6h-13.2L396.3,238.2z M381,212h2.8c1.7,0,2.5,0.8,2.5,2.5V240h-2.8
				c-1.7,0-2.5-0.8-2.5-2.5v-8.6h-13.8V240h-2.8c-1.7,0-2.5-0.8-2.5-2.5V212h2.8c1.7,0,2.5,0.8,2.5,2.5v9.6H381V212z M352.8,212
				c1.7,0,2.5,0.8,2.5,2.5V240h-2.8c-1.7,0-2.5-0.8-2.5-2.5V212H352.8z M340.2,237.3c-2.2,2.1-5.1,3.2-8.7,3.2
				c-3.6,0-6.6-1.1-8.7-3.2c-2.2-2.1-3.3-5-3.3-8.6V212h2.8c1.7,0,2.5,0.8,2.5,2.5v14.2c0,1.3,0.2,2.5,0.7,3.5c0.4,1,1,1.7,1.7,2.2
				c0.7,0.5,1.4,0.8,2.1,1.1c0.7,0.2,1.4,0.3,2.1,0.3c0.7,0,1.4-0.1,2.1-0.3c0.7-0.2,1.4-0.6,2.1-1.1c0.7-0.5,1.3-1.2,1.7-2.2
				c0.4-1,0.7-2.1,0.7-3.5v-14.2c0-1.7,0.8-2.5,2.5-2.5h2.8v16.7C343.5,232.3,342.4,235.1,340.2,237.3z M297.3,226.4h6.1
				c3.7,0,5.6-1.6,5.6-4.8c0-1.5-0.5-2.6-1.4-3.5c-0.9-0.9-2.3-1.3-4.2-1.3h-6.1V226.4z M297.3,231.1v6.4c0,1.7-0.8,2.5-2.5,2.5H292
				v-28h12.7c2.9,0,5.2,0.9,7,2.7c1.8,1.8,2.7,4.1,2.7,6.9c0,2.1-0.5,4-1.6,5.7c-1.1,1.7-2.5,2.7-4.2,3.2l7,9.4H311
				c-1.2,0-2.3-0.5-3.1-1.6l-5.4-7.3H297.3z"/>
		</defs>
		<use xlink:href="#SVGID_1_"  style="overflow:visible;fill-rule:evenodd;clip-rule:evenodd;"/>
		<clipPath id="SVGID_2_">
			<use xlink:href="#SVGID_1_"  style="overflow:visible;"/>
		</clipPath>
		<rect x="287.2" y="206.7" class="st0" width="700.5" height="42.6"/>
	</g>
	<path d="M797.2,182.5h-57.1c-3.1,0-5.6-2.5-5.6-5.6v-12.6c0-3.1,2.5-5.6,5.6-5.6h49.6c3.1,0,5.6-2.1,5.5-4.7
		c-0.1-2.6-2.7-4.7-5.8-4.7h-49.3c-3.1,0-5.6-2.5-5.6-5.6v-9.8c0-3.1,2.5-5.6,5.6-5.6h17.7l-0.1,0h28.7c3.1,0,5.6-2.5,5.6-5.6v-17.9
		l0,0c0.1-2.9-2.1-5.2-5.1-5.2h-13.2c-3.1,0-5.6,2.5-5.6,5.6l0.1,8c0,3.1-2.5,5.6-5.6,5.6l-74.3-0.2c-3.1,0-4.4-2.3-3-5l13.4-24.9
		c1.5-2.7,5.2-5,8.3-5H796c3.1,0,5.6-2.1,5.5-4.7c-0.1-2.6-2.6-4.7-5.8-4.7H651c-3.1,0-5.6,2.1-5.6,4.7c0,2.6,2.5,4.7,5.6,4.7h16.8
		c3.1,0,4.4,2.2,2.9,5l-18.9,34.5c-1.5,2.7-0.2,5,2.9,5h51.3c3.1,0,5.6,2.5,5.6,5.6v9.8c0,3.1-2.5,5.6-5.6,5.6h-49.5
		c-3.1,0-5.6,2.1-5.6,4.7c0,2.6,2.5,4.7,5.6,4.7h49.5c3.1,0,5.6,2.5,5.6,5.6v12.6c0,3.1-2.5,5.6-5.6,5.6h-57.3
		c-3.1,0-5.6,2.1-5.6,4.7c0,2.6,2.5,4.7,5.6,4.7h148.3c3.1,0,5.6-2.1,5.6-4.7C802.8,184.6,800.3,182.5,797.2,182.5z"/>
	<g>
		<path d="M980.1,159.6h-22.4c-3.1,0-5.7-1.8-5.7-4c0-2.2,2.5-4,5.7-4l23.6,0c3.1,0,5.6-2.3,5.6-5.2c-0.1-2.9-2.6-5.2-5.8-5.2
			l-81.8,0c-3.1,0-5.7,2.4-5.7,5.4c0,3,2.5,5.4,5.7,5.4l24.4,0.3c3.1,0,5.7,1.7,5.7,3.6c0,2-2.5,3.6-5.7,3.6h-24.4
			c-3.1,0-5.7,1.9-5.7,4.2c0,2.3,2.5,4.2,5.7,4.2h24.4c3.1,0,5.7,2.5,5.7,5.6v10.7c0,3.1,2.5,5.6,5.7,5.6h11.4
			c3.1,0,5.7-2.5,5.7-5.6v-10.7c0-3.1,2.5-5.6,5.7-5.6h22.4c3.1,0,5.7-1.9,5.6-4.2C985.8,161.5,983.3,159.6,980.1,159.6z"/>
		<path d="M870.4,158.4h12.8c3.1,0,5.6-1.9,5.6-4.2c0-2.3-2.6-4.2-5.7-4.2h-12.7c-3.1,0-5.7-2.5-5.7-5.6V137c0-3.1-2.5-5.6-5.7-5.6
			h-11.4c-3.1,0-5.7,2.5-5.7,5.6v7.3c0,3.1-2.5,5.6-5.7,5.6h-13.2c-3.1,0-5.7,1.9-5.7,4.2c0,2.3,2.5,4.2,5.7,4.2h13.2
			c3.1,0,5.7,2.5,5.7,5.6v11.5c0,3.1-2.5,5.6-5.7,5.6h-13.2c-3.1,0-5.7,1.9-5.7,4.2c0,2.3,2.5,4.2,5.7,4.2h59.9
			c3.1,0,5.6-1.9,5.6-4.2c0-2.3-2.6-4.2-5.7-4.2h-12.6c-3.1,0-5.7-2.5-5.7-5.6V164C864.8,160.9,867.3,158.4,870.4,158.4z"/>
		<path d="M924.3,96h-25c-3.1,0-5.7,1.9-5.7,4.2c0,2.3,2.5,4.2,5.7,4.2h25c3.1,0,5.7,2.1,5.7,4.6c0,2.5-2.5,4.6-5.7,4.6h-24.9
			c-3.1,0-5.7,1.9-5.7,4.2c0,2.3,2.5,4.2,5.7,4.2h11.4c3.1,0,3.6,1.5,1,3.2l-13.8,9.7c-2.5,1.8-2.1,3.3,1,3.3l17.5,0.1
			c3.1,0,7.7-1.4,10.3-3.2l8.4-5.9c2.5-1.8,6.7-1.8,9.2,0l8.4,5.9c2.5,1.8,7.1,3.2,10.3,3.2h17.4c3.1,0,3.6-1.5,1.1-3.3l-13.6-9.8
			c-2.5-1.8-2-3.3,1.1-3.3h11c3.1,0,5.7-1.9,5.6-4.2c0-2.3-2.5-4.2-5.7-4.2h-21.8c-3.1,0-5.7-2.1-5.7-4.6c0-2.5,2.5-4.6,5.7-4.6
			h21.9c3.1,0,5.6-1.9,5.6-4.2c0-2.3-2.6-4.2-5.7-4.2h-21.8c-3.1,0-5.7-2.1-5.7-4.6c0-2.5,2.5-4.6,5.7-4.6h21.9
			c3.1,0,5.6-1.9,5.6-4.2c0-2.3-2.6-4.2-5.7-4.2h-21.8c-3.1,0-5.7-1.3-5.7-3c0-1.6-2.5-3-5.7-3h-11.4c-3.1,0-5.7,1.3-5.7,3
			c0,1.6-2.5,3-5.7,3h-25c-3.1,0-5.7,1.9-5.7,4.2c0,2.3,2.5,4.2,5.7,4.2h25c3.1,0,5.7,2.1,5.7,4.6C930,93.9,927.4,96,924.3,96z"/>
		<path d="M974.1,171.9h-7.2c-3.1,0-5.6,2.5-5.4,5.6l0.3,6.8c0.1,3.1,2.8,5.6,5.9,5.6h7c3.1,0,5.6-2.5,5.5-5.6l-0.2-6.8
			C979.8,174.4,977.2,171.9,974.1,171.9z"/>
		<path d="M914.2,172h-7c-3.1,0-5.6,2.5-5.6,5.6l0,6.8c0,3.1,2.6,5.6,5.7,5.6h7.1c3.1,0,5.6-2.5,5.6-5.6l-0.1-6.8
			C919.9,174.5,917.3,172,914.2,172z"/>
		<path d="M833.2,126.3h1.5h35.7v0l7.5,0c2.9,0,5.2-2.6,5.2-5.7l-0.2-17.7c0,0,0-0.1,0-0.1v0l0,0c-0.1-2.5-2.1-4.4-4.8-4.4h-4
			c-3.1,0-5.6,2.5-5.6,5.6l0,9.1c0,3.1-2.5,5.6-5.6,5.6l-17.6-0.1c-3.1,0-4.8-2.4-3.7-5.2l9.6-25.3c1.1-2.9,4.5-5.2,7.6-5.2h20.1
			c3.1,0,5.6-1.9,5.6-4.2c-0.1-2.3-2.6-4.2-5.7-4.2h-51.8c-3.1,0-5.7,1.9-5.7,4.2c0,2.3,2.5,4.2,5.7,4.2h3.7c2.3,0,3.7,1.2,3.8,3
			c-0.2,0.4-0.5,0.8-0.7,1.3l-18.5,34.2c-1.5,2.7-0.2,4.9,2.9,4.9H833.2z"/>
	</g>
	<g>
		<path d="M499.1,164.3c3.1,0,5.7-2.5,5.7-5.6v-16.2c0-3.1-2.5-5.6-5.7-5.6h-5.8c-3.1,0-5.7,2.5-5.7,5.6l-0.2,16.2
			c0,3.1,2.5,5.6,5.6,5.6H499.1z"/>
		<path d="M542.7,90.2H618c3.1,0,5.7-2.1,5.9-4.6c0.1-2.6-2.3-4.6-5.5-4.6h-23.6c-3.1,0-5.7-1.6-5.7-3.5c0-1.9-2.5-3.5-5.7-3.5
			h-11.2c-3.1,0-5.7,1.6-5.7,3.5c0,1.9-2.5,3.5-5.7,3.5h-18.2c-3.1,0-5.7,2.1-5.7,4.6C537.1,88.1,539.6,90.2,542.7,90.2z"/>
		<path d="M624.1,182.4c-2.9,0-5.3-2.5-5.3-5.6V106c0-3.1-2.5-5.6-5.7-5.6H556l0,0h-10.4c-2.9,0-4.9,2-4.9,4.8v10.4l0,0v32.8
			c0,3.1-0.5,8.1-1.2,11.1l-6,27.3c-0.7,3,1.3,5.5,4.5,5.5h9.8c3.1,0,6.2-2.5,6.8-5.5l6-27.4c0.7-3,1.2-8,1.2-11.1v-33
			c0-3.1,2.5-5.6,5.7-5.6h19.6c3.1,0,6.6,0,7.8,0c1.2,0,2.2,2.5,2.2,5.6v71.1c0,3.1,2.5,5.6,5.7,5.6h20.6c3.1,0,5.7-2.2,5.8-4.8
			C629.3,184.6,627,182.4,624.1,182.4z"/>
		<path d="M532.3,121.4c-1.3,0-2.4-2.5-2.4-5.6V85.3c0-3.1-2.5-5.6-5.7-5.6h-20.4c-3.1,0-5.7-2.2-5.7-4.8c0-2.7-2.5-4.8-5.7-4.8
			h-8.4c-3.1,0-5.7,2-5.7,4.5c0,2.5-2.5,4.5-5.7,4.5h-3.9c-3.1,0-5.7,2.5-5.7,5.6v31.1c0,3.1-1,5.6-2.2,5.6c-1.2,0-2.2,2.1-2.2,4.6
			c0,2.6,1,4.6,2.2,4.6c1.2,0,2.2,2.5,2.2,5.6v13.3c0,3.1-0.4,8.1-1,11.1l-4.6,26.1c-0.5,3,1.6,5.5,4.7,5.5h7.6
			c3.1,0,6.1-2.5,6.6-5.5l4.6-26.1c0.5-3,1-8,1-11.1v-13.3c0-3.1,2.5-5.6,5.7-5.6h17.4c3.1,0,5.7,2.5,5.7,5.6v41.3
			c0,3.1-2.5,5.6-5.7,5.6h-11.8c-3.1,0-4.6,2-3.4,4.5c1.3,2.5,4.8,4.5,7.9,4.5h26.2c3.1,0,5.7-2.5,5.7-5.6v-50.4
			c0-3.1,1-5.6,2.2-5.6c1.2,0,2.3-2.1,2.4-4.6C534.6,123.5,533.6,121.4,532.3,121.4z M510.9,115.8c0,3.1-1.4,5.6-3.1,5.6
			c-1.7,0-3.2-2.5-3.2-5.6l-0.3-13.5c-0.1-3.1-2.7-5.6-5.8-5.6h-5.8c-3.1,0-5.6,2.5-5.6,5.6l0.1,13.5c0,3.1-1.1,5.6-2.4,5.6
			c-1.4,0-2.5-2.5-2.5-5.6V94.4c0-3.1,2.5-5.6,5.7-5.6h17.4c3.1,0,5.7,2.5,5.7,5.6V115.8z"/>
	</g>
	<g>
		<path d="M442.7,140.7l-23.8-14.8c-2.6-1.6-2.2-3,0.9-3h4.9c3.1,0,3.5-1.4,0.9-3.1l-11.9-7.9c-2.6-1.7-2.2-3.1,0.8-3.1
			c3,0,5.5-2,5.5-4.5c0-2.5-2.5-4.5-5.7-4.5H313.8c-3.1,0-5.7,2-5.7,4.5c0,2.5,2.5,4.5,5.7,4.5h0.1c3.1,0,3.5,1.4,0.9,3.1l-12.1,7.9
			c-2.6,1.7-2.2,3.1,0.9,3.1h4.9c3.1,0,3.5,1.3,0.9,3l-23.8,14.8c-2.6,1.6-2.2,3,0.9,3h6.1c3.1,0,5.7,2.5,5.7,5.6v36
			c0,3.1,2.5,5.6,5.7,5.6h120.6c3.1,0,5.7-2.5,5.7-5.6v-36c0-3.1,2.5-5.6,5.7-5.6h6.1C444.9,143.7,445.3,142.3,442.7,140.7z
			 M327.5,131.6l17.9-11c2.6-1.6,2.3-3-0.8-3h-6.6c-3.1,0-3.5-1.4-0.9-3.1l4.3-2.8c2.6-1.7,7.3-3.1,10.4-3.1h24.8
			c3.1,0,7.8,1.4,10.4,3l4.5,2.8c2.6,1.7,2.2,3-0.9,3h-6.6c-3.1,0-3.5,1.3-0.8,3l17.9,11c2.7,1.6,2.3,2.9-0.8,2.9h-71.7
			C325.2,134.5,324.9,133.2,327.5,131.6z M325.7,145.4h75.9c3.1,0,5.7,1.6,5.7,3.6c0,2-2.5,3.6-5.7,3.6h-75.9
			c-3.1,0-5.7-1.6-5.7-3.6C320,147.1,322.5,145.4,325.7,145.4z M402.1,182h-75.9c-3.1,0-5.7-1.6-5.7-3.5c0-1.9,2.5-3.5,5.7-3.5h75.9
			c3.1,0,5.7,1.6,5.7,3.5C407.7,180.4,405.2,182,402.1,182z M402.1,166.5h-75.9c-3.1,0-5.7-1.6-5.7-3.6c0-2,2.5-3.6,5.7-3.6h75.9
			c3.1,0,5.7,1.6,5.7,3.6C407.7,164.9,405.2,166.5,402.1,166.5z"/>
	</g>
	<path d="M443.3,86.2L443.3,86.2l-2.6,0h-8.6h-9.7h-1.6h-4.3h-40.3c-3.1,0-5.6-0.7-5.6-1.6c0-0.9,2.5-1.6,5.6-1.6h31
		c3.1,0,5.6-1.9,5.5-4.3c-0.1-2.4-2.7-4.3-5.7-4.3h-30.7c-3.1,0-5.6-1-5.6-2.1c0-1.2-2.5-2.1-5.6-2.1h-14.9c-3.1,0-5.6,2.5-5.6,5.5
		v5.3c0,3-2.5,5.5-5.6,5.5h-54.3c-3.1,0-5.6,2.5-5.6,5.5v16.8c0,3,2.5,5.5,5.6,5.5h11c3.1,0,5.6-2.5,5.6-5.5v-8.1
		c0-3,2.5-5.5,5.6-5.5h114.2c0.8,0,1.5,0.2,2.2,0.4c2,0.8,3.4,2.8,3.4,5v8.1c0,3,2.5,5.5,5.6,5.5h11c3.1,0,5.6-2.5,5.6-5.5v-0.2
		V91.7C448.7,88.7,446.3,86.3,443.3,86.2z"/>
</g>
<g>
	<g>
		<defs>
			<path id="SVGID_3_" d="M1775.6,369.9c0,0.3-0.1,0.6-0.3,0.8c-0.2,0.2-0.5,0.3-0.8,0.3c-0.3,0-0.6-0.1-0.8-0.3
				c-0.2-0.2-0.3-0.5-0.3-0.8c0-0.3,0.1-0.6,0.3-0.8c0.2-0.2,0.5-0.3,0.8-0.3c0.3,0,0.6,0.1,0.8,0.3
				C1775.5,369.3,1775.6,369.6,1775.6,369.9z M1763.8,368.9h2.4c2.4,0,3.6-1.3,3.6-3.8c0-2.6-1.2-3.8-3.6-3.8h-2.4V368.9z
				 M1761.6,370.9v-11.7h4.6c1.8,0,3.3,0.5,4.3,1.6c1,1,1.5,2.5,1.5,4.3c0,1.8-0.5,3.2-1.5,4.3c-1,1-2.5,1.6-4.3,1.6H1761.6z
				 M1760.1,359.3v0.9c0,0.7-0.4,1.1-1.1,1.1h-2.3v8.6c0,0.7-0.4,1.1-1.1,1.1h-1.2v-9.7h-3.4v-0.9c0-0.7,0.4-1.1,1.1-1.1H1760.1z
				 M1746.1,369h5.1c0.7,0,1.1,0.4,1.1,1.1v0.9h-8.4v-11.7h1.2c0.7,0,1.1,0.4,1.1,1.1V369z M1742.1,369.7c0.2,0.6,0.1,1.3-0.3,1.9
				c-0.4,0.6-0.9,1.1-1.7,1.2l-0.1-0.2c-0.1-0.2,0-0.5,0.3-0.6c0.4-0.2,0.6-0.6,0.7-1c-0.3,0-0.6-0.1-0.8-0.3
				c-0.2-0.2-0.4-0.5-0.4-0.8c0-0.3,0.1-0.6,0.3-0.8c0.2-0.2,0.5-0.4,0.8-0.4c0.3,0,0.6,0.1,0.8,0.3
				C1741.8,369.1,1742,369.4,1742.1,369.7z M1738.8,369.9c0,0.3-0.1,0.6-0.3,0.8c-0.2,0.2-0.5,0.3-0.8,0.3c-0.3,0-0.6-0.1-0.8-0.3
				c-0.2-0.2-0.3-0.5-0.3-0.8c0-0.3,0.1-0.6,0.3-0.8c0.2-0.2,0.5-0.3,0.8-0.3c0.3,0,0.6,0.1,0.8,0.3
				C1738.7,369.3,1738.8,369.6,1738.8,369.9z M1731.9,362.3c-0.7-0.8-1.6-1.1-2.7-1.1s-2,0.4-2.7,1.1c-0.7,0.8-1.1,1.7-1.1,2.8
				s0.4,2.1,1.1,2.8c0.7,0.8,1.6,1.1,2.7,1.1s2-0.4,2.7-1.1c0.7-0.8,1.1-1.7,1.1-2.8S1732.7,363,1731.9,362.3z M1729.2,371.2
				c-1.8,0-3.2-0.6-4.4-1.7c-1.1-1.2-1.7-2.6-1.7-4.3c0-1.7,0.6-3.1,1.7-4.3c1.1-1.2,2.6-1.8,4.4-1.8c1.8,0,3.3,0.6,4.4,1.7
				c1.1,1.2,1.7,2.6,1.7,4.3c0,1.7-0.6,3.1-1.7,4.3C1732.5,370.6,1731,371.2,1729.2,371.2z M1720.7,362.7c-0.4,0.2-0.8,0.1-1.2-0.3
				c-0.7-0.8-1.6-1.2-2.7-1.2c-1.1,0-2,0.4-2.7,1.2c-0.7,0.8-1.1,1.7-1.1,2.8c0,1.1,0.4,2,1.1,2.8c0.7,0.8,1.6,1.2,2.7,1.2
				c1.1,0,2-0.4,2.7-1.2c0.3-0.4,0.7-0.5,1.2-0.3l1.4,0.6c-0.4,0.9-1.1,1.7-2.1,2.2c-0.9,0.6-2,0.8-3.2,0.8c-1.7,0-3.1-0.6-4.3-1.7
				c-1.2-1.2-1.8-2.6-1.8-4.3c0-1.7,0.6-3.1,1.8-4.3c1.2-1.2,2.6-1.8,4.3-1.8c1.2,0,2.3,0.3,3.2,0.9c0.9,0.6,1.6,1.3,2,2.2
				L1720.7,362.7z M1696.1,368.5c0.4-0.5,0.8-0.6,1.4-0.3c1.1,0.6,2.1,0.8,3,0.8c0.8,0,1.3-0.1,1.7-0.4c0.4-0.3,0.5-0.6,0.5-1
				c0-0.2-0.1-0.4-0.2-0.6c-0.1-0.2-0.2-0.3-0.4-0.4c-0.1-0.1-0.3-0.2-0.6-0.3c-0.3-0.1-0.5-0.2-0.7-0.2s-0.5-0.1-0.8-0.2
				c-1.1-0.2-2-0.4-2.4-0.7c-1.3-0.6-2-1.6-2-2.9c0-0.6,0.1-1.2,0.4-1.7c0.3-0.5,0.6-0.8,1.1-1.1c0.5-0.2,0.9-0.4,1.4-0.5
				s1-0.2,1.5-0.2c0.9,0,1.7,0.1,2.4,0.4c0.7,0.3,1.3,0.6,2,1.1l-0.6,0.9c-0.4,0.5-0.8,0.6-1.4,0.3c-0.8-0.4-1.7-0.6-2.5-0.6
				c-0.5,0-1,0.1-1.4,0.3c-0.4,0.2-0.6,0.5-0.6,0.9c0,0.2,0.1,0.4,0.2,0.6c0.1,0.2,0.3,0.3,0.4,0.4c0.1,0.1,0.4,0.2,0.7,0.3
				s0.5,0.2,0.7,0.2c0.2,0,0.4,0.1,0.8,0.2c0.1,0,0.2,0,0.6,0.1c0.3,0.1,0.6,0.1,0.7,0.1s0.4,0.1,0.7,0.2c0.3,0.1,0.6,0.2,0.7,0.3
				c0.2,0.1,0.4,0.2,0.6,0.4s0.4,0.4,0.6,0.6s0.2,0.5,0.3,0.8c0.1,0.3,0.1,0.7,0.1,1c0,1.2-0.4,2.1-1.2,2.7
				c-0.8,0.6-1.9,0.9-3.2,0.9c-1.1,0-2-0.2-2.7-0.5c-0.7-0.3-1.5-0.7-2.3-1.3L1696.1,368.5z M1685.1,370.9v-11.7h8.6v1
				c0,0.7-0.4,1-1.1,1h-5.3v2.9h5v0.9c0,0.7-0.4,1.1-1.1,1.1h-3.9v2.8h5.3c0.3,0,0.6,0.1,0.8,0.3c0.2,0.2,0.3,0.5,0.3,0.8v0.9
				H1685.1z M1681.4,359.3c0.7,0,1.1,0.4,1.1,1.1v10.6h-1.2c-0.7,0-1.1-0.4-1.1-1.1v-10.6H1681.4z M1678.1,364.6c0,0.6,0,1.1,0,1.5
				c-0.1,1.5-0.7,2.7-1.8,3.7c-1,0.9-2.4,1.4-4,1.4c-1.7,0-3.2-0.6-4.4-1.8c-1.2-1.2-1.8-2.6-1.8-4.3c0-1.7,0.6-3.1,1.8-4.3
				c1.2-1.2,2.6-1.8,4.3-1.8c1,0,2,0.2,2.9,0.7c0.9,0.5,1.6,1.1,2.1,2l-1.1,0.7c-0.5,0.3-1,0.2-1.5-0.2c-0.8-0.7-1.6-1-2.5-1
				c-1.1,0-2,0.4-2.7,1.1s-1.1,1.7-1.1,2.8c0,1.1,0.4,2.1,1.1,2.8c0.8,0.8,1.7,1.1,2.9,1.1c0.9,0,1.6-0.2,2.2-0.7
				c0.6-0.5,1-1.1,1.1-1.8h-3.3c-0.7,0-1.1-0.4-1.1-1.1v-1H1678.1z M1661.5,362.3c-0.7-0.8-1.6-1.1-2.7-1.1c-1.1,0-2,0.4-2.7,1.1
				c-0.7,0.8-1.1,1.7-1.1,2.8s0.4,2.1,1.1,2.8c0.7,0.8,1.6,1.1,2.7,1.1c1.1,0,2-0.4,2.7-1.1c0.7-0.8,1.1-1.7,1.1-2.8
				S1662.3,363,1661.5,362.3z M1658.8,371.2c-1.8,0-3.2-0.6-4.4-1.7c-1.1-1.2-1.7-2.6-1.7-4.3c0-1.7,0.6-3.1,1.7-4.3
				c1.1-1.2,2.6-1.8,4.4-1.8c1.8,0,3.3,0.6,4.4,1.7c1.1,1.2,1.7,2.6,1.7,4.3c0,1.7-0.6,3.1-1.7,4.3
				C1662.1,370.6,1660.6,371.2,1658.8,371.2z M1646.2,369h5.1c0.7,0,1.1,0.4,1.1,1.1v0.9h-8.4v-11.7h1.2c0.7,0,1.1,0.4,1.1,1.1V369z
				 M1638.7,362.3c-0.7-0.8-1.6-1.1-2.7-1.1s-2,0.4-2.7,1.1c-0.7,0.8-1.1,1.7-1.1,2.8s0.4,2.1,1.1,2.8c0.7,0.8,1.6,1.1,2.7,1.1
				s2-0.4,2.7-1.1c0.7-0.8,1.1-1.7,1.1-2.8S1639.4,363,1638.7,362.3z M1635.9,371.2c-1.8,0-3.2-0.6-4.4-1.7
				c-1.1-1.2-1.7-2.6-1.7-4.3c0-1.7,0.6-3.1,1.7-4.3c1.1-1.2,2.6-1.8,4.4-1.8c1.8,0,3.3,0.6,4.4,1.7c1.1,1.2,1.7,2.6,1.7,4.3
				c0,1.7-0.6,3.1-1.7,4.3C1639.2,370.6,1637.7,371.2,1635.9,371.2z M1627.9,370.9h-0.2l-7.7-6.9v5.9c0,0.7-0.4,1.1-1.1,1.1h-1.2
				v-11.7h0.2l7.7,7.1v-6c0-0.7,0.4-1.1,1.1-1.1h1.2V370.9z M1613,359.3h1.2c0.7,0,1.1,0.4,1.1,1.1v10.6h-1.2
				c-0.7,0-1.1-0.4-1.1-1.1v-3.6h-5.8v4.7h-1.2c-0.7,0-1.1-0.4-1.1-1.1v-10.6h1.2c0.7,0,1.1,0.4,1.1,1.1v4h5.8V359.3z M1602,362.7
				c-0.4,0.2-0.8,0.1-1.2-0.3c-0.7-0.8-1.6-1.2-2.7-1.2c-1.1,0-2,0.4-2.7,1.2c-0.7,0.8-1.1,1.7-1.1,2.8c0,1.1,0.4,2,1.1,2.8
				c0.7,0.8,1.6,1.2,2.7,1.2c1.1,0,2-0.4,2.7-1.2c0.3-0.4,0.7-0.5,1.2-0.3l1.4,0.6c-0.4,0.9-1.1,1.7-2.1,2.2c-0.9,0.6-2,0.8-3.2,0.8
				c-1.7,0-3.1-0.6-4.3-1.7c-1.2-1.2-1.8-2.6-1.8-4.3c0-1.7,0.6-3.1,1.8-4.3c1.2-1.2,2.6-1.8,4.3-1.8c1.2,0,2.3,0.3,3.2,0.9
				c0.9,0.6,1.6,1.3,2,2.2L1602,362.7z M1582.1,370.9v-11.7h8.6v1c0,0.7-0.4,1-1.1,1h-5.3v2.9h5v0.9c0,0.7-0.4,1.1-1.1,1.1h-3.9v2.8
				h5.3c0.3,0,0.6,0.1,0.8,0.3c0.2,0.2,0.3,0.5,0.3,0.8v0.9H1582.1z M1580.3,359.3v0.9c0,0.7-0.4,1.1-1.1,1.1h-2.3v8.6
				c0,0.7-0.4,1.1-1.1,1.1h-1.2v-9.7h-3.4v-0.9c0-0.7,0.4-1.1,1.1-1.1H1580.3z M1565.8,364.6c0,0.6,0,1.1,0,1.5
				c-0.1,1.5-0.7,2.7-1.8,3.7c-1,0.9-2.4,1.4-4,1.4c-1.7,0-3.2-0.6-4.4-1.8c-1.2-1.2-1.8-2.6-1.8-4.3c0-1.7,0.6-3.1,1.8-4.3
				c1.2-1.2,2.6-1.8,4.3-1.8c1,0,2,0.2,2.9,0.7c0.9,0.5,1.6,1.1,2.1,2l-1.1,0.7c-0.5,0.3-1,0.2-1.5-0.2c-0.8-0.7-1.6-1-2.5-1
				c-1.1,0-2,0.4-2.7,1.1c-0.7,0.8-1.1,1.7-1.1,2.8c0,1.1,0.4,2.1,1.1,2.8c0.8,0.8,1.7,1.1,2.9,1.1c0.9,0,1.6-0.2,2.2-0.7
				c0.6-0.5,1-1.1,1.1-1.8h-3.3c-0.7,0-1.1-0.4-1.1-1.1v-1H1565.8z M1552,370.9h-0.2l-7.7-6.9v5.9c0,0.7-0.4,1.1-1.1,1.1h-1.2v-11.7
				h0.2l7.7,7.1v-6c0-0.7,0.4-1.1,1.1-1.1h1.2V370.9z M1534.4,363.6l-1.7,3.5h3.3L1534.4,363.6z M1531.1,370.2
				c-0.2,0.5-0.7,0.8-1.2,0.8h-1.6l6-11.7h0.2l6,11.7h-1.6c-0.6,0-1-0.3-1.2-0.8l-0.5-1.1h-5.5L1531.1,370.2z M1524.7,359.3h1.2
				c0.7,0,1.1,0.4,1.1,1.1v10.6h-1.2c-0.7,0-1.1-0.4-1.1-1.1v-3.6h-5.8v4.7h-1.2c-0.7,0-1.1-0.4-1.1-1.1v-10.6h1.2
				c0.7,0,1.1,0.4,1.1,1.1v4h5.8V359.3z M1513,359.3c0.7,0,1.1,0.4,1.1,1.1v10.6h-1.2c-0.7,0-1.1-0.4-1.1-1.1v-10.6H1513z
				 M1507.7,369.8c-0.9,0.9-2.1,1.3-3.6,1.3s-2.7-0.4-3.6-1.3c-0.9-0.9-1.4-2.1-1.4-3.6v-7h1.2c0.7,0,1.1,0.4,1.1,1.1v5.9
				c0,0.6,0.1,1,0.3,1.4c0.2,0.4,0.4,0.7,0.7,0.9c0.3,0.2,0.6,0.4,0.9,0.4c0.3,0.1,0.6,0.1,0.9,0.1s0.6,0,0.9-0.1
				c0.3-0.1,0.6-0.2,0.9-0.4c0.3-0.2,0.5-0.5,0.7-0.9c0.2-0.4,0.3-0.9,0.3-1.4v-5.9c0-0.7,0.4-1.1,1.1-1.1h1.2v7
				C1509.1,367.7,1508.6,368.9,1507.7,369.8z M1489.8,365.3h2.5c1.6,0,2.3-0.7,2.3-2c0-0.6-0.2-1.1-0.6-1.5c-0.4-0.4-1-0.6-1.8-0.6
				h-2.5V365.3z M1489.8,367.2v2.7c0,0.7-0.4,1.1-1.1,1.1h-1.2v-11.7h5.3c1.2,0,2.2,0.4,2.9,1.1c0.7,0.7,1.1,1.7,1.1,2.9
				c0,0.9-0.2,1.7-0.7,2.4c-0.4,0.7-1,1.1-1.8,1.3l2.9,3.9h-1.9c-0.5,0-0.9-0.2-1.3-0.7l-2.2-3.1H1489.8z"/>
		</defs>
		<use xlink:href="#SVGID_3_"  style="overflow:visible;fill-rule:evenodd;clip-rule:evenodd;"/>
		<clipPath id="SVGID_4_">
			<use xlink:href="#SVGID_3_"  style="overflow:visible;"/>
		</clipPath>
		<rect x="1485.6" y="357" class="st1" width="292" height="17.8"/>
	</g>
	<path d="M1698.2,347h-23.8c-1.3,0-2.4-1.1-2.4-2.4v-5.3c0-1.3,1.1-2.4,2.4-2.4h20.7c1.3,0,2.3-0.9,2.3-2c0-1.1-1.1-2-2.4-2h-20.5
		c-1.3,0-2.4-1.1-2.4-2.4v-4.1c0-1.3,1.1-2.4,2.4-2.4h7.4l0,0h12c1.3,0,2.4-1.1,2.3-2.4v-7.4l0,0c0-1.2-0.9-2.2-2.1-2.2h-5.5
		c-1.3,0-2.3,1.1-2.3,2.4l0,3.3c0,1.3-1,2.4-2.3,2.3l-31-0.1c-1.3,0-1.9-0.9-1.2-2.1l5.6-10.4c0.6-1.1,2.2-2.1,3.5-2.1h37.1
		c1.3,0,2.3-0.9,2.3-2c0-1.1-1.1-2-2.4-2h-60.3c-1.3,0-2.4,0.9-2.4,2c0,1.1,1.1,2,2.4,2h7c1.3,0,1.8,0.9,1.2,2.1l-7.9,14.4
		c-0.6,1.1-0.1,2.1,1.2,2.1h21.4c1.3,0,2.4,1.1,2.4,2.4v4.1c0,1.3-1.1,2.4-2.4,2.4h-20.6c-1.3,0-2.4,0.9-2.4,2c0,1.1,1.1,2,2.4,2
		h20.6c1.3,0,2.4,1.1,2.4,2.4v5.3c0,1.3-1.1,2.4-2.4,2.4h-23.9c-1.3,0-2.4,0.9-2.4,2c0,1.1,1.1,2,2.4,2h61.8c1.3,0,2.4-0.9,2.4-2
		C1700.5,347.8,1699.5,347,1698.2,347z"/>
	<g>
		<path d="M1774.5,337.4h-9.3c-1.3,0-2.4-0.7-2.4-1.6c0-0.9,1.1-1.6,2.4-1.6l9.8,0c1.3,0,2.3-1,2.3-2.2c0-1.2-1.1-2.2-2.4-2.2
			l-34.1,0c-1.3,0-2.4,1-2.4,2.2c0,1.2,1.1,2.2,2.4,2.3l10.2,0.1c1.3,0,2.4,0.7,2.4,1.5c0,0.8-1.1,1.5-2.4,1.5h-10.2
			c-1.3,0-2.4,0.8-2.4,1.8s1.1,1.8,2.4,1.8h10.2c1.3,0,2.4,1,2.4,2.3v4.5c0,1.3,1.1,2.3,2.4,2.3h4.8c1.3,0,2.4-1,2.4-2.3v-4.5
			c0-1.3,1.1-2.3,2.4-2.3h9.3c1.3,0,2.4-0.8,2.4-1.8C1776.8,338.2,1775.8,337.4,1774.5,337.4z"/>
		<path d="M1728.7,336.9h5.3c1.3,0,2.3-0.8,2.3-1.8c0-1-1.1-1.8-2.4-1.8h-5.3c-1.3,0-2.4-1-2.4-2.3V328c0-1.3-1.1-2.3-2.4-2.3h-4.8
			c-1.3,0-2.4,1-2.4,2.3v3.1c0,1.3-1.1,2.3-2.4,2.3h-5.5c-1.3,0-2.4,0.8-2.4,1.8c0,1,1.1,1.8,2.4,1.8h5.5c1.3,0,2.4,1,2.4,2.3v4.8
			c0,1.3-1.1,2.3-2.4,2.3h-5.5c-1.3,0-2.4,0.8-2.4,1.8c0,1,1.1,1.8,2.4,1.8h25c1.3,0,2.4-0.8,2.4-1.8c0-1-1.1-1.8-2.4-1.8h-5.3
			c-1.3,0-2.4-1-2.4-2.3v-4.8C1726.4,338,1727.4,336.9,1728.7,336.9z"/>
		<path d="M1751.2,310.9h-10.4c-1.3,0-2.4,0.8-2.4,1.8c0,1,1.1,1.8,2.4,1.8h10.4c1.3,0,2.4,0.9,2.4,1.9c0,1.1-1.1,1.9-2.4,1.9h-10.4
			c-1.3,0-2.4,0.8-2.4,1.8c0,1,1.1,1.8,2.4,1.8h4.8c1.3,0,1.5,0.6,0.4,1.3l-5.7,4c-1.1,0.7-0.9,1.4,0.4,1.4l7.3,0
			c1.3,0,3.2-0.6,4.3-1.3l3.5-2.5c1.1-0.7,2.8-0.7,3.8,0l3.5,2.5c1.1,0.7,3,1.4,4.3,1.4h7.3c1.3,0,1.5-0.6,0.5-1.4l-5.7-4.1
			c-1-0.8-0.8-1.4,0.5-1.4h4.6c1.3,0,2.4-0.8,2.4-1.8c0-1-1.1-1.8-2.4-1.8h-9.1c-1.3,0-2.4-0.9-2.4-1.9c0-1.1,1.1-1.9,2.4-1.9h9.1
			c1.3,0,2.3-0.8,2.3-1.8c0-1-1.1-1.8-2.4-1.8h-9.1c-1.3,0-2.4-0.9-2.4-1.9c0-1.1,1.1-1.9,2.4-1.9h9.1c1.3,0,2.3-0.8,2.3-1.8
			c0-1-1.1-1.8-2.4-1.8h-9.1c-1.3,0-2.4-0.6-2.4-1.2c0-0.7-1.1-1.2-2.4-1.2h-4.8c-1.3,0-2.4,0.6-2.4,1.2c0,0.7-1.1,1.2-2.4,1.2
			h-10.4c-1.3,0-2.4,0.8-2.4,1.8c0,1,1.1,1.8,2.4,1.8h10.4c1.3,0,2.4,0.9,2.4,1.9C1753.6,310,1752.5,310.9,1751.2,310.9z"/>
		<path d="M1771.9,342.5h-3c-1.3,0-2.3,1-2.3,2.3l0.1,2.9c0,1.3,1.1,2.3,2.4,2.3h2.9c1.3,0,2.3-1,2.3-2.3l-0.1-2.9
			C1774.3,343.6,1773.2,342.5,1771.9,342.5z"/>
		<path d="M1747,342.6h-2.9c-1.3,0-2.3,1-2.3,2.3l0,2.8c0,1.3,1.1,2.3,2.4,2.3h2.9c1.3,0,2.3-1,2.3-2.3l0-2.8
			C1749.4,343.6,1748.3,342.6,1747,342.6z"/>
		<path d="M1713.2,323.5h0.6h14.9v0l3.1,0c1.2,0,2.2-1.1,2.2-2.4l-0.1-7.4c0,0,0,0,0,0v0l0,0c-0.1-1-0.9-1.8-2-1.8h-1.7
			c-1.3,0-2.4,1-2.3,2.3l0,3.8c0,1.3-1,2.3-2.3,2.3l-7.3,0c-1.3,0-2-1-1.5-2.2l4-10.5c0.5-1.2,1.9-2.2,3.2-2.2h8.4
			c1.3,0,2.3-0.8,2.3-1.8c0-1-1.1-1.8-2.4-1.8h-21.6c-1.3,0-2.4,0.8-2.4,1.8c0,1,1.1,1.8,2.4,1.8h1.5c1,0,1.5,0.5,1.6,1.3
			c-0.1,0.2-0.2,0.3-0.3,0.5l-7.7,14.3c-0.6,1.1-0.1,2,1.2,2H1713.2z"/>
	</g>
	<g>
		<path d="M1574,339.4c1.3,0,2.4-1,2.4-2.3v-6.8c0-1.3-1.1-2.3-2.4-2.3h-2.4c-1.3,0-2.4,1.1-2.4,2.3l-0.1,6.8c0,1.3,1,2.3,2.3,2.3
			H1574z"/>
		<path d="M1592.1,308.5h31.4c1.3,0,2.4-0.9,2.4-1.9c0-1.1-1-1.9-2.3-1.9h-9.8c-1.3,0-2.4-0.6-2.4-1.4c0-0.8-1.1-1.4-2.4-1.4h-4.7
			c-1.3,0-2.4,0.6-2.4,1.4c0,0.8-1.1,1.4-2.4,1.4h-7.6c-1.3,0-2.4,0.9-2.4,1.9C1589.8,307.6,1590.8,308.5,1592.1,308.5z"/>
		<path d="M1626.1,346.9c-1.2,0-2.2-1-2.2-2.3v-29.5c0-1.3-1.1-2.3-2.4-2.3h-23.9l0,0h-4.3c-1.2,0-2.1,0.8-2.1,2v4.3l0,0v13.7
			c0,1.3-0.2,3.4-0.5,4.6l-2.5,11.4c-0.3,1.3,0.6,2.3,1.9,2.3h4.1c1.3,0,2.6-1,2.9-2.3l2.5-11.4c0.3-1.3,0.5-3.3,0.5-4.6V319
			c0-1.3,1.1-2.3,2.4-2.3h8.2c1.3,0,2.8,0,3.3,0c0.5,0,0.9,1.1,0.9,2.3v29.6c0,1.3,1.1,2.3,2.4,2.3h8.6c1.3,0,2.4-0.9,2.4-2
			C1628.2,347.8,1627.3,346.9,1626.1,346.9z"/>
		<path d="M1587.8,321.5c-0.5,0-1-1.1-1-2.3v-12.7c0-1.3-1.1-2.3-2.4-2.3h-8.5c-1.3,0-2.4-0.9-2.4-2c0-1.1-1.1-2-2.4-2h-3.5
			c-1.3,0-2.4,0.9-2.4,1.9c0,1-1.1,1.9-2.4,1.9h-1.6c-1.3,0-2.4,1.1-2.4,2.3v12.9c0,1.3-0.4,2.3-0.9,2.3c-0.5,0-0.9,0.9-0.9,1.9
			c0,1.1,0.4,1.9,0.9,1.9c0.5,0,0.9,1.1,0.9,2.3v5.5c0,1.3-0.2,3.4-0.4,4.6l-1.9,10.9c-0.2,1.3,0.7,2.3,1.9,2.3h3.2
			c1.3,0,2.5-1,2.8-2.3l1.9-10.9c0.2-1.3,0.4-3.3,0.4-4.6v-5.5c0-1.3,1.1-2.3,2.4-2.3h7.3c1.3,0,2.4,1.1,2.4,2.3v17.2
			c0,1.3-1.1,2.3-2.4,2.3h-4.9c-1.3,0-1.9,0.9-1.4,1.9c0.5,1,2,1.9,3.3,1.9h10.9c1.3,0,2.4-1,2.4-2.3v-21c0-1.3,0.4-2.3,0.9-2.3
			c0.5,0,1-0.9,1-1.9C1588.7,322.4,1588.3,321.5,1587.8,321.5z M1578.9,319.2c0,1.3-0.6,2.3-1.3,2.3c-0.7,0-1.3-1-1.3-2.3l-0.1-5.6
			c0-1.3-1.1-2.3-2.4-2.3h-2.4c-1.3,0-2.3,1.1-2.3,2.3l0,5.6c0,1.3-0.4,2.3-1,2.3c-0.6,0-1-1.1-1-2.3v-8.9c0-1.3,1.1-2.3,2.4-2.3
			h7.3c1.3,0,2.4,1.1,2.4,2.3V319.2z"/>
	</g>
	<g>
		<path d="M1550.4,329.5l-9.9-6.2c-1.1-0.7-0.9-1.2,0.4-1.2h2c1.3,0,1.5-0.6,0.4-1.3l-5-3.3c-1.1-0.7-0.9-1.3,0.3-1.3
			c1.3,0,2.3-0.8,2.3-1.9c0-1-1.1-1.9-2.4-1.9h-41.9c-1.3,0-2.4,0.8-2.4,1.9c0,1,1.1,1.9,2.4,1.9h0c1.3,0,1.5,0.6,0.4,1.3l-5,3.3
			c-1.1,0.7-0.9,1.3,0.4,1.3h2c1.3,0,1.5,0.6,0.4,1.2l-9.9,6.2c-1.1,0.7-0.9,1.2,0.4,1.2h2.5c1.3,0,2.4,1.1,2.4,2.3v15
			c0,1.3,1.1,2.3,2.4,2.3h50.3c1.3,0,2.4-1.1,2.4-2.3v-15c0-1.3,1.1-2.3,2.4-2.3h2.5C1551.4,330.8,1551.5,330.2,1550.4,329.5z
			 M1502.4,325.7l7.5-4.6c1.1-0.7,0.9-1.2-0.4-1.2h-2.8c-1.3,0-1.5-0.6-0.4-1.3l1.8-1.2c1.1-0.7,3-1.3,4.3-1.3h10.3
			c1.3,0,3.3,0.6,4.3,1.3l1.9,1.2c1.1,0.7,0.9,1.3-0.4,1.3h-2.8c-1.3,0-1.5,0.6-0.4,1.2l7.5,4.6c1.1,0.7,0.9,1.2-0.4,1.2h-29.9
			C1501.5,327,1501.3,326.4,1502.4,325.7z M1501.7,331.5h31.6c1.3,0,2.4,0.7,2.4,1.5c0,0.8-1.1,1.5-2.4,1.5h-31.6
			c-1.3,0-2.4-0.7-2.4-1.5C1499.3,332.2,1500.4,331.5,1501.7,331.5z M1533.5,346.7h-31.6c-1.3,0-2.4-0.7-2.4-1.4
			c0-0.8,1.1-1.4,2.4-1.4h31.6c1.3,0,2.4,0.7,2.4,1.4C1535.9,346.1,1534.8,346.7,1533.5,346.7z M1533.5,340.3h-31.6
			c-1.3,0-2.4-0.7-2.4-1.5c0-0.8,1.1-1.5,2.4-1.5h31.6c1.3,0,2.4,0.7,2.4,1.5C1535.9,339.6,1534.8,340.3,1533.5,340.3z"/>
	</g>
	<path d="M1550.7,306.8L1550.7,306.8l-1.1,0h-3.6h-4h-0.7h-1.8h-16.8c-1.3,0-2.3-0.3-2.3-0.7c0-0.4,1.1-0.7,2.3-0.7h12.9
		c1.3,0,2.3-0.8,2.3-1.8c0-1-1.1-1.8-2.4-1.8h-12.8c-1.3,0-2.3-0.4-2.3-0.9c0-0.5-1.1-0.9-2.3-0.9h-6.2c-1.3,0-2.3,1-2.3,2.3v2.2
		c0,1.3-1.1,2.3-2.3,2.3h-22.7c-1.3,0-2.3,1-2.3,2.3v7c0,1.3,1.1,2.3,2.3,2.3h4.6c1.3,0,2.3-1,2.3-2.3v-3.4c0-1.3,1.1-2.3,2.3-2.3
		h47.6c0.3,0,0.6,0.1,0.9,0.2c0.8,0.3,1.4,1.2,1.4,2.1v3.4c0,1.3,1.1,2.3,2.3,2.3h4.6c1.3,0,2.3-1,2.3-2.3V316v-6.9
		C1553,307.9,1551.9,306.9,1550.7,306.8z"/>
</g>
<g>
	<g>
		<defs>
			<path id="SVGID_5_" d="M1775.6,508.7c0,0.3-0.1,0.6-0.3,0.8c-0.2,0.2-0.5,0.3-0.8,0.3c-0.3,0-0.6-0.1-0.8-0.3
				c-0.2-0.2-0.3-0.5-0.3-0.8c0-0.3,0.1-0.6,0.3-0.8c0.2-0.2,0.5-0.3,0.8-0.3c0.3,0,0.6,0.1,0.8,0.3
				C1775.5,508.1,1775.6,508.3,1775.6,508.7z M1763.8,507.7h2.4c2.4,0,3.6-1.3,3.6-3.8c0-2.6-1.2-3.8-3.6-3.8h-2.4V507.7z
				 M1761.6,509.7V498h4.6c1.8,0,3.3,0.5,4.3,1.6s1.5,2.5,1.5,4.3c0,1.8-0.5,3.2-1.5,4.3c-1,1-2.5,1.6-4.3,1.6H1761.6z M1760.1,498
				v0.9c0,0.7-0.4,1.1-1.1,1.1h-2.3v8.6c0,0.7-0.4,1.1-1.1,1.1h-1.2V500h-3.4v-0.9c0-0.7,0.4-1.1,1.1-1.1H1760.1z M1746.1,507.7h5.1
				c0.7,0,1.1,0.4,1.1,1.1v0.9h-8.4V498h1.2c0.7,0,1.1,0.4,1.1,1.1V507.7z M1742.1,508.5c0.2,0.6,0.1,1.3-0.3,1.9
				c-0.4,0.6-0.9,1.1-1.7,1.2l-0.1-0.2c-0.1-0.2,0-0.5,0.3-0.6c0.4-0.2,0.6-0.6,0.7-1c-0.3,0-0.6-0.1-0.8-0.3
				c-0.2-0.2-0.4-0.5-0.4-0.8c0-0.3,0.1-0.6,0.3-0.8c0.2-0.2,0.5-0.4,0.8-0.4c0.3,0,0.6,0.1,0.8,0.3
				C1741.8,507.9,1742,508.2,1742.1,508.5z M1738.8,508.7c0,0.3-0.1,0.6-0.3,0.8c-0.2,0.2-0.5,0.3-0.8,0.3c-0.3,0-0.6-0.1-0.8-0.3
				c-0.2-0.2-0.3-0.5-0.3-0.8c0-0.3,0.1-0.6,0.3-0.8c0.2-0.2,0.5-0.3,0.8-0.3c0.3,0,0.6,0.1,0.8,0.3
				C1738.7,508.1,1738.8,508.3,1738.8,508.7z M1731.9,501c-0.7-0.8-1.6-1.1-2.7-1.1s-2,0.4-2.7,1.1c-0.7,0.8-1.1,1.7-1.1,2.8
				s0.4,2.1,1.1,2.8c0.7,0.8,1.6,1.1,2.7,1.1s2-0.4,2.7-1.1c0.7-0.8,1.1-1.7,1.1-2.8S1732.7,501.8,1731.9,501z M1729.2,509.9
				c-1.8,0-3.2-0.6-4.4-1.7c-1.1-1.2-1.7-2.6-1.7-4.3c0-1.7,0.6-3.1,1.7-4.3c1.1-1.2,2.6-1.8,4.4-1.8c1.8,0,3.3,0.6,4.4,1.7
				c1.1,1.2,1.7,2.6,1.7,4.3c0,1.7-0.6,3.1-1.7,4.3C1732.5,509.3,1731,509.9,1729.2,509.9z M1720.7,501.5c-0.4,0.2-0.8,0.1-1.2-0.3
				c-0.7-0.8-1.6-1.2-2.7-1.2c-1.1,0-2,0.4-2.7,1.2c-0.7,0.8-1.1,1.7-1.1,2.8c0,1.1,0.4,2,1.1,2.8c0.7,0.8,1.6,1.2,2.7,1.2
				c1.1,0,2-0.4,2.7-1.2c0.3-0.4,0.7-0.5,1.2-0.3l1.4,0.6c-0.4,0.9-1.1,1.7-2.1,2.2c-0.9,0.6-2,0.8-3.2,0.8c-1.7,0-3.1-0.6-4.3-1.7
				c-1.2-1.2-1.8-2.6-1.8-4.3c0-1.7,0.6-3.1,1.8-4.3c1.2-1.2,2.6-1.8,4.3-1.8c1.2,0,2.3,0.3,3.2,0.9c0.9,0.6,1.6,1.3,2,2.2
				L1720.7,501.5z M1696.1,507.3c0.4-0.5,0.8-0.6,1.4-0.3c1.1,0.6,2.1,0.8,3,0.8c0.8,0,1.3-0.1,1.7-0.4c0.4-0.3,0.5-0.6,0.5-1
				c0-0.2-0.1-0.4-0.2-0.6c-0.1-0.2-0.2-0.3-0.4-0.4c-0.1-0.1-0.3-0.2-0.6-0.3c-0.3-0.1-0.5-0.2-0.7-0.2s-0.5-0.1-0.8-0.2
				c-1.1-0.2-2-0.4-2.4-0.7c-1.3-0.6-2-1.6-2-2.9c0-0.6,0.1-1.2,0.4-1.7c0.3-0.5,0.6-0.8,1.1-1.1s0.9-0.4,1.4-0.5
				c0.5-0.1,1-0.2,1.5-0.2c0.9,0,1.7,0.1,2.4,0.4s1.3,0.6,2,1.1l-0.6,0.9c-0.4,0.5-0.8,0.6-1.4,0.3c-0.8-0.4-1.7-0.6-2.5-0.6
				c-0.5,0-1,0.1-1.4,0.3c-0.4,0.2-0.6,0.5-0.6,0.9c0,0.2,0.1,0.4,0.2,0.6c0.1,0.2,0.3,0.3,0.4,0.4c0.1,0.1,0.4,0.2,0.7,0.3
				s0.5,0.2,0.7,0.2c0.2,0,0.4,0.1,0.8,0.2c0.1,0,0.2,0,0.6,0.1c0.3,0.1,0.6,0.1,0.7,0.1c0.1,0,0.4,0.1,0.7,0.2
				c0.3,0.1,0.6,0.2,0.7,0.3c0.2,0.1,0.4,0.2,0.6,0.4c0.2,0.2,0.4,0.4,0.6,0.6c0.1,0.2,0.2,0.5,0.3,0.8c0.1,0.3,0.1,0.7,0.1,1
				c0,1.2-0.4,2.1-1.2,2.7c-0.8,0.6-1.9,0.9-3.2,0.9c-1.1,0-2-0.2-2.7-0.5c-0.7-0.3-1.5-0.7-2.3-1.3L1696.1,507.3z M1685.1,509.7
				V498h8.6v1c0,0.7-0.4,1-1.1,1h-5.3v2.9h5v0.9c0,0.7-0.4,1.1-1.1,1.1h-3.9v2.8h5.3c0.3,0,0.6,0.1,0.8,0.3c0.2,0.2,0.3,0.5,0.3,0.8
				v0.9H1685.1z M1681.4,498c0.7,0,1.1,0.4,1.1,1.1v10.6h-1.2c-0.7,0-1.1-0.4-1.1-1.1V498H1681.4z M1678.1,503.3c0,0.6,0,1.1,0,1.5
				c-0.1,1.5-0.7,2.7-1.8,3.7c-1,0.9-2.4,1.4-4,1.4c-1.7,0-3.2-0.6-4.4-1.8c-1.2-1.2-1.8-2.6-1.8-4.3c0-1.7,0.6-3.1,1.8-4.3
				c1.2-1.2,2.6-1.8,4.3-1.8c1,0,2,0.2,2.9,0.7c0.9,0.5,1.6,1.1,2.1,2l-1.1,0.7c-0.5,0.3-1,0.2-1.5-0.2c-0.8-0.7-1.6-1-2.5-1
				c-1.1,0-2,0.4-2.7,1.1c-0.7,0.8-1.1,1.7-1.1,2.8c0,1.1,0.4,2.1,1.1,2.8c0.8,0.8,1.7,1.1,2.9,1.1c0.9,0,1.6-0.2,2.2-0.7
				c0.6-0.5,1-1.1,1.1-1.8h-3.3c-0.7,0-1.1-0.4-1.1-1.1v-1H1678.1z M1661.5,501c-0.7-0.8-1.6-1.1-2.7-1.1c-1.1,0-2,0.4-2.7,1.1
				c-0.7,0.8-1.1,1.7-1.1,2.8s0.4,2.1,1.1,2.8c0.7,0.8,1.6,1.1,2.7,1.1c1.1,0,2-0.4,2.7-1.1c0.7-0.8,1.1-1.7,1.1-2.8
				S1662.3,501.8,1661.5,501z M1658.8,509.9c-1.8,0-3.2-0.6-4.4-1.7c-1.1-1.2-1.7-2.6-1.7-4.3c0-1.7,0.6-3.1,1.7-4.3
				c1.1-1.2,2.6-1.8,4.4-1.8c1.8,0,3.3,0.6,4.4,1.7c1.1,1.2,1.7,2.6,1.7,4.3c0,1.7-0.6,3.1-1.7,4.3
				C1662.1,509.3,1660.6,509.9,1658.8,509.9z M1646.2,507.7h5.1c0.7,0,1.1,0.4,1.1,1.1v0.9h-8.4V498h1.2c0.7,0,1.1,0.4,1.1,1.1
				V507.7z M1638.7,501c-0.7-0.8-1.6-1.1-2.7-1.1s-2,0.4-2.7,1.1s-1.1,1.7-1.1,2.8s0.4,2.1,1.1,2.8c0.7,0.8,1.6,1.1,2.7,1.1
				s2-0.4,2.7-1.1c0.7-0.8,1.1-1.7,1.1-2.8S1639.4,501.8,1638.7,501z M1635.9,509.9c-1.8,0-3.2-0.6-4.4-1.7
				c-1.1-1.2-1.7-2.6-1.7-4.3c0-1.7,0.6-3.1,1.7-4.3c1.1-1.2,2.6-1.8,4.4-1.8c1.8,0,3.3,0.6,4.4,1.7c1.1,1.2,1.7,2.6,1.7,4.3
				c0,1.7-0.6,3.1-1.7,4.3C1639.2,509.3,1637.7,509.9,1635.9,509.9z M1627.9,509.7h-0.2l-7.7-6.9v5.9c0,0.7-0.4,1.1-1.1,1.1h-1.2
				V498h0.2l7.7,7.1v-6c0-0.7,0.4-1.1,1.1-1.1h1.2V509.7z M1613,498h1.2c0.7,0,1.1,0.4,1.1,1.1v10.6h-1.2c-0.7,0-1.1-0.4-1.1-1.1
				V505h-5.8v4.7h-1.2c-0.7,0-1.1-0.4-1.1-1.1V498h1.2c0.7,0,1.1,0.4,1.1,1.1v4h5.8V498z M1602,501.5c-0.4,0.2-0.8,0.1-1.2-0.3
				c-0.7-0.8-1.6-1.2-2.7-1.2c-1.1,0-2,0.4-2.7,1.2c-0.7,0.8-1.1,1.7-1.1,2.8c0,1.1,0.4,2,1.1,2.8c0.7,0.8,1.6,1.2,2.7,1.2
				c1.1,0,2-0.4,2.7-1.2c0.3-0.4,0.7-0.5,1.2-0.3l1.4,0.6c-0.4,0.9-1.1,1.7-2.1,2.2c-0.9,0.6-2,0.8-3.2,0.8c-1.7,0-3.1-0.6-4.3-1.7
				c-1.2-1.2-1.8-2.6-1.8-4.3c0-1.7,0.6-3.1,1.8-4.3c1.2-1.2,2.6-1.8,4.3-1.8c1.2,0,2.3,0.3,3.2,0.9c0.9,0.6,1.6,1.3,2,2.2
				L1602,501.5z M1582.1,509.7V498h8.6v1c0,0.7-0.4,1-1.1,1h-5.3v2.9h5v0.9c0,0.7-0.4,1.1-1.1,1.1h-3.9v2.8h5.3
				c0.3,0,0.6,0.1,0.8,0.3c0.2,0.2,0.3,0.5,0.3,0.8v0.9H1582.1z M1580.3,498v0.9c0,0.7-0.4,1.1-1.1,1.1h-2.3v8.6
				c0,0.7-0.4,1.1-1.1,1.1h-1.2V500h-3.4v-0.9c0-0.7,0.4-1.1,1.1-1.1H1580.3z M1565.8,503.3c0,0.6,0,1.1,0,1.5
				c-0.1,1.5-0.7,2.7-1.8,3.7c-1,0.9-2.4,1.4-4,1.4c-1.7,0-3.2-0.6-4.4-1.8c-1.2-1.2-1.8-2.6-1.8-4.3c0-1.7,0.6-3.1,1.8-4.3
				c1.2-1.2,2.6-1.8,4.3-1.8c1,0,2,0.2,2.9,0.7s1.6,1.1,2.1,2l-1.1,0.7c-0.5,0.3-1,0.2-1.5-0.2c-0.8-0.7-1.6-1-2.5-1
				c-1.1,0-2,0.4-2.7,1.1c-0.7,0.8-1.1,1.7-1.1,2.8c0,1.1,0.4,2.1,1.1,2.8c0.8,0.8,1.7,1.1,2.9,1.1c0.9,0,1.6-0.2,2.2-0.7
				c0.6-0.5,1-1.1,1.1-1.8h-3.3c-0.7,0-1.1-0.4-1.1-1.1v-1H1565.8z M1552,509.7h-0.2l-7.7-6.9v5.9c0,0.7-0.4,1.1-1.1,1.1h-1.2V498
				h0.2l7.7,7.1v-6c0-0.7,0.4-1.1,1.1-1.1h1.2V509.7z M1534.4,502.4l-1.7,3.5h3.3L1534.4,502.4z M1531.1,508.9
				c-0.2,0.5-0.7,0.8-1.2,0.8h-1.6l6-11.7h0.2l6,11.7h-1.6c-0.6,0-1-0.3-1.2-0.8l-0.5-1.1h-5.5L1531.1,508.9z M1524.7,498h1.2
				c0.7,0,1.1,0.4,1.1,1.1v10.6h-1.2c-0.7,0-1.1-0.4-1.1-1.1V505h-5.8v4.7h-1.2c-0.7,0-1.1-0.4-1.1-1.1V498h1.2
				c0.7,0,1.1,0.4,1.1,1.1v4h5.8V498z M1513,498c0.7,0,1.1,0.4,1.1,1.1v10.6h-1.2c-0.7,0-1.1-0.4-1.1-1.1V498H1513z M1507.7,508.6
				c-0.9,0.9-2.1,1.3-3.6,1.3s-2.7-0.4-3.6-1.3c-0.9-0.9-1.4-2.1-1.4-3.6v-7h1.2c0.7,0,1.1,0.4,1.1,1.1v5.9c0,0.5,0.1,1,0.3,1.4
				c0.2,0.4,0.4,0.7,0.7,0.9c0.3,0.2,0.6,0.4,0.9,0.4c0.3,0.1,0.6,0.1,0.9,0.1s0.6,0,0.9-0.1c0.3-0.1,0.6-0.2,0.9-0.4
				c0.3-0.2,0.5-0.5,0.7-0.9c0.2-0.4,0.3-0.9,0.3-1.4v-5.9c0-0.7,0.4-1.1,1.1-1.1h1.2v7C1509.1,506.5,1508.6,507.7,1507.7,508.6z
				 M1489.8,504h2.5c1.6,0,2.3-0.7,2.3-2c0-0.6-0.2-1.1-0.6-1.5s-1-0.6-1.8-0.6h-2.5V504z M1489.8,506v2.7c0,0.7-0.4,1.1-1.1,1.1
				h-1.2V498h5.3c1.2,0,2.2,0.4,2.9,1.1c0.7,0.7,1.1,1.7,1.1,2.9c0,0.9-0.2,1.7-0.7,2.4c-0.4,0.7-1,1.1-1.8,1.3l2.9,3.9h-1.9
				c-0.5,0-0.9-0.2-1.3-0.7l-2.2-3.1H1489.8z"/>
		</defs>
		<use xlink:href="#SVGID_5_"  style="overflow:visible;fill:#FFFFFF;"/>
		<clipPath id="SVGID_6_">
			<use xlink:href="#SVGID_5_"  style="overflow:visible;"/>
		</clipPath>
		<rect x="1485.6" y="495.8" class="st2" width="292" height="17.8"/>
	</g>
	<path class="st3" d="M1698.2,485.7h-23.8c-1.3,0-2.4-1.1-2.4-2.4v-5.3c0-1.3,1.1-2.4,2.4-2.4h20.7c1.3,0,2.3-0.9,2.3-2
		c0-1.1-1.1-2-2.4-2h-20.5c-1.3,0-2.4-1.1-2.4-2.4v-4.1c0-1.3,1.1-2.4,2.4-2.4h7.4l0,0h12c1.3,0,2.4-1.1,2.3-2.4v-7.4l0,0
		c0-1.2-0.9-2.2-2.1-2.2h-5.5c-1.3,0-2.3,1.1-2.3,2.4l0,3.3c0,1.3-1,2.4-2.3,2.3l-31-0.1c-1.3,0-1.9-0.9-1.2-2.1l5.6-10.4
		c0.6-1.1,2.2-2.1,3.5-2.1h37.1c1.3,0,2.3-0.9,2.3-2c0-1.1-1.1-2-2.4-2h-60.3c-1.3,0-2.4,0.9-2.4,2c0,1.1,1.1,2,2.4,2h7
		c1.3,0,1.8,0.9,1.2,2.1l-7.9,14.4c-0.6,1.1-0.1,2.1,1.2,2.1h21.4c1.3,0,2.4,1.1,2.4,2.4v4.1c0,1.3-1.1,2.4-2.4,2.4h-20.6
		c-1.3,0-2.4,0.9-2.4,2c0,1.1,1.1,2,2.4,2h20.6c1.3,0,2.4,1.1,2.4,2.4v5.3c0,1.3-1.1,2.4-2.4,2.4h-23.9c-1.3,0-2.4,0.9-2.4,2
		c0,1.1,1.1,2,2.4,2h61.8c1.3,0,2.4-0.9,2.4-2C1700.5,486.6,1699.5,485.7,1698.2,485.7z"/>
	<g>
		<path class="st3" d="M1774.5,476.2h-9.3c-1.3,0-2.4-0.7-2.4-1.6c0-0.9,1.1-1.6,2.4-1.6l9.8,0c1.3,0,2.3-1,2.3-2.2
			c0-1.2-1.1-2.2-2.4-2.2l-34.1,0c-1.3,0-2.4,1-2.4,2.2c0,1.2,1.1,2.2,2.4,2.3l10.2,0.1c1.3,0,2.4,0.7,2.4,1.5
			c0,0.8-1.1,1.5-2.4,1.5h-10.2c-1.3,0-2.4,0.8-2.4,1.8c0,1,1.1,1.8,2.4,1.8h10.2c1.3,0,2.4,1,2.4,2.3v4.5c0,1.3,1.1,2.3,2.4,2.3
			h4.8c1.3,0,2.4-1,2.4-2.3V482c0-1.3,1.1-2.3,2.4-2.3h9.3c1.3,0,2.4-0.8,2.4-1.8C1776.8,477,1775.8,476.2,1774.5,476.2z"/>
		<path class="st3" d="M1728.7,475.7h5.3c1.3,0,2.3-0.8,2.3-1.8c0-1-1.1-1.8-2.4-1.8h-5.3c-1.3,0-2.4-1-2.4-2.3v-3.1
			c0-1.3-1.1-2.3-2.4-2.3h-4.8c-1.3,0-2.4,1-2.4,2.3v3.1c0,1.3-1.1,2.3-2.4,2.3h-5.5c-1.3,0-2.4,0.8-2.4,1.8c0,1,1.1,1.8,2.4,1.8
			h5.5c1.3,0,2.4,1,2.4,2.3v4.8c0,1.3-1.1,2.3-2.4,2.3h-5.5c-1.3,0-2.4,0.8-2.4,1.8c0,1,1.1,1.8,2.4,1.8h25c1.3,0,2.4-0.8,2.4-1.8
			c0-1-1.1-1.8-2.4-1.8h-5.3c-1.3,0-2.4-1-2.4-2.3V478C1726.4,476.7,1727.4,475.7,1728.7,475.7z"/>
		<path class="st3" d="M1751.2,449.7h-10.4c-1.3,0-2.4,0.8-2.4,1.8c0,1,1.1,1.8,2.4,1.8h10.4c1.3,0,2.4,0.9,2.4,1.9
			c0,1.1-1.1,1.9-2.4,1.9h-10.4c-1.3,0-2.4,0.8-2.4,1.8c0,1,1.1,1.8,2.4,1.8h4.8c1.3,0,1.5,0.6,0.4,1.3l-5.7,4
			c-1.1,0.7-0.9,1.4,0.4,1.4l7.3,0c1.3,0,3.2-0.6,4.3-1.3l3.5-2.5c1.1-0.7,2.8-0.7,3.8,0l3.5,2.5c1.1,0.7,3,1.4,4.3,1.4h7.3
			c1.3,0,1.5-0.6,0.5-1.4l-5.7-4.1c-1-0.8-0.8-1.4,0.5-1.4h4.6c1.3,0,2.4-0.8,2.4-1.8c0-1-1.1-1.8-2.4-1.8h-9.1
			c-1.3,0-2.4-0.9-2.4-1.9c0-1.1,1.1-1.9,2.4-1.9h9.1c1.3,0,2.3-0.8,2.3-1.8c0-1-1.1-1.8-2.4-1.8h-9.1c-1.3,0-2.4-0.9-2.4-1.9
			c0-1.1,1.1-1.9,2.4-1.9h9.1c1.3,0,2.3-0.8,2.3-1.8c0-1-1.1-1.8-2.4-1.8h-9.1c-1.3,0-2.4-0.6-2.4-1.2c0-0.7-1.1-1.2-2.4-1.2h-4.8
			c-1.3,0-2.4,0.6-2.4,1.2c0,0.7-1.1,1.2-2.4,1.2h-10.4c-1.3,0-2.4,0.8-2.4,1.8c0,1,1.1,1.8,2.4,1.8h10.4c1.3,0,2.4,0.9,2.4,1.9
			C1753.6,448.8,1752.5,449.7,1751.2,449.7z"/>
		<path class="st3" d="M1771.9,481.3h-3c-1.3,0-2.3,1-2.3,2.3l0.1,2.9c0,1.3,1.1,2.3,2.4,2.3h2.9c1.3,0,2.3-1,2.3-2.3l-0.1-2.9
			C1774.3,482.4,1773.2,481.3,1771.9,481.3z"/>
		<path class="st3" d="M1747,481.4h-2.9c-1.3,0-2.3,1-2.3,2.3l0,2.8c0,1.3,1.1,2.3,2.4,2.3h2.9c1.3,0,2.3-1,2.3-2.3l0-2.8
			C1749.4,482.4,1748.3,481.4,1747,481.4z"/>
		<path class="st3" d="M1713.2,462.3h0.6h14.9v0l3.1,0c1.2,0,2.2-1.1,2.2-2.4l-0.1-7.4c0,0,0,0,0,0v0l0,0c-0.1-1-0.9-1.8-2-1.8h-1.7
			c-1.3,0-2.4,1-2.3,2.3l0,3.8c0,1.3-1,2.3-2.3,2.3l-7.3,0c-1.3,0-2-1-1.5-2.2l4-10.5c0.5-1.2,1.9-2.2,3.2-2.2h8.4
			c1.3,0,2.3-0.8,2.3-1.8c0-1-1.1-1.8-2.4-1.8h-21.6c-1.3,0-2.4,0.8-2.4,1.8c0,1,1.1,1.8,2.4,1.8h1.5c1,0,1.5,0.5,1.6,1.3
			c-0.1,0.2-0.2,0.3-0.3,0.5l-7.7,14.3c-0.6,1.1-0.1,2,1.2,2H1713.2z"/>
	</g>
	<g>
		<path class="st3" d="M1574,478.2c1.3,0,2.4-1,2.4-2.3v-6.8c0-1.3-1.1-2.3-2.4-2.3h-2.4c-1.3,0-2.4,1-2.4,2.3l-0.1,6.8
			c0,1.3,1,2.3,2.3,2.3H1574z"/>
		<path class="st3" d="M1592.1,447.3h31.4c1.3,0,2.4-0.9,2.4-1.9c0-1.1-1-1.9-2.3-1.9h-9.8c-1.3,0-2.4-0.6-2.4-1.4
			c0-0.8-1.1-1.4-2.4-1.4h-4.7c-1.3,0-2.4,0.6-2.4,1.4c0,0.8-1.1,1.4-2.4,1.4h-7.6c-1.3,0-2.4,0.9-2.4,1.9
			C1589.8,446.4,1590.8,447.3,1592.1,447.3z"/>
		<path class="st3" d="M1626.1,485.7c-1.2,0-2.2-1-2.2-2.3v-29.5c0-1.3-1.1-2.3-2.4-2.3h-23.9l0,0h-4.3c-1.2,0-2.1,0.8-2.1,2v4.3
			l0,0v13.7c0,1.3-0.2,3.4-0.5,4.6l-2.5,11.4c-0.3,1.3,0.6,2.3,1.9,2.3h4.1c1.3,0,2.6-1,2.9-2.3l2.5-11.4c0.3-1.3,0.5-3.3,0.5-4.6
			v-13.8c0-1.3,1.1-2.3,2.4-2.3h8.2c1.3,0,2.8,0,3.3,0c0.5,0,0.9,1.1,0.9,2.3v29.6c0,1.3,1.1,2.3,2.4,2.3h8.6c1.3,0,2.4-0.9,2.4-2
			C1628.2,486.6,1627.3,485.7,1626.1,485.7z"/>
		<path class="st3" d="M1587.8,460.3c-0.5,0-1-1.1-1-2.3v-12.7c0-1.3-1.1-2.3-2.4-2.3h-8.5c-1.3,0-2.4-0.9-2.4-2c0-1.1-1.1-2-2.4-2
			h-3.5c-1.3,0-2.4,0.9-2.4,1.9c0,1-1.1,1.9-2.4,1.9h-1.6c-1.3,0-2.4,1-2.4,2.3v12.9c0,1.3-0.4,2.3-0.9,2.3c-0.5,0-0.9,0.9-0.9,1.9
			c0,1.1,0.4,1.9,0.9,1.9c0.5,0,0.9,1.1,0.9,2.3v5.5c0,1.3-0.2,3.4-0.4,4.6l-1.9,10.9c-0.2,1.3,0.7,2.3,1.9,2.3h3.2
			c1.3,0,2.5-1,2.8-2.3l1.9-10.9c0.2-1.3,0.4-3.3,0.4-4.6v-5.5c0-1.3,1.1-2.3,2.4-2.3h7.3c1.3,0,2.4,1.1,2.4,2.3v17.2
			c0,1.3-1.1,2.3-2.4,2.3h-4.9c-1.3,0-1.9,0.9-1.4,1.9c0.5,1,2,1.9,3.3,1.9h10.9c1.3,0,2.4-1,2.4-2.3v-21c0-1.3,0.4-2.3,0.9-2.3
			c0.5,0,1-0.9,1-1.9C1588.7,461.1,1588.3,460.3,1587.8,460.3z M1578.9,457.9c0,1.3-0.6,2.3-1.3,2.3c-0.7,0-1.3-1-1.3-2.3l-0.1-5.6
			c0-1.3-1.1-2.3-2.4-2.3h-2.4c-1.3,0-2.3,1.1-2.3,2.3l0,5.6c0,1.3-0.4,2.3-1,2.3c-0.6,0-1-1.1-1-2.3V449c0-1.3,1.1-2.3,2.4-2.3h7.3
			c1.3,0,2.4,1,2.4,2.3V457.9z"/>
	</g>
	<g>
		<path class="st3" d="M1550.4,468.3l-9.9-6.2c-1.1-0.7-0.9-1.2,0.4-1.2h2c1.3,0,1.5-0.6,0.4-1.3l-5-3.3c-1.1-0.7-0.9-1.3,0.3-1.3
			c1.3,0,2.3-0.8,2.3-1.9c0-1-1.1-1.9-2.4-1.9h-41.9c-1.3,0-2.4,0.8-2.4,1.9c0,1,1.1,1.9,2.4,1.9h0c1.3,0,1.5,0.6,0.4,1.3l-5,3.3
			c-1.1,0.7-0.9,1.3,0.4,1.3h2c1.3,0,1.5,0.6,0.4,1.2l-9.9,6.2c-1.1,0.7-0.9,1.2,0.4,1.2h2.5c1.3,0,2.4,1.1,2.4,2.3v15
			c0,1.3,1.1,2.3,2.4,2.3h50.3c1.3,0,2.4-1.1,2.4-2.3v-15c0-1.3,1.1-2.3,2.4-2.3h2.5C1551.4,469.5,1551.5,469,1550.4,468.3z
			 M1502.4,464.5l7.5-4.6c1.1-0.7,0.9-1.2-0.4-1.2h-2.8c-1.3,0-1.5-0.6-0.4-1.3l1.8-1.2c1.1-0.7,3-1.3,4.3-1.3h10.3
			c1.3,0,3.3,0.6,4.3,1.3l1.9,1.2c1.1,0.7,0.9,1.3-0.4,1.3h-2.8c-1.3,0-1.5,0.6-0.4,1.2l7.5,4.6c1.1,0.7,0.9,1.2-0.4,1.2h-29.9
			C1501.5,465.7,1501.3,465.2,1502.4,464.5z M1501.7,470.3h31.6c1.3,0,2.4,0.7,2.4,1.5c0,0.8-1.1,1.5-2.4,1.5h-31.6
			c-1.3,0-2.4-0.7-2.4-1.5C1499.3,471,1500.4,470.3,1501.7,470.3z M1533.5,485.5h-31.6c-1.3,0-2.4-0.7-2.4-1.4
			c0-0.8,1.1-1.4,2.4-1.4h31.6c1.3,0,2.4,0.7,2.4,1.4C1535.9,484.9,1534.8,485.5,1533.5,485.5z M1533.5,479.1h-31.6
			c-1.3,0-2.4-0.7-2.4-1.5c0-0.8,1.1-1.5,2.4-1.5h31.6c1.3,0,2.4,0.7,2.4,1.5C1535.9,478.4,1534.8,479.1,1533.5,479.1z"/>
	</g>
	<path class="st3" d="M1550.7,445.6L1550.7,445.6l-1.1,0h-3.6h-4h-0.7h-1.8h-16.8c-1.3,0-2.3-0.3-2.3-0.7c0-0.4,1.1-0.7,2.3-0.7
		h12.9c1.3,0,2.3-0.8,2.3-1.8c0-1-1.1-1.8-2.4-1.8h-12.8c-1.3,0-2.3-0.4-2.3-0.9c0-0.5-1.1-0.9-2.3-0.9h-6.2c-1.3,0-2.3,1-2.3,2.3
		v2.2c0,1.3-1.1,2.3-2.3,2.3h-22.7c-1.3,0-2.3,1-2.3,2.3v7c0,1.3,1.1,2.3,2.3,2.3h4.6c1.3,0,2.3-1,2.3-2.3v-3.4
		c0-1.3,1.1-2.3,2.3-2.3h47.6c0.3,0,0.6,0.1,0.9,0.2c0.8,0.3,1.4,1.2,1.4,2.1v3.4c0,1.3,1.1,2.3,2.3,2.3h4.6c1.3,0,2.3-1,2.3-2.3
		v-0.1v-6.9C1553,446.7,1551.9,445.7,1550.7,445.6z"/>
</g>
<g>
	<polygon class="st4" points="194.1,134.6 178.3,127.5 178.3,88.6 129.2,63.7 129.2,262.6 178.3,238.1 178.3,163.4 194.1,168.9 
		194.2,230.2 228.2,213.5 228.2,113.2 194.1,96.4 	"/>
	<polygon class="st4" points="74.9,237.9 125.3,262.8 125.3,172.1 74.9,195.7 	"/>
	<polygon class="st4" points="111.9,59 96.6,66.6 96.6,55.8 82.9,62.6 82.9,73.3 67.6,80.9 67.6,70.1 53.5,77.1 53.5,87.9 
		38.1,95.5 38.1,84.7 26.2,90.6 26,108.3 125.3,59.8 125.3,41.6 111.9,48.3 	"/>
	<polygon class="st4" points="228.3,90.7 216.4,84.8 216.4,95.5 201.1,88 201.1,77.2 186.9,70.2 186.9,81 171.6,73.4 171.6,62.6 
		157.9,55.9 157.9,66.7 142.7,59.1 142.6,48.3 129.2,41.7 129.2,59.9 228.5,108.4 	"/>
	<path class="st4" d="M125.5,63.7l-99.2,49l-0.1,102.1l33.9,16.1l-0.1-42.4l65.5-31.2L125.5,63.7z M87.3,134.9L56,150.2l0-15.8
		l31.3-15V134.9z"/>
</g>
<g>
	<polygon points="1446.8,324.9 1440.2,322 1440.2,305.8 1419.8,295.4 1419.8,378.3 1440.2,368.1 1440.2,336.9 1446.8,339.2 
		1446.8,364.8 1461,357.8 1461,316 1446.8,309 	"/>
	<polygon points="1397.1,368 1418.1,378.4 1418.1,340.6 1397.1,350.4 	"/>
	<polygon points="1412.5,293.4 1406.2,296.6 1406.2,292.1 1400.5,294.9 1400.5,299.4 1394.1,302.5 1394.1,298.1 1388.2,301 
		1388.2,305.5 1381.8,308.6 1381.8,304.1 1376.8,306.6 1376.8,314 1418.1,293.8 1418.2,286.2 1412.6,288.9 	"/>
	<polygon points="1461.1,306.6 1456.1,304.2 1456.1,308.6 1449.7,305.5 1449.7,301 1443.8,298.1 1443.8,302.6 1437.4,299.4 
		1437.4,294.9 1431.8,292.1 1431.8,296.6 1425.4,293.5 1425.4,289 1419.8,286.2 1419.8,293.8 1461.2,314 	"/>
	<path d="M1418.2,295.4l-41.3,20.4l-0.1,42.5l14.1,6.7l-0.1-17.7l27.3-13L1418.2,295.4z M1402.3,325l-13.1,6.4l0-6.6l13.1-6.2V325z"
		/>
</g>
<g>
	<polygon class="st3" points="1446.8,463.7 1440.2,460.7 1440.2,444.5 1419.8,434.1 1419.8,517 1440.2,506.8 1440.2,475.7 
		1446.8,478 1446.8,503.5 1461,496.6 1461,454.8 1446.8,447.8 	"/>
	<polygon class="st3" points="1397.1,506.7 1418.1,517.1 1418.1,479.3 1397.1,489.2 	"/>
	<polygon class="st3" points="1412.5,432.2 1406.2,435.4 1406.2,430.9 1400.5,433.7 1400.5,438.2 1394.1,441.3 1394.1,436.8 
		1388.2,439.7 1388.2,444.2 1381.8,447.4 1381.8,442.9 1376.8,445.4 1376.8,452.7 1418.1,432.5 1418.2,424.9 1412.6,427.7 	"/>
	<polygon class="st3" points="1461.1,445.4 1456.1,442.9 1456.1,447.4 1449.7,444.3 1449.7,439.8 1443.8,436.9 1443.8,441.4 
		1437.4,438.2 1437.4,433.7 1431.8,430.9 1431.8,435.4 1425.4,432.2 1425.4,427.7 1419.8,425 1419.8,432.6 1461.2,452.8 	"/>
	<path class="st3" d="M1418.2,434.1l-41.3,20.4l-0.1,42.5l14.1,6.7l-0.1-17.7l27.3-13L1418.2,434.1z M1402.3,463.8l-13.1,6.4l0-6.6
		l13.1-6.2V463.8z"/>
</g>
</svg>
