<?xml version="1.0" encoding="utf-8"?>
<!-- Generator: Adobe Illustrator 27.0.0, SVG Export Plug-In . SVG Version: 6.00 Build 0)  -->
<svg version="1.1" id="图层_1" xmlns="http://www.w3.org/2000/svg" xmlns:xlink="http://www.w3.org/1999/xlink" x="0px" y="0px"
	 viewBox="0 0 1468.27 516.81" style="enable-background:new 0 0 1468.27 516.81;" xml:space="preserve">
<style type="text/css">
	.st0{fill:#1072A4;}
	.st1{fill:#66676B;}
</style>
<g>
	<path class="st0" d="M103.58,152.13l-7.86-44.38c0,0,83.68,17.49,150.08-13.79c66.41,31.29,150.07,13.79,150.07,13.79l-7.85,44.38
		l54.85,8.26c-0.88-40.89,30.45-102.23,30.45-102.23l-26.98-20.9c-139.32,50.67-184.68,4.55-198.29-19.81
		c-0.77-1.39-1.32-2.59-1.88-3.79c-0.11-0.24-0.26-0.51-0.37-0.73c-0.1,0.21-0.26,0.49-0.37,0.73c-0.55,1.2-1.12,2.39-1.88,3.79
		c-13.61,24.36-58.97,70.47-198.29,19.81l-26.98,20.9c0,0,31.32,61.34,30.45,102.23L103.58,152.13z M463.42,300.32
		c-0.11-1.75-0.23-3.57-0.37-5.36c0.14,1.73-4.14,6.43-5.15,7.97c-1.79,2.71-3.59,5.44-5.45,8.11c-3.97,5.73-8.17,11.34-12.67,16.71
		c-16.34,19.51-37.06,38.69-59.67,50.71c-22.18,11.78-49.64,13.47-69.96,29.11v-37.44c0,0,54.8-29.92,46.71-149.43
		c14.88,1.45,28.42,3.06,40.38,4.64l6.03,40.63c2.35,20.09,4.71,52.42-0.18,76.85c0.53-0.45,1.03-0.81,1.56-1.26
		c19.85-16.26,42.3-40.67,55.71-72.84c-5.93-46.57-17.28-91.8-17.28-91.8c-28.04-7.14-61.25-11.37-94.04-13.8
		c-1.95-9.9-4.22-20.21-6.93-31.03c0,0-38.97,2.18-57.02-5.62l5.37,33.99l0.17,1.11c-5.99-0.3-22.29-1.01-44.48-1.3h-0.73
		c-22.17,0.3-38.49,1.01-44.48,1.3l0.17-1.11l5.35-33.99c-18.03,7.8-57,5.62-57,5.62c-2.71,10.82-4.98,21.13-6.91,31.03
		c-32.81,2.42-66.02,6.65-94.06,13.8c0,0-11.36,45.23-17.28,91.8c13.43,32.17,35.89,56.59,55.71,72.84
		c0.53,0.45,1.02,0.81,1.57,1.26c-4.88-24.43-2.53-56.77-0.18-76.85l6.03-40.63c11.98-1.58,25.52-3.19,40.38-4.64
		c-8.09,119.51,46.71,149.43,46.71,149.43v37.44c-20.32-15.64-47.77-17.33-69.95-29.11c-22.62-12.02-43.34-31.2-59.67-50.71
		c-4.5-5.36-8.69-10.98-12.67-16.71c-1.86-2.67-3.65-5.4-5.46-8.11c-0.98-1.54-5.28-6.24-5.16-7.97c-0.12,1.79-0.27,3.61-0.35,5.36
		c-0.11,1.56-0.18,3.11-0.22,4.64c-0.86,19.08,0.22,36.08,4.42,47.82c15.17,60.72,63.83,83.15,87.39,90.47
		c7.9,2.46,20.82,5.78,24.62,7.15c58.95,21.17,94.07,57.46,94.07,57.46V342.71c-55.31-19.99-48.04-108.92-46.07-126.27
		c-0.37,0.02-0.77,0.02-1.14,0.06c0.37-0.04,0.77-0.04,1.14-0.08c18.18-0.94,36.06-1.39,53.4-1.37c17.34-0.02,35.23,0.43,53.41,1.37
		c0.36,0.04,0.77,0.04,1.16,0.08c-0.39-0.04-0.79-0.04-1.16-0.06c1.96,17.35,9.23,106.27-46.07,126.27v165.16
		c0,0,35.14-36.29,94.06-57.46c3.81-1.37,16.73-4.69,24.62-7.15c23.56-7.31,72.22-29.75,87.41-90.47
		c4.19-11.74,5.26-28.74,4.4-47.82C463.59,303.43,463.53,301.89,463.42,300.32z"/>
	<g>
		<g>
			<path class="st1" d="M572.87,285.6V161.07H534.8v-47.49h38.07V84.02h60.52v29.56h23.92v47.49H633.4v57.18h35.14L633.4,291.9
				v96.43c0,6.47-1.14,12.44-3.42,17.93c-2.28,5.5-5.29,10.26-9.03,14.29c-3.74,4.04-8.14,7.27-13.18,9.69
				c-5.05,2.42-10.49,3.63-16.35,3.63h-52.71l11.23-33.92h8.79c3.91,0,7.24-1.45,10.01-4.36c2.76-2.91,4.15-6.46,4.15-10.66v-19.38
				h-38.56L572.87,285.6z M744.2,436.79h-66.87l29.29-144.89h66.87L744.2,436.79z M913.08,87.9c14.64,0,26.19,3.39,34.65,10.18
				c8.46,6.78,12.69,17.44,12.69,31.98v20.84h-61.5v-10.66c0-4.52-1.46-8.24-4.39-11.15c-2.93-2.91-6.51-4.36-10.74-4.36H741.76
				v26.17h-61.5V87.9H913.08z M787.15,436.79V278.82H680.26v-42.16h106.89v-24.71h66.38v24.71h106.89v42.16H853.53v157.97H787.15z
				 M794.47,160.1l-40.51,60.57h-72.73l40.51-60.57H794.47z M882.33,220.67l-40.51-60.57h72.73l41,60.57H882.33z M895.99,436.79
				L867.2,291.9h66.38l29.29,144.89H895.99z"/>
			<path class="st1" d="M1122.96,253.14H1022.9v-49.91h427.09v49.91H1195.2l-58.08,122.11h212.81l-32.21-64.93h71.26l61.01,124.05
				h-70.77l-4.88-9.21h-260.64h-72.73L1122.96,253.14z M1051.7,86.44h369.49v49.91H1051.7V86.44z"/>
		</g>
	</g>
</g>
</svg>
