<svg id="图层_1" data-name="图层 1" xmlns="http://www.w3.org/2000/svg" xmlns:xlink="http://www.w3.org/1999/xlink" viewBox="0 0 184.18 40"><defs><style>.cls-1,.cls-7{fill-rule:evenodd;}.cls-1{fill:url(#未命名的渐变);}.cls-2,.cls-7{fill:#fff;}.cls-3{fill:#ddebf6;}.cls-4{fill:url(#未命名的渐变_2);}.cls-5{fill:url(#未命名的渐变_3);}.cls-6{fill:url(#未命名的渐变_4);}</style><radialGradient id="未命名的渐变" cx="12.4" cy="26.88" r="26.87" gradientTransform="matrix(0.98, 0, 0, -0.98, 1.66, 39.57)" gradientUnits="userSpaceOnUse"><stop offset="0" stop-color="#4874e7"/><stop offset="1" stop-color="#406ddf"/></radialGradient><linearGradient id="未命名的渐变_2" x1="15.98" y1="24.35" x2="19.15" y2="28.27" gradientTransform="matrix(1, 0, 0, -1, 0, 40)" gradientUnits="userSpaceOnUse"><stop offset="0" stop-color="#698aef"/><stop offset="1" stop-color="#86a5f7"/></linearGradient><linearGradient id="未命名的渐变_3" x1="24.3" y1="13.75" x2="22.61" y2="12.43" xlink:href="#未命名的渐变_2"/><linearGradient id="未命名的渐变_4" x1="17.43" y1="21.53" x2="27.9" y2="13.92" gradientTransform="matrix(1, 0, 0, -1, 0, 40)" gradientUnits="userSpaceOnUse"><stop offset="0" stop-color="#fff"/><stop offset="1" stop-color="#8da0ff"/></linearGradient></defs><path class="cls-1" d="M19.6.4A19.6,19.6,0,1,1,0,20,19.63,19.63,0,0,1,19.6.4Z"/><path class="cls-2" d="M21.3,8H18.2c3,1.2,6.5,2.9,7.2,5.1a6.87,6.87,0,0,1,.5,1.7H28C27.8,10.3,25.5,8,21.3,8Z"/><path class="cls-3" d="M22.8,18.3c-.7-.4-1.3-.7-1.9-1.1,1,.6,2,1.2,3,1.7A10.91,10.91,0,0,0,22.8,18.3Z"/><path class="cls-4" d="M19.8,16.5c.2.1.4.3.6.4-1.7-1.1-2.5-2-2.5-2.7a2.58,2.58,0,0,1,.9-2.1,4.85,4.85,0,0,1,2.7-.7c2.2-.2,3.3.5,3.9,1.7-.7-2.2-4.2-3.9-7.2-5.1h-.3a6.51,6.51,0,0,0-4.7,2,8.87,8.87,0,0,0,1.3,1.8A24.11,24.11,0,0,0,19.8,16.5Z"/><path class="cls-2" d="M15.6,28.7a6.31,6.31,0,0,1-1.9-4l-2.5.1c0,4.5,2.2,6.7,6.7,6.7h1.2A10.06,10.06,0,0,1,15.6,28.7Z"/><path class="cls-5" d="M25.7,30c-.4-2.2-2.6-4.2-5-5.8a1.91,1.91,0,0,1,.7,1.2,2.58,2.58,0,0,1-.9,2.1c-.6.5-2.1,1.8-3.3,1.8a2,2,0,0,1-1.5-.6,12.3,12.3,0,0,0,3.6,2.9h2.1A6.39,6.39,0,0,0,25.7,30Z"/><path class="cls-6" d="M27.4,21.8c-.3-.8-1.5-1.8-3.5-3-1-.5-2-1.1-3-1.7-.2-.1-.3-.2-.5-.3s-.4-.3-.6-.4a21.8,21.8,0,0,1-5.3-4.7c-.5-.7-1-1.3-1.3-1.8h0a6.57,6.57,0,0,0-2,4.8,7.31,7.31,0,0,0,.6,3c.4.9,1.9,2.1,4.6,3.6a18.42,18.42,0,0,1,4.2,2.8c2.5,1.6,4.6,3.6,5,5.8.1-.1.3-.2.4-.3a6.57,6.57,0,0,0,2-4.8A8,8,0,0,0,27.4,21.8Z"/><polygon class="cls-7" points="9.2 24.9 15.2 25.5 14.1 21.7 9.2 24.9"/><polygon class="cls-7" points="23.8 13.8 29.8 13.9 25.8 17.1 23.8 13.8"/><path class="cls-2" d="M59.86,25.79c-.63-.27-1.23-.52-1.82-.81v4.47h-11V25c-.55.27-1.11.49-1.74.76l-1.05-2c3.44-1.25,6-2.69,7.48-4.5h1.63a17.12,17.12,0,0,0,7.39,4.46ZM47.43,18.63H45.27V15h6.07L51,13.53l2.44-.14L53.77,15h6v3.63H57.89c.63.35,1.25.69,1.73,1l-.9,1.87a51.56,51.56,0,0,0-5.2-2.86l1-1.63H50.42l1,1.68a33.47,33.47,0,0,1-5,2.86l-.94-1.91A27.76,27.76,0,0,0,50.37,17H47.43Zm8.39,7.15H49.27V27.5h6.55Zm-.16-2.06a14.83,14.83,0,0,1-3.1-2.3,21.19,21.19,0,0,1-3.13,2.3Zm2-6.7h-3c.84.38,1.94.94,3,1.5Z"/><path class="cls-2" d="M77.57,25.07c-.24-.05-.47-.07-.7-.12v4.3h-6.2V23.87h2.72a10.69,10.69,0,0,1-3.06-2.06h-.2a7.48,7.48,0,0,1-3.24,2.06h2.86v5.38H63.63V24.93l-.77.22-.7-2a17.14,17.14,0,0,0,4.61-1.32H63V19.89h5.8a4.13,4.13,0,0,0,.3-.88H63.58V13.93h6.17v5l1.68.29c-.07.24-.16.45-.24.67h1.86c-.06-.2-.13-.4-.18-.56L74.6,19c.12.29.2.58.29.85h2.64v1.92H73.39a16.35,16.35,0,0,0,5,1.3Zm-9.8-9.34H65.56v1.44h2.21Zm0,9.83H65.61v1.91h2.16ZM76.87,19H70.69V13.93h6.18Zm-2,6.55H72.64v1.91H74.9Zm0-9.83H72.65v1.44h2.29Z"/><path class="cls-2" d="M92.76,22.08a14,14,0,0,1-2,3.62c1.36.6,2.8,1.26,4.38,2L94.25,30Q91.67,28.61,89,27.34c-1.6,1.06-3.92,1.87-7.59,2.67l-.94-2.22a23.62,23.62,0,0,0,6-1.58q-2.37-1-4.32-1.73a24.93,24.93,0,0,0,1.49-2.4H80.16V19.94H84.8c.43-.92.83-1.76,1.13-2.54l2.33.78-.78,1.76H95.8v2.14ZM83.16,19H80.91V15.21h6l-.29-1.53,2.45-.13.32,1.66h5.76V19H92.94V17.35H83.16Zm7,3.09H86.42a16.2,16.2,0,0,1-.86,1.46c.91.34,1.92.71,3.06,1.19A7.56,7.56,0,0,0,90.18,22.08Z"/><path class="cls-2" d="M106.91,21.08v1.8h4.5V25h-4.5v2h6v2.16H98.53V27.05h6V25H100V22.88h4.5v-1.8h-3.85v-1c-.67.41-1.35.77-2.13,1.19l-1.28-2a16.93,16.93,0,0,0,7.62-6h1.69a18.21,18.21,0,0,0,7.53,5.93l-1.19,2A21.17,21.17,0,0,1,110.85,20v1.07Zm-4.52-2.16h6.78a16.79,16.79,0,0,1-3.42-3.28A15.42,15.42,0,0,1,102.39,18.92Z"/><path class="cls-2" d="M120.37,23c-.27-.42-.54-.85-.83-1.26v7.74H117.6V23a20.14,20.14,0,0,1-1.25,2.38l-1.56-1.41a26.75,26.75,0,0,0,2.61-5.33h-1.61V16.45h1.81V13.57l1.94.09v2.79H121v2.14h-1.5v1.62l.63-.56c.56.72,1.06,1.28,1.57,2Zm.25-3.75A13.43,13.43,0,0,0,125,13.44h1.57a16.09,16.09,0,0,0,5.22,6l-1.24,1.71c-.52-.41-1-.79-1.49-1.2v1.17H122.8v-1a9.59,9.59,0,0,1-.94.83ZM130.18,22c-.43,1.33-1.22,3.56-1.84,5.18h2.44v2.07h-9.87V27.16h5.42l.63-1.64-1.55.65c-.25-1.17-.88-3.31-1.21-4.39l1.75-.56c.29.85.88,2.63,1.17,3.87.49-1.31.92-2.66,1.21-3.74Zm-7.49,4.8c-.29-1.29-.86-3.4-1.26-4.52l1.71-.59c.42,1.22,1,3.12,1.33,4.34ZM123.84,19h4.29a13.36,13.36,0,0,1-2.32-2.88A14.53,14.53,0,0,1,123.84,19Z"/><path class="cls-2" d="M135.51,21.76a26.69,26.69,0,0,0-2.71-2.54l1.27-1.62a31.76,31.76,0,0,1,2.7,2.4Zm1,1.35c-.22.52-1.53,5.69-1.67,6.21L133,28.69c.37-1,1.49-5,1.71-6.19l1.08.36ZM136,17.65a20.1,20.1,0,0,0-2.56-2.46l1.17-1.53c.72.57,1.86,1.58,2.59,2.21V14.45h6V25h-1.68V16.47h-2.7v8.59h-1.66V16Zm7.9,10-1.35,1.51c-.74-.84-1.58-1.8-2.36-2.57a11.72,11.72,0,0,1-3,3.11l-1.26-1.56c2.93-2,3.54-3.24,3.54-6.41V17l1.63.07v4.6a17.51,17.51,0,0,1-.22,3C141.81,25.51,143.23,26.82,143.93,27.63Zm1.77-2.14H144V15.42l1.73.07ZM148.2,14V27.36c0,1.62-.41,2-1.91,2.14l-1,.09-.59-2,1-.1c.58-.08.72-.17.72-.83V13.93Z"/><path class="cls-2" d="M166.67,24.35H160v5.1h-2.29v-5.1H151V22.08h6.73V16.25H152V14H165.7v2.23H160v5.83h6.7ZM154,16.61a28.35,28.35,0,0,1,2.81,4L155,21.92a33.93,33.93,0,0,0-2.76-4.05Zm6.85,4.16a28.06,28.06,0,0,0,2.75-4.23l1.8,1.15a27,27,0,0,1-2.77,4.23Z"/><path class="cls-2" d="M179.36,15a68.12,68.12,0,0,1,4.79,5l-1.48,1.51-.92-1.08c-2.25.08-9.24.29-11.32.44a3.93,3.93,0,0,0-.74.07l-.58-2.27a2.8,2.8,0,0,0,1.44-.54,21.87,21.87,0,0,0,4.3-4.77l2.13,1a27,27,0,0,1-3.69,4.16c1.78-.05,4.45-.14,6.53-.24-.73-.79-1.42-1.51-1.92-2Zm-8.93,6.9h12.19V29.3H170.43Zm2.28,5.26h7.64V24.05h-7.64Z"/></svg>