<svg id="图层_1" data-name="图层 1" xmlns="http://www.w3.org/2000/svg" xmlns:xlink="http://www.w3.org/1999/xlink" viewBox="0 0 284.61 107.29"><defs><style>.cls-1{fill:#838182;}.cls-2{fill:url(#未命名的渐变_33);}</style><linearGradient id="未命名的渐变_33" x1="-0.15" y1="26.87" x2="101.19" y2="75.43" gradientUnits="userSpaceOnUse"><stop offset="0" stop-color="#fff34e"/><stop offset="0.08" stop-color="#f8e748"/><stop offset="0.21" stop-color="#e4c638"/><stop offset="0.4" stop-color="#c5921f"/><stop offset="0.48" stop-color="#b67913"/><stop offset="0.58" stop-color="#d09c0c"/><stop offset="0.68" stop-color="#e5b807"/><stop offset="0.79" stop-color="#f3cb03"/><stop offset="0.89" stop-color="#fcd701"/><stop offset="1" stop-color="#ffdb00"/></linearGradient></defs><path class="cls-1" d="M118.81,35.51V32.26h16.67v-2H118.81V27h16.67V25.52h3.82V27H156v3.25H139.3v2H156v3.25Zm0,14.47V46.73h6.35v-2h-2.84c-1.81,0-2.72-.73-2.72-2.18V39a1.7,1.7,0,0,1,.51-1.27,2.82,2.82,0,0,1,2.11-.71h30.59a2.41,2.41,0,0,1,1.83.65,1.94,1.94,0,0,1,.52,1.44v3.59a2,2,0,0,1-.69,1.52,2.33,2.33,0,0,1-1.66.53h-3.19v2H156V50Zm3.67,1.6h30.39c1.54,0,2.31.72,2.31,2.17v3.71A2.23,2.23,0,0,1,152.69,60H122a2.07,2.07,0,0,1-2.37-2.3v-4a2.08,2.08,0,0,1,.6-1.61A3.66,3.66,0,0,1,122.48,51.58Zm1.5-9.5h26.44a2.91,2.91,0,0,0,1-.12.76.76,0,0,0,.43-.79v-.61c0-.58-.47-.87-1.42-.87H124c-.72,0-1.07.29-1.07.87v.83a.65.65,0,0,0,.18.55A1.94,1.94,0,0,0,124,42.08Zm26.56,12.3H124.61c-.75,0-1.12.29-1.12.89V56a1.54,1.54,0,0,0,.25,1c.09.09.38.13.87.13h26a1.65,1.65,0,0,0,.63-.06c.2-.09.31-.31.31-.67v-1a1.1,1.1,0,0,0-.27-.85A1.33,1.33,0,0,0,150.54,54.38Zm-21.61-7.65h16.93v-2H128.93Z"/><path class="cls-1" d="M160.14,35.36V31.61h8.15v-6h3.76v6h7.18v3.75h-7.18v7.9h-3.76v-7.9Zm0,24.76V56.81h1.6a12.45,12.45,0,0,0,4.95-1.44L164,53.75a4.53,4.53,0,0,1-2.39-3.07,9,9,0,0,1-.08-1.52h-1.34v-3.3h1.34V44.27h3.57v1.59h9.8V44.27h3.57v1.59h1.38v3.3h-1.38v.63a4,4,0,0,1-.91,2.8,26.89,26.89,0,0,1-4,2.56,18.93,18.93,0,0,0,3.44,1.5,10.07,10.07,0,0,0,2.59.3h.62v3.11h-2a13.73,13.73,0,0,1-4.49-.59c-.24-.09-1.44-.73-3.59-1.95-.3.17-.89.47-1.76.91a14.85,14.85,0,0,1-3.43,1.4A28.68,28.68,0,0,1,160.14,60.12ZM161,29.64l0-3.95h3.71v3.95Zm0,13.9V39.81a1,1,0,0,0,.89-1V37.13h3.78v1.65A4.64,4.64,0,0,1,164.46,42,4.79,4.79,0,0,1,161,43.54Zm9.11,9.62L173.53,51a2.34,2.34,0,0,0,1.28-1.77h-9.7a2,2,0,0,0,.43,1.16,7.56,7.56,0,0,0,2,1.36Zm4.65-16h3.73v1.66a.94.94,0,0,0,1,1v3.71A4.87,4.87,0,0,1,176,42.06a4.79,4.79,0,0,1-1.29-3.43Zm.89-7.59,0-3.93h3.73v3.93Zm4.32,7.69V33.48a3,3,0,0,0,2.07-2,52.32,52.32,0,0,0,1.66-5.95h3.86L186.92,28h10.71v3.75H196l-.29,6.35a43.71,43.71,0,0,1-1.11,8.3,23.74,23.74,0,0,1-2.41,6,17.2,17.2,0,0,0,5.41,3.75V60a19.06,19.06,0,0,1-7.73-4.73,21.46,21.46,0,0,1-3.94,2.94A35.55,35.55,0,0,1,181.66,60V56.16a19,19,0,0,0,5.81-4,32.41,32.41,0,0,1-2.94-7c-.35-1.24-.93-4-1.77-8.22h3.73q1,5,1.3,6.26a36.3,36.3,0,0,0,2,5.69,18.19,18.19,0,0,0,1.47-4.53,47.24,47.24,0,0,0,.62-6.47l.2-6.17h-6.13a10.19,10.19,0,0,1-2.39,3.92A8.17,8.17,0,0,1,179.94,37.25Z"/><path class="cls-1" d="M201.71,41.31V36.52a12.72,12.72,0,0,0,2.94-2.84,27,27,0,0,0,3.11-8.23H212a41.9,41.9,0,0,1-2.43,8.07V59.93h-3.9V38.85a16.61,16.61,0,0,1-1.85,1.42A15.3,15.3,0,0,1,201.71,41.31Zm10.63-9.84V27.71h11.71v-2.1h3.78v2.1h11.26v3.76Zm0,12.8V40.45h26.75v3.82Zm.33,10.94V51.29a4.92,4.92,0,0,1,1.08-3.63A4.49,4.49,0,0,1,217,46.57h16.82c1.9,0,3.22.36,4,1.09s1.11,2,1.09,3.9q0,2,0,2.7c0,2-.14,3.29-.57,4a4.12,4.12,0,0,1-3.79,1.72H218.06a7.83,7.83,0,0,1-3.71-.6A3.11,3.11,0,0,1,213.11,58,6.94,6.94,0,0,1,212.67,55.21Zm.24-17.31V34.09H238.5V37.9ZM218,56.12h14.77a3.6,3.6,0,0,0,1.92-.3,1.27,1.27,0,0,0,.32-1V52.14a2.32,2.32,0,0,0-.28-1.42,2.4,2.4,0,0,0-1.51-.34H218.43a3,3,0,0,0-1.67.27,1.78,1.78,0,0,0-.27,1.17V54a3.46,3.46,0,0,0,.27,1.83A2,2,0,0,0,218,56.12Z"/><path class="cls-1" d="M243.18,59.9V56.18a1.88,1.88,0,0,0,1.71-1.42,26.23,26.23,0,0,0,.5-4.26l.13-1.58h3.73c0,.86-.14,2.43-.3,4.68-.18,2.43-.94,4.15-2.27,5.18A5.92,5.92,0,0,1,243.18,59.9Zm6.44-32.41v-2h3.75v2h22a6,6,0,0,1,2.27.31A3.19,3.19,0,0,1,279.66,31V43.44a3.52,3.52,0,0,1-1.07,2.76,4.29,4.29,0,0,1-3,1H248.68a4.25,4.25,0,0,1-3-1,3.93,3.93,0,0,1-1-2.94V31.16a3.53,3.53,0,0,1,1.13-2.8,4.33,4.33,0,0,1,2.9-.87ZM248.4,33h27.53v-.51a1.27,1.27,0,0,0-.46-1,1.61,1.61,0,0,0-1.08-.35H249.9c-1,0-1.5.41-1.5,1.22Zm0,5.22h27.53V36.48H248.4Zm27.53,3.44H248.4v.41c0,.9.41,1.34,1.22,1.34h25.05a1.29,1.29,0,0,0,1.26-1.34Zm-21.55,7.23h3.76v4.93a2.32,2.32,0,0,0,.57,1.66,2.27,2.27,0,0,0,1.72.69h11.71V60h-12.3a5.36,5.36,0,0,1-4-1.54,5.2,5.2,0,0,1-1.45-3.81Zm9.69,5v-5h3.57v5Zm10.5-5h3.78l.38,4a4.37,4.37,0,0,0,1,2.84,1.77,1.77,0,0,0,1.05.42V59.9a5.26,5.26,0,0,1-4.12-1.71,6.1,6.1,0,0,1-1.44-2.7,18.9,18.9,0,0,1-.26-2.21Z"/><path class="cls-2" d="M94.68,38.6a31.79,31.79,0,0,0-10-11.34,30.67,30.67,0,0,0-3.26-2,5.67,5.67,0,0,0,.89-7.37,32.25,32.25,0,0,0-53.95.72,5.73,5.73,0,0,0-4,.37A36.89,36.89,0,0,0,9.53,32.29,36.66,36.66,0,0,0,28.35,86.48a5.68,5.68,0,0,0,1.53,6.82,43.15,43.15,0,0,0,64.8-54.7ZM57.11,91.66a32,32,0,0,1-13.88-3.19A35.08,35.08,0,0,0,66.75,77.61,39.25,39.25,0,0,0,73.94,67a5,5,0,0,0,.33-.65A19.64,19.64,0,0,0,70.63,45l-.12-.13A12.67,12.67,0,0,0,62,41.07,11.43,11.43,0,0,0,53,45.52a5.66,5.66,0,1,0,8.94,6.94v0a2.59,2.59,0,0,1,.55.38,8.39,8.39,0,0,1,1.83,8,2.44,2.44,0,0,0-.14.34l0,0a27.29,27.29,0,0,1-5.56,8.64,24,24,0,0,1-18,7.44A25.37,25.37,0,0,1,23.4,33.17q-.12,1.41-.12,2.79A32.29,32.29,0,0,0,55.54,68.22a5.66,5.66,0,0,0,0-11.32,20.81,20.81,0,0,1-13-4.53,5.63,5.63,0,0,0,2.25.47h.32a5.68,5.68,0,0,0,5.34-6c-.22-3.88.75-7,2.9-9.26C56.12,34.66,61,33,66.65,33a20.27,20.27,0,0,1,15.1,6.7l.08.1A32.27,32.27,0,0,1,84.74,44a19.25,19.25,0,0,1,.81,1.78,5.1,5.1,0,0,0,.75,1.32A31.84,31.84,0,0,1,57.11,91.66Zm9.54-70c-8.9,0-16.55,2.9-21.53,8.17-4.3,4.54-6.36,10.65-6,17.68a5.81,5.81,0,0,0,.57,2.16A20.93,20.93,0,0,1,55.54,15,21.09,21.09,0,0,1,71.11,22,33.32,33.32,0,0,0,66.65,21.65Z"/><path class="cls-1" d="M118.81,78.43l3.82-5.84-3.46-5.36h2.64l2.25,3.6,2.19-3.6h2.62l-3.48,5.44,3.83,5.76h-2.73L124,74.56l-2.49,3.87Z"/><path class="cls-1" d="M130.4,78.43V67.23h2.26v11.2Z"/><path class="cls-1" d="M134.34,74.79l2.2-.22a2.71,2.71,0,0,0,.8,1.63,2.43,2.43,0,0,0,1.64.52,2.58,2.58,0,0,0,1.65-.46,1.37,1.37,0,0,0,.55-1.08,1.05,1.05,0,0,0-.23-.68,1.79,1.79,0,0,0-.82-.48c-.26-.1-.86-.26-1.81-.49a6.12,6.12,0,0,1-2.55-1.11,3,3,0,0,1-1-2.25,2.82,2.82,0,0,1,.49-1.6,3,3,0,0,1,1.39-1.14,5.64,5.64,0,0,1,2.21-.39A4.7,4.7,0,0,1,142,68a3.25,3.25,0,0,1,1.12,2.46l-2.26.1a1.93,1.93,0,0,0-.62-1.24,2.3,2.3,0,0,0-1.43-.38,2.6,2.6,0,0,0-1.55.41.8.8,0,0,0-.36.69.87.87,0,0,0,.34.68,6,6,0,0,0,2.08.75,10.86,10.86,0,0,1,2.44.81A3.08,3.08,0,0,1,143,73.38a3.44,3.44,0,0,1,.44,1.79,3.34,3.34,0,0,1-.53,1.8,3.19,3.19,0,0,1-1.52,1.25,6.35,6.35,0,0,1-2.43.41,4.86,4.86,0,0,1-3.26-1A4.29,4.29,0,0,1,134.34,74.79Z"/><path class="cls-1" d="M145.44,78.43V67.23h2.26v4.41h4.43V67.23h2.26v11.2h-2.26v-4.9H147.7v4.9Z"/><path class="cls-1" d="M156.81,67.23h2.26V73.3a13.81,13.81,0,0,0,.08,1.87,1.84,1.84,0,0,0,.69,1.1,2.43,2.43,0,0,0,1.5.42,2.24,2.24,0,0,0,1.45-.4,1.54,1.54,0,0,0,.59-1,13.48,13.48,0,0,0,.1-1.9v-6.2h2.26v5.88a14.27,14.27,0,0,1-.19,2.85,3.14,3.14,0,0,1-.67,1.41,3.49,3.49,0,0,1-1.32.91,5.66,5.66,0,0,1-2.15.34,6.21,6.21,0,0,1-2.44-.37,3.66,3.66,0,0,1-1.31-1,3.11,3.11,0,0,1-.63-1.24,13.52,13.52,0,0,1-.22-2.84Z"/><path class="cls-1" d="M172.58,78.43V67.23h2.26v11.2Z"/><path class="cls-1" d="M177.11,78.43V67.23h2.2l4.59,7.48V67.23H186v11.2h-2.27l-4.52-7.3v7.3Z"/><path class="cls-1" d="M188.5,78.43V67.23h7.67v1.9h-5.41v2.65h4.67v1.89h-4.67v4.76Z"/><path class="cls-1" d="M197.67,72.9a7.12,7.12,0,0,1,.51-2.87,5.3,5.3,0,0,1,1-1.54,4.48,4.48,0,0,1,1.45-1,6.24,6.24,0,0,1,2.41-.44,5.23,5.23,0,0,1,4,1.54,6.84,6.84,0,0,1,0,8.51,5.2,5.2,0,0,1-3.94,1.53,5.3,5.3,0,0,1-4-1.52A5.81,5.81,0,0,1,197.67,72.9Zm2.33-.08a4.2,4.2,0,0,0,.88,2.89,3,3,0,0,0,4.45,0,4.31,4.31,0,0,0,.86-2.92,4.22,4.22,0,0,0-.84-2.87,3.13,3.13,0,0,0-4.5,0A4.25,4.25,0,0,0,200,72.82Z"/><path class="cls-1" d="M210.4,78.43V67.23h4.75a7.84,7.84,0,0,1,2.61.31,2.51,2.51,0,0,1,1.3,1.07,3.17,3.17,0,0,1,.49,1.76,3,3,0,0,1-.74,2.08,3.52,3.52,0,0,1-2.21,1,5.39,5.39,0,0,1,1.21.94,12.52,12.52,0,0,1,1.28,1.81l1.37,2.19h-2.7L216.12,76a15.39,15.39,0,0,0-1.19-1.64,1.74,1.74,0,0,0-.68-.47,3.92,3.92,0,0,0-1.14-.12h-.45v4.67ZM212.66,72h1.67a8.69,8.69,0,0,0,2-.14,1.2,1.2,0,0,0,.63-.47,1.43,1.43,0,0,0,.23-.84,1.38,1.38,0,0,0-.3-.92,1.42,1.42,0,0,0-.85-.44q-.27,0-1.65,0h-1.76Z"/><path class="cls-1" d="M221.75,78.43V67.23h3.38l2,7.64,2-7.64h3.39v11.2h-2.1V69.62l-2.22,8.81h-2.18l-2.22-8.81v8.81Z"/><path class="cls-1" d="M245,78.43h-2.46l-1-2.54h-4.48l-.92,2.54h-2.4l4.36-11.2h2.39ZM240.83,74l-1.54-4.15L237.78,74Z"/><path class="cls-1" d="M247.65,78.43v-9.3h-3.32v-1.9h8.89v1.9h-3.31v9.3Z"/><path class="cls-1" d="M254.7,78.43V67.23H257v11.2Z"/><path class="cls-1" d="M258.75,72.9a7.12,7.12,0,0,1,.51-2.87,5.54,5.54,0,0,1,1.05-1.54,4.44,4.44,0,0,1,1.44-1,6.29,6.29,0,0,1,2.42-.44,5.23,5.23,0,0,1,4,1.54,6.87,6.87,0,0,1,0,8.51,5.22,5.22,0,0,1-3.94,1.53,5.27,5.27,0,0,1-4-1.52A5.81,5.81,0,0,1,258.75,72.9Zm2.33-.08a4.25,4.25,0,0,0,.88,2.89,2.88,2.88,0,0,0,2.23,1,2.85,2.85,0,0,0,2.22-1,4.26,4.26,0,0,0,.87-2.92,4.17,4.17,0,0,0-.85-2.87,3.12,3.12,0,0,0-4.49,0A4.25,4.25,0,0,0,261.08,72.82Z"/><path class="cls-1" d="M271.5,78.43V67.23h2.19l4.59,7.48V67.23h2.1v11.2h-2.27l-4.52-7.3v7.3Z"/></svg>