<?xml version="1.0" encoding="utf-8"?>
<!-- Generator: Adobe Illustrator 25.3.1, SVG Export Plug-In . SVG Version: 6.00 Build 0)  -->
<svg version="1.1" xmlns="http://www.w3.org/2000/svg" xmlns:xlink="http://www.w3.org/1999/xlink" x="0px" y="0px"
	 viewBox="-70.9 809.9 500 160" enable-background="new -70.9 809.9 500 160" xml:space="preserve">
<g id="bg">
</g>
<g id="cube">
</g>
<g id="swatch">
</g>
<g id="Layer_6">
</g>
<g id="Layer_9">
</g>
<g id="Layer_3">
	<g>
		<g>
			<polygon fill="#0F1011" points="15.4,865.2 38.3,853.9 15.3,843.9 -7.7,853.8 			"/>
			<polygon fill="#0F1011" points="-8.1,896.1 -9.3,877.5 7.5,869.2 -16.1,857.5 -31.4,864.2 -29.4,882 			"/>
			<polygon fill="#0F1011" points="60,881.9 62.2,864.2 46.7,857.5 23.3,869.2 40.2,877.5 38.9,896.1 			"/>
			<polygon fill="#0F1011" points="38.3,905 36.6,929.2 56,914.6 58.9,891.1 			"/>
			<polygon fill="#0F1011" points="-7.6,905 -28.3,891.1 -25.5,914.7 -6,929.2 			"/>
			<polygon fill="#0F1011" points="30.9,909.9 15.5,920.3 -0.2,909.9 1.4,934.8 15.4,945.2 29.2,934.8 			"/>
		</g>
		<g>
			<g>
				<path fill="#0F1011" d="M87.9,916.9v-53.6h19.7c11,0,17.8,6.7,17.8,17.5v18.7c0,10.6-6.8,17.5-17.8,17.5H87.9z M98.2,907.8h9.4
					c4.8,0,7.4-3.1,7.4-9.3v-16.9c0-6.1-2.6-9.3-7.4-9.3h-9.4V907.8z"/>
				<path fill="#0F1011" d="M173.1,892.5c0-10,6.4-16.2,16.7-16.2c10.3,0,16.6,6.1,16.6,16.2v9c0.1,10-6.4,16.2-16.6,16.2
					c-10.3,0-16.7-6.1-16.7-16.2V892.5z M182.9,900.7c0,5.6,2.5,8.5,6.9,8.5c4.4,0,6.8-2.9,6.8-8.5v-7.4c0-5.6-2.5-8.5-6.8-8.5
					c-4.4,0-6.8,2.9-6.8,8.5L182.9,900.7z"/>
				<g>
					<path fill="#0F1011" d="M165,916.9h-8.4l-0.5-3.8c-2.3,2.7-6.6,4.6-11.3,4.6c-7.6,0-13.3-5.4-13.3-12
						c0-16.9,23.4-17.1,23.4-17.1c0-1.3-1.9-5.3-10.3-5.3c-2,0-4,0.4-7.3,1.3l-1.9-5.3c3.9-1.7,8.4-3.1,13.3-3.1
						c10.4,0,16.4,4.3,16.4,14.2V916.9z M146.8,910c3.3,0,6.4-1.9,8.2-4.6l0-10.9c-1.6,0-13.7,1-13.7,10.2
						C141.4,907.4,143.2,910,146.8,910z"/>
				</g>
			</g>
			<path fill="#0F1011" d="M232.5,918c-10.6,0-18.4-6.7-18.4-17.3v-20.4c0-10.6,7.8-17.2,18.4-17.2c6.7,0,10.7,1.9,15.2,5.1
				l-3.9,7.1c-3.8-2.1-6.3-3.3-11.3-3.3c-5,0-8.2,3.5-8.2,9.3v18.6c0,6,3.3,9.3,8.2,9.3c5,0,7.5-1.2,11.3-3.3l3.9,7.2
				C243.2,916.1,239.2,918,232.5,918z"/>
			<path fill="#0F1011" d="M254.2,916.9v-56.6h9.7v56.6H254.2z"/>
			<path fill="#0F1011" d="M272.3,892.8c0-9.9,6.3-15.9,16.4-15.9c10.1,0,16.4,6,16.4,15.9v8.9c0.1,9.9-6.3,15.9-16.4,15.9
				c-10.2,0-16.4-6-16.4-15.9V892.8z M281.9,900.9c0,5.5,2.4,8.4,6.8,8.4c4.3,0,6.7-2.9,6.7-8.4v-7.2c0-5.5-2.4-8.4-6.7-8.4
				c-4.4,0-6.7,2.9-6.7,8.4L281.9,900.9z"/>
			<path fill="#0F1011" d="M325.3,917.7c-9,0-11.9-5.4-11.9-15.4v-24.6h9.7v23.7c0,5.6,1.1,8,4.9,8c3.2,0,6-2,7.3-4.4v-27.2h9.7
				v39.2h-8.4l-0.8-3.7C333,915.8,329,917.7,325.3,917.7z"/>
			<path fill="#0F1011" d="M377.5,913.6c-2.6,2.4-6.3,4.1-10.6,4.1c-8.8,0-13.4-6-13.4-15.9v-9.6c0-10,4.4-15.2,13.1-15.2
				c3.2,0,6.4,0.5,9.6,1.8v-18.4h9.7v56.6H378L377.5,913.6z M376.2,887c-2.4-1.1-4.9-1.5-7.4-1.5c-3.7,0-5.7,2.3-5.7,7.4v8
				c0,5.5,1.5,8.4,5.9,8.4c3.4,0,5.9-1.5,7.2-4V887z"/>
		</g>
	</g>
	<text transform="matrix(1 0 0 1 2501.8767 1920.6395)" fill="#5D5D5D" font-family="'MyriadPro-Regular'" font-size="27.2943px">Old</text>
</g>
<g id="cropped_white">
</g>
<g id="cropped_black">
</g>
<g id="Layer_5">
</g>
<g id="Layer_4">
</g>
</svg>
