<svg id="图层_1" data-name="图层 1" xmlns="http://www.w3.org/2000/svg" viewBox="0 0 890.62 277.49"><defs><style>.cls-1,.cls-2{fill:#2f3085;}.cls-1{fill-rule:evenodd;}</style></defs><path class="cls-1" d="M72.71,89.32v63.25S73.48,175.4,94,189.5l31.19,24.58V184.87c-1.18-12.22-8.66-17.56-17.08-24.8-4.53-3.89-10-7.44-13.74-12,0,0-1.43,10.9,6.78,19.1l7.39,7.89c4.23,4.52,2.75,9.41-1.71,8.61-1.19-.21-2.36-1.07-4-2.17-5.12-3.47-15.55-18.75-17.32-23.79a36,36,0,0,1-1.77-11.45V102.77S82.62,92.35,72.71,89.32Z"/><path class="cls-1" d="M186,89.32v63.25s-.77,22.83-21.25,36.93l-31.18,24.58V184.87c1.17-12.22,8.66-17.56,17.08-24.8,4.52-3.89,10-7.44,13.73-12,0,0,1.43,10.9-6.77,19.1L150.24,175c-4.23,4.52-2.76,9.41,1.7,8.61,1.2-.21,2.37-1.07,4-2.17,5.11-3.47,15.55-18.75,17.32-23.79A36,36,0,0,0,175,146.24V102.77S176.1,92.35,186,89.32Z"/><path class="cls-2" d="M118.41,121.78l17.66-18.55a18,18,0,0,1,25.33-.62l0,0a18,18,0,0,1,.62,25.29v0h0l-37,38.65a64.71,64.71,0,0,0-7.37-7.08l36.92-38.61,0,0h0a7.72,7.72,0,0,0-.26-10.85l0,0a7.73,7.73,0,0,0-10.88.26l-17.67,18.55Z"/><path class="cls-2" d="M140.32,113.59l-17.67,18.55a18,18,0,0,1-25.33.62l-.1-.08h0a18,18,0,0,1-.53-25.24l.08-.1h0l33.36-35h14.11L104.1,114.47l-.08.1h0a7.74,7.74,0,0,0,.35,10.79l.1.08h0a7.75,7.75,0,0,0,10.8-.35l17.66-18.55Z"/><path class="cls-1" d="M82.17,89.57s19.13-16.54,47.19-16h0a70.28,70.28,0,0,1,12.83.94l8-8.39a101.26,101.26,0,0,0-20.82-2.69h0c-7.09.12-37,1.77-55.56,21.18a19.15,19.15,0,0,1,8.3,5.06l.07-.07ZM149.35,76l7.5-8.1c9.61,3,19.92,8.15,28.07,16.65a19.15,19.15,0,0,0-8.29,5.06l-.07-.07A74.77,74.77,0,0,0,149.35,76Z"/><polygon class="cls-1" points="80.56 83.97 73.8 84.58 72.73 85.69 72.73 89.61 83.72 104.15 83.72 83.74 80.56 83.97"/><polygon class="cls-1" points="178.16 83.97 184.92 84.58 186 85.69 186 89.61 175.01 104.15 175.01 83.74 178.16 83.97"/><path class="cls-2" d="M296.9,136.65q0,12.47-8,20.64t-20.39,8.17H236.72V109.07H268.5q12.47,0,20.44,7.6t8,20Zm-9.82.82A17.87,17.87,0,0,0,268.5,118.9h-22v36.73h22a18.46,18.46,0,0,0,13.34-5,17.4,17.4,0,0,0,5.24-13.13Zm62.54,4.29H317.43v-9.82h32.19v9.82Zm2.56,23.7v-9.83H313.3V118.9h38.88v-9.83H303.47v56.39Zm71.47-36.08a18.57,18.57,0,0,1-6.77,14.94q-6.28,5.3-15.77,5.29H376.26v-9.74h26.42a12,12,0,0,0,8.17-2.89,9.71,9.71,0,0,0,3.3-7.68,9.47,9.47,0,0,0-3.3-7.6,12.19,12.19,0,0,0-8.17-2.8h-32.2v46.56h-9.83V109.07h40.46q9.5,0,15.77,5.37a18.43,18.43,0,0,1,6.77,14.94ZM489.58,148a16.11,16.11,0,0,1-5.7,12.88,20.53,20.53,0,0,1-13.62,4.54h-43v-9.83h43a13.22,13.22,0,0,0,7-1.81,6.91,6.91,0,0,0,3.38-6,6.49,6.49,0,0,0-3.47-5.86,13.15,13.15,0,0,0-6.93-1.73H443.67a18.82,18.82,0,0,1-12.3-4,15.2,15.2,0,0,1,0-23,18.82,18.82,0,0,1,12.3-4.05h42.52v9.83H443.67a7.48,7.48,0,0,0-4.78,1.56,5.11,5.11,0,0,0-2,4.22,5,5,0,0,0,2,4.21,7.73,7.73,0,0,0,4.78,1.48h26.59a20.08,20.08,0,0,1,13.62,4.71,16.34,16.34,0,0,1,5.7,13Zm53.21-6.28H510.6v-9.82h32.19v9.82Zm2.56,23.7v-9.83H506.47V118.9h38.88v-9.83H496.64v56.39Zm68.33,0H581.89q-12.3,0-20.35-8.17t-8-20.64q0-12.39,8-20t20.43-7.6h31.79v9.83H581.89a17.87,17.87,0,0,0-18.57,18.57,17.4,17.4,0,0,0,5.24,13.13,18.45,18.45,0,0,0,13.33,5h31.79v9.83ZM685,140.11q0,13.63-8.18,19.9-7.18,5.44-21.3,5.45h-3.38q-14.11,0-21.3-5.45-8.18-6.27-8.18-19.9v-31h9.83v31q0,10.15,7,13.46,4.53,2.07,16,2.06,9.59,0,14-2.89,5.61-3.63,5.61-12.63v-31H685v31Zm76.58,25.35H747l-15.77-15.85H710v-9.74h26.42a16.52,16.52,0,0,0,9.16-2.4,9.05,9.05,0,0,0,4.21-8q0-10.56-13.37-10.56h-32.2v46.56h-9.82V109.07h40.45q10.9,0,17.59,4.71,7.66,5.37,7.67,15.77a18,18,0,0,1-4.45,12.21,21.76,21.76,0,0,1-11.23,6.69l17.09,17Zm53.79-23.7h-32.2v-9.82h32.2v9.82Zm2.56,23.7v-9.83H779V118.9h38.88v-9.83H769.2v56.39Z"/></svg>