<?xml version="1.0" encoding="UTF-8"?>
<svg width="1362px" height="295px" viewBox="0 0 1362 295" version="1.1" xmlns="http://www.w3.org/2000/svg" xmlns:xlink="http://www.w3.org/1999/xlink">
    <title>icon-logo</title>
    <defs>
        <polygon id="path-1" points="0 0 157.5415 0 157.5415 213.876 0 213.876"></polygon>
    </defs>
    <g id="1.1" stroke="none" stroke-width="1" fill="none" fill-rule="evenodd">
        <g id="icon-logo" transform="translate(0.000000, 0.000000)">
            <polygon id="Fill-1" fill="#005596" points="147.402 0 113.387 58.961 136.063 58.961 0 294.804 90.709 294.804 124.725 235.843 102.047 235.843 204.095 58.961 170.079 0"></polygon>
            <polygon id="Fill-2" fill="#7DA6D7" points="136.0629 216.1899 226.8079 216.1369 238.1459 235.7899 147.4019 235.8429 113.3869 294.8039 340.1589 294.8039 272.1269 176.8829 226.7719 176.8829 238.1099 157.2289 260.7879 157.2289 215.4339 78.6229"></polygon>
            <g id="编组" transform="translate(422.807300, 73.686400)">
                <path d="M0,192.6743 L96.092,56.5163 C104.827,44.4683 112.359,37.2373 112.359,37.2373 L112.359,36.6353 C112.359,36.6353 106.031,37.2373 96.092,37.2373 L44.28,37.2373 C40.062,37.2373 37.655,39.6473 37.655,43.8663 L37.655,56.8203 L1.809,56.8203 L1.809,24.2863 C1.809,10.1293 7.832,3.8013 22.291,3.8013 L161.155,3.8013 L161.155,28.5023 L65.063,164.9613 C56.328,177.3103 48.8,184.2403 48.8,184.2403 L48.8,184.8413 C48.8,184.8413 55.125,184.2403 65.063,184.2403 L123.504,184.2403 C127.72,184.2403 130.13,181.8293 130.13,177.6113 L130.13,164.6603 L165.675,164.6603 L165.675,197.1943 C165.675,211.6523 159.651,217.6763 145.193,217.6763 L0,217.6763 L0,192.6743 Z" id="Fill-3" fill="#005596"></path>
                <path d="M203.3515,160.254 C203.3515,160.254 225.3415,185.557 255.1605,185.557 C271.4265,185.557 285.8885,176.822 285.8885,160.254 C285.8885,123.806 185.2765,126.818 185.2765,60.246 C185.2765,25.603 215.3995,0 256.6675,0 C281.6695,0 320.2265,11.747 320.2265,42.171 L320.2265,62.055 L284.6815,62.055 L284.6815,52.414 C284.6815,42.472 270.5245,35.846 256.3665,35.846 C238.2915,35.846 225.0365,45.183 225.0365,58.739 C225.0365,95.19 325.6485,87.959 325.6485,158.145 C325.6485,192.186 299.4405,221.102 254.5585,221.102 C207.2665,221.102 181.0605,187.967 181.0605,187.967 L203.3515,160.254 Z" id="Fill-5" fill="#005596"></path>
                <path d="M362.1949,94.2843 L342.3149,94.2843 L342.3149,63.8603 L363.1009,63.8603 L363.1009,21.9893 L400.4509,21.9893 L400.4509,63.8603 L435.3949,63.8603 L435.3949,94.2843 L400.4509,94.2843 L400.4509,156.3393 C400.4509,181.6423 420.3319,185.2563 430.8749,185.2563 C435.0939,185.2563 437.8049,184.6543 437.8049,184.6543 L437.8049,218.0903 C437.8049,218.0903 432.9849,218.9963 426.0549,218.9963 C404.6699,218.9963 362.1949,212.6683 362.1949,161.1603 L362.1949,94.2843 Z" id="Fill-7" fill="#005596"></path>
                <path d="M518.5385,191.2799 C539.0205,191.2799 553.4825,169.5939 553.4825,150.9169 L553.4825,147.3029 L546.8535,147.3029 C526.9725,147.3029 495.3455,150.0149 495.3455,171.3989 C495.3455,181.6419 502.8735,191.2799 518.5385,191.2799 M548.0595,121.0949 L552.8805,121.0949 L552.8805,119.8909 C552.8805,97.9009 544.1415,89.7679 524.5625,89.7679 C517.6355,89.7679 504.0805,91.5729 504.0805,100.0069 L504.0805,108.1409 L468.5355,108.1409 L468.5355,91.8739 C468.5355,63.2579 508.9005,60.2459 524.8635,60.2459 C576.0735,60.2459 591.1335,87.0569 591.1335,121.3959 L591.1335,178.6299 C591.1335,182.8459 593.5435,185.2559 597.7625,185.2559 L609.8105,185.2559 L609.8105,217.4889 L575.4715,217.4889 C561.3145,217.4889 555.8925,209.6559 555.8925,200.6199 C555.8925,196.7019 556.1935,193.9909 556.1935,193.9909 L555.5885,193.9909 C555.5885,193.9909 543.8415,221.1019 509.2015,221.1019 C481.7895,221.1019 456.7885,203.9329 456.7885,173.2079 C456.7885,125.0089 523.0585,121.0949 548.0595,121.0949" id="Fill-9" fill="#005596"></path>
                <path d="M708.6545,60.2463 C728.5345,60.2463 764.3805,68.3793 764.3805,94.8863 L764.3805,112.9613 L730.6445,112.9613 L730.6445,104.5273 C730.6445,96.0923 717.9915,92.4793 708.6545,92.4793 C682.1455,92.4793 663.1705,112.6603 663.1705,140.3733 C663.1705,171.7003 686.3635,187.6663 711.0645,187.6663 C737.2695,187.6663 756.5485,166.8833 756.5485,166.8833 L772.5145,193.3893 C772.5145,193.3893 749.6225,221.1023 707.7515,221.1023 C657.1435,221.1023 624.6135,185.2563 624.6135,140.6743 C624.6135,97.2963 655.9405,60.2463 708.6545,60.2463" id="Fill-11" fill="#005596"></path>
                <g transform="translate(781.063200, 3.613100)">
                    <mask id="mask-2" fill="white">
                        <use xlink:href="#path-1"></use>
                    </mask>
                    <g id="Clip-14"></g>
                    <path d="M18.677,39.163 C18.677,34.643 16.267,32.534 12.048,32.534 L0,32.534 L0,0 L36.448,0 C50.605,0 56.933,3.317 56.933,17.474 L56.933,114.47 L68.38,114.47 C73.197,114.47 79.525,113.567 82.838,108.746 L114.164,60.247 L156.639,60.247 L117.781,118.083 C111.152,127.724 106.332,130.135 106.332,130.135 L106.332,130.736 C106.332,130.736 111.754,132.846 117.176,142.784 L134.65,175.92 C137.06,180.439 140.072,181.643 147.299,181.643 L157.542,181.643 L157.542,213.876 L129.227,213.876 C116.274,213.876 111.152,211.766 105.128,200.621 L79.525,152.425 C76.513,147.003 70.185,146.702 65.368,146.702 L56.933,146.702 L56.933,213.876 L18.677,213.876 L18.677,39.163 Z" id="Fill-13" fill="#005596" mask="url(#mask-2)"></path>
                </g>
            </g>
        </g>
    </g>
</svg>