<svg id="图层_1" data-name="图层 1" xmlns="http://www.w3.org/2000/svg" viewBox="0 0 286.49 103.38"><defs><style>.cls-1{fill:#0080cb;}.cls-2{fill:#9cc715;}</style></defs><path class="cls-1" d="M145.85,23.92H131.64V17H127.9v6.89H113.82V43.36H127.9V53.94h3.74V43.36h14.21Zm-28.37,16V27.35H127.9V39.93Zm24.72,0H131.64V27.35H142.2Z"/><path class="cls-1" d="M154.59,18.27V52.82h32.54V18.27Zm28.95,31.27H158.07V21.65h25.47Z"/><polygon class="cls-1" points="172.46 43.3 172.46 35.72 180.31 35.72 180.31 32.47 172.46 32.47 172.46 27.73 180.98 27.73 180.98 24.49 160.47 24.49 160.47 27.73 169.02 27.73 169.02 32.47 161.13 32.47 161.13 35.72 169.02 35.72 169.02 43.3 159.9 43.3 159.9 46.54 181.54 46.54 181.54 43.3 172.46 43.3"/><path class="cls-1" d="M177.35,42.91l2.82-2.23C178.7,39,176,35.92,176,35.92l-2.62,2A50.23,50.23,0,0,1,177.35,42.91Z"/><path class="cls-1" d="M207,41.21l2.38-2.8-6-5.13V31.52h5.06V28.27h-5.06V23.05c2.34-.58,5.18-1.13,5.18-1.13l-.72-3.46c-3.07,1-13.25,2.07-13.25,2.07l.5,3.42,4.73-.76v5.08h-5.72v3.25h5.35a44.9,44.9,0,0,1-6,12.07l2.62,2.84a65.92,65.92,0,0,0,3.74-7V53.91h3.56V37.71Z"/><path class="cls-1" d="M221.1,35.67a18.14,18.14,0,0,0,.83-1.72l-3.38-.54c.51-.29,1-.58,1.48-.89,6.76-4.45,9-9.42,9-9.42v-3H217.37a22,22,0,0,0,1.25-2.26l-3.38-1.31a29.86,29.86,0,0,1-8.16,10.1L210,28.91a54.62,54.62,0,0,0,5.07-5.54H225a19.59,19.59,0,0,1-5.41,5.44l-4.41-3.64-2.29,2.39,3.68,3.11a43,43,0,0,1-8.77,3.6l2.25,2.84a80.68,80.68,0,0,0,7.7-3.27,24.18,24.18,0,0,1-4.55,5.52,29.9,29.9,0,0,1-6.2,4.36l2.66,2.66a33.27,33.27,0,0,0,9.19-7.44h7.45a12.3,12.3,0,0,1-5.82,7.85l-4-3.92L213.94,45s2.27,2.13,3.46,3.43a34.78,34.78,0,0,1-11.16,2.41l1.52,3c7.27-.57,12.18-2.57,15.6-5.17a19.55,19.55,0,0,0,7-9.8V35.67Z"/><rect class="cls-1" x="236.74" y="20.45" width="15.41" height="3.45"/><path class="cls-1" d="M249.17,48.39,252.7,47c-.75-1.8-4.28-9.6-4.28-9.6l-3.25,1.41c.9,1.89,1.81,4,2.52,5.79-1.61.37-5.83,1.36-7.93,2.05a45.69,45.69,0,0,0,2.9-6.86c1.54-4.24,1.8-5.51,2.42-6.31h8.4V30.05H235.22V33.5h5.88a62.65,62.65,0,0,1-2.85,8.73A23,23,0,0,1,235.17,48l.87,2.7s9.24-2.8,12.8-3.13Z"/><path class="cls-1" d="M260.77,24.68l.16-7.6h-3.88s0,3.39,0,7.6h-4.77v3.45h4.81c0,2.65-.05,5.37-.2,7.25a25,25,0,0,1-1,6.11,17.48,17.48,0,0,1-7.49,10.31l2.79,2.62c10-6.38,9.36-20.61,9.36-20.61l.12-5.68h6.19l-.74,18.77a2.13,2.13,0,0,1-2.28,2.24h-4.31l.71,3.72h4.08c5.25,0,5.44-5.37,5.44-5.37l.83-22.81Z"/><rect class="cls-1" x="151.41" y="67.73" width="2.91" height="14.66"/><rect class="cls-1" x="151.41" y="61.86" width="2.91" height="3.28"/><rect class="cls-1" x="246.48" y="67.73" width="2.91" height="14.66"/><rect class="cls-1" x="252.53" y="60.28" width="2.91" height="22.11"/><rect class="cls-1" x="246.48" y="61.86" width="2.91" height="3.28"/><path class="cls-1" d="M145,67.51a6,6,0,0,0-5.7,1.72V60.29h-2.92v22.1h2.92v-10A4.26,4.26,0,0,1,144,70s1.54.25,1.54,2.82v9.62h3V72.86S148.83,68.48,145,67.51Z"/><path class="cls-1" d="M165.88,67.51a6,6,0,0,0-5.84,1.9l-.46-1.74h-2.22V82.39h2.81V72.45a4.68,4.68,0,0,1,4.72-2.5s1.54.25,1.54,2.82v9.62h3V72.86S169.75,68.48,165.88,67.51Z"/><path class="cls-1" d="M179.91,67.76c-3.48-1.27-7.24.46-7.24.46v2.69s7.73-3.45,7.73,2.64l0,.15s-4.21-1.27-6.54.15a4.75,4.75,0,0,0-2,6.06,4.93,4.93,0,0,0,4.58,2.85,8.19,8.19,0,0,0,4.09-1.58l.24,1.21h2.51V73A5.27,5.27,0,0,0,179.91,67.76Zm.36,10.91a5.86,5.86,0,0,1-3.87,1.48,2.12,2.12,0,0,1-2-2.51c.36-2.46,3.42-2.27,5.9-1.46Z"/><polygon class="cls-1" points="201.97 76.98 195.71 61.96 191.75 61.96 191.75 82.39 194.69 82.39 194.69 66.83 201.23 82.39 202.67 82.39 209.2 66.94 209.2 82.39 212.19 82.39 212.19 61.96 208.25 61.96 201.97 76.98"/><path class="cls-1" d="M221.74,67.32A7.66,7.66,0,1,0,229.37,75,7.64,7.64,0,0,0,221.74,67.32Zm0,12.75a5.08,5.08,0,1,1,5-5.08A5.06,5.06,0,0,1,221.74,80.07Z"/><path class="cls-1" d="M240.61,68a5.61,5.61,0,0,0-6.33.81v-8.4h-3V82.42h2.28l.39-1.3a5.56,5.56,0,0,0,3.61,1.66,6.21,6.21,0,0,0,4.64-2.08,8.74,8.74,0,0,0,2-4.25C244.5,74.18,244.44,69.8,240.61,68ZM237.8,80.18a3.75,3.75,0,0,1-3.55-1.65V71.39a4.92,4.92,0,0,1,3.47-1.47c2.18,0,3.2,1.72,3.48,4.25S240.81,80.11,237.8,80.18Z"/><path class="cls-1" d="M268.72,69.49a5.49,5.49,0,0,0-4.53-2.1A6.51,6.51,0,0,0,260,69,7.3,7.3,0,0,0,258,72.33c-1.29,5.14,1,8,1,8a7.26,7.26,0,0,0,5.21,2.44,11.67,11.67,0,0,0,5.39-.93V79.3c-9.09,3.16-9.2-3.43-9.2-3.43h9.82C270.33,72.72,269.64,70.74,268.72,69.49Zm-8.06,3.83s.61-3.4,3.51-3.4,3,3.4,3,3.4Z"/><path class="cls-1" d="M124.22,79.82a7.8,7.8,0,1,1,6.71-11.64H134a10.57,10.57,0,1,0,0,7.52h-3A7.71,7.71,0,0,1,124.22,79.82Z"/><path class="cls-2" d="M18.85,39.09s8,10.58,16.85,17.62a5.18,5.18,0,0,0,6.92-.38C46.2,53.1,61,39.64,61,39.64s5.57-5.53,11.79,0c0,0,13.08,11.63,20.23,21.39a.75.75,0,0,1,.08,1c-.35.62-1,2.33-1,2.33A129.38,129.38,0,0,0,75.11,46.64s-3.54-2.68-6.58.16-17.43,16-19.72,17.66-6.07,3.41-11.44-1.36C33.19,59.38,22.23,49,17.92,42.48a.89.89,0,0,1-.08-1Z"/><path class="cls-1" d="M20.49,35.9l4.57,5s.57.74,1.64-.19S41.88,26.13,47.25,22.28A19.42,19.42,0,0,1,57.32,18.4a18.09,18.09,0,0,1,8.88,1.52c3.44,1.55,8.69,5.79,13.61,10.89a125.25,125.25,0,0,1,9.85,11.46c2,2.61,3.85,5.24,5.29,7.54a13.89,13.89,0,0,0-1.4-5.87,88,88,0,0,0-17-21.38c-1.09-1-10.68-10.61-20-10.4a26.12,26.12,0,0,0-16.58,6C38.69,19.24,24.82,31.2,20.49,35.9Z"/><path class="cls-1" d="M30.34,46.51l5.2,5a2,2,0,0,0,2.56-.39s5-4.88,9.26-8.79c4-3.69,8.09-7.48,9.6-8.56,0,0,6.54-6.78,14.86-.18A134.57,134.57,0,0,1,94.3,57.74l.37-1.8a3.58,3.58,0,0,0-.58-2.87S85.36,40.19,74.61,30.93c0,0-5.36-5.66-12.21-7.08a13.89,13.89,0,0,0-11,2.87c-2.63,2.07-8.35,7.4-13.12,11.94C33.83,42.88,30.34,46.51,30.34,46.51Z"/><path class="cls-1" d="M90.34,67.49l-4.57-5s-.58-.74-1.65.19S69,77.26,63.58,81.11A19.41,19.41,0,0,1,53.51,85a18.09,18.09,0,0,1-8.88-1.52C41.19,81.91,35.94,77.67,31,72.57a126.49,126.49,0,0,1-9.85-11.45c-2-2.62-3.85-5.25-5.29-7.54a13.74,13.74,0,0,0,1.4,5.87,88.25,88.25,0,0,0,17,21.38c1.09,1,10.67,10.6,20,10.39a26.07,26.07,0,0,0,16.58-6C72.14,84.14,86,72.18,90.34,67.49Z"/><path class="cls-1" d="M80.49,56.87l-5.2-5a1.94,1.94,0,0,0-2.56.38s-5,4.89-9.26,8.8c-4,3.69-8.09,7.47-9.61,8.55,0,0-6.53,6.78-14.85.18A134.7,134.7,0,0,1,16.53,45.65l-.37,1.79a3.58,3.58,0,0,0,.58,2.87s8.73,12.88,19.48,22.14c0,0,5.36,5.66,12.21,7.08a13.89,13.89,0,0,0,11-2.87c2.63-2.07,8.35-7.4,13.12-11.94C77,60.51,80.49,56.87,80.49,56.87Z"/></svg>