<svg id="图层_1" data-name="图层 1" xmlns="http://www.w3.org/2000/svg" xmlns:xlink="http://www.w3.org/1999/xlink" viewBox="0 0 584 108"><defs><style>.cls-1{fill:#3e3a39;fill-rule:evenodd;}.cls-2{fill:url(#linear-gradient);}.cls-3{fill:url(#linear-gradient-2);}.cls-4{fill:url(#linear-gradient-3);}.cls-5{fill:url(#linear-gradient-4);}.cls-6{fill:url(#linear-gradient-5);}</style><linearGradient id="linear-gradient" x1="189.21" y1="34.52" x2="203.51" y2="11.85" gradientUnits="userSpaceOnUse"><stop offset="0" stop-color="#3f99d5"/><stop offset="0.25" stop-color="#3d62ac"/><stop offset="0.55" stop-color="#5f1985"/><stop offset="1" stop-color="#910782"/></linearGradient><linearGradient id="linear-gradient-2" x1="165.63" y1="96.89" x2="165.63" y2="30.05" gradientUnits="userSpaceOnUse"><stop offset="0" stop-color="#e84709"/><stop offset="1" stop-color="#af1f24"/></linearGradient><linearGradient id="linear-gradient-3" x1="39.61" y1="96.89" x2="39.61" y2="30.05" xlink:href="#linear-gradient-2"/><linearGradient id="linear-gradient-4" x1="223.92" y1="96.89" x2="223.92" y2="30.05" xlink:href="#linear-gradient-2"/><linearGradient id="linear-gradient-5" x1="107.23" y1="96.89" x2="107.23" y2="30.05" xlink:href="#linear-gradient-2"/></defs><polygon class="cls-1" points="483.85 48.06 478.26 32.12 467.98 32.12 473.26 48.06 483.85 48.06"/><polygon class="cls-1" points="467.94 53.17 473.15 69.05 483.88 69.05 478.23 53.17 467.94 53.17"/><path class="cls-1" d="M465.93,51a1.13,1.13,0,0,0,1.21-1.13V44.12c-.1-.8-.5-1.2-1.21-1.2h-9.52V37.08h7.92A1.09,1.09,0,0,0,465.38,36V31.28A1.22,1.22,0,0,0,464.25,30H437.58a1.22,1.22,0,0,0-1.13,1.28V36c.05.61.45,1,1.2,1.06h7.55v5.84h-9.81a1.16,1.16,0,0,0-1.21,1.2v5.73A1.08,1.08,0,0,0,435.39,51h9.81v1.68H439l-6.89,38.75h8.39l.15-.65v-.18l4.52-25.92V97h11.21V68.32l3.39,17.37h7.84L459.11,51Z"/><polygon class="cls-1" points="496.69 73.75 496.69 28.87 484.83 28.87 484.83 73.75 466.59 73.75 468.63 83.17 484.83 83.17 484.83 97 496.69 97 496.69 83.17 500.09 83.17 500.09 73.75 496.69 73.75"/><path class="cls-1" d="M358.37,96.67V84.49c17.76-4.93,24.18-13.67,26.75-24.51h-24.9c-1-.14-1.58-.62-1.65-1.46V53a1.67,1.67,0,0,1,1.55-1.75h26.36V41H363.43c-1-.14-1.58-.62-1.65-1.46V33.05a1.67,1.67,0,0,1,1.55-1.75h58.39a1.67,1.67,0,0,1,1.56,1.75v6.49A1.51,1.51,0,0,1,421.83,41H398.41V51.23H424.8A1.67,1.67,0,0,1,426.35,53v5.54A1.51,1.51,0,0,1,424.9,60H399.54c2.59,10.76,9,19.45,26.71,24.35V96.51c-15.55-3.2-27.27-10.34-33.9-23.09C385.73,86.27,374,93.45,358.37,96.67Z"/><path class="cls-1" d="M351.37,64.08a1.45,1.45,0,0,0,1.41-1.41v-5a1.62,1.62,0,0,0-1.51-1.7h-8.51L346.34,46H335.61l-3,9V43.4H349A1.46,1.46,0,0,0,350.41,42V37a1.64,1.64,0,0,0-1.51-1.71h-8.72l2.19-6.17H331.65l-1.93,6.17H308.14l-2.2-6.17H295.66l1.92,6.17h-8.86A1.64,1.64,0,0,0,287.21,37V42c.07.82.6,1.29,1.61,1.42h16V55.74L301.37,46H291.09L294.39,56h-8a1.61,1.61,0,0,0-1.51,1.7v5c.06.82.6,1.28,1.61,1.41ZM341.5,96.94q7,0,7.11-7.11v-18A5.59,5.59,0,0,0,346.93,68a4.71,4.71,0,0,0-3.54-1.49h-48.6A5.15,5.15,0,0,0,291.06,68a5.76,5.76,0,0,0-1.6,3.11,5.32,5.32,0,0,0,0,.77V91.65a4.26,4.26,0,0,0,0,.73,5.28,5.28,0,0,0,1.6,3,5,5,0,0,0,3.73,1.61Zm-5.08-22.63v3.47H301.64V74.31Zm0,9.42v5.44H301.64V83.73ZM321.44,56h-5.38V43.4h5.38Z"/><path class="cls-1" d="M512.52,86.55a1.59,1.59,0,0,0,1.82-1.68v-1h0V72.93c-2.95.78-5.21,1.38-5.35,1.43-1.07-.13-1.64-.61-1.71-1.45V65.47a1.69,1.69,0,0,1,1.61-1.75l5.45-1.45V49.66h-4.55c-1-.13-1.58-.61-1.64-1.45v-6.5A1.66,1.66,0,0,1,509.66,40h4.64V29.17h11.21V40h3.06a1.68,1.68,0,0,1,1.55,1.75v6.5a1.49,1.49,0,0,1-1.45,1.45h-3.16V59.3l3-.8a1.71,1.71,0,0,1,1.61,1.75V67.7a1.53,1.53,0,0,1-1.51,1.45l-3.1.82V81.29h0v9.57q-.15,5.36-5.37,6.17c-.5,0-1.07.07-1.67.07H507.26l2.41-10.55Zm62.56,10.52V86.36a45.71,45.71,0,0,1-13.89-4.43c5.85-6.37,9.61-14.76,11.33-25.59h0l0-.2h0l0-1A1.67,1.67,0,0,0,571,53.43H558.77v-6h13.42A1.5,1.5,0,0,0,573.63,46V40a1.67,1.67,0,0,0-1.55-1.75H558.77v-9H546.55v9.05h-13.3A1.66,1.66,0,0,0,531.71,40v6c.06.83.61,1.32,1.64,1.45h13.2v6H535a1.66,1.66,0,0,0-1.55,1.75v6c.06.84.61,1.32,1.65,1.45H561A35.49,35.49,0,0,1,552.64,76a34.31,34.31,0,0,1-7.87-10.34H533.92a43.66,43.66,0,0,0,10,16.4,61.4,61.4,0,0,1-14.74,4.87V97.22c9.31-1.65,17.12-4.32,23.46-8.27A67.49,67.49,0,0,0,575.08,97.07Z"/><polygon class="cls-2" points="199.93 28.65 206.64 25.25 206.64 9.93 193.44 16.64 186.77 20.03 186.77 28.65 186.77 35.35 193.44 31.96 199.93 28.65"/><path class="cls-3" d="M186.77,42.28a13.63,13.63,0,0,0-13.64-13.63H144.48V43.1h15.05a6.45,6.45,0,0,1,5,3.31c0,.07.07.13.1.21a6.23,6.23,0,0,1,.7,2.89V98.07h21.45V42.3h0Z"/><path class="cls-4" d="M36.82,28.65A27.49,27.49,0,0,0,11.1,46.41q-.31.84-.57,1.71A18.88,18.88,0,0,0,9.82,51a.64.64,0,0,0,0,.07c-.05.28-.09.57-.14.87l-.06.42a80.79,80.79,0,0,0-.68,11,83.9,83.9,0,0,0,.54,9.92,27,27,0,0,0,.44,2.88c0,.22.09.43.14.64,0,0,0,.07,0,.11.11.49.23.94.35,1.33.21.71.44,1.4.69,2.08a26,26,0,0,0,1.51,3.31A27.48,27.48,0,0,0,36.82,98.07H70.31V80.3H44.71a15,15,0,0,1-13.92-9.5,14.44,14.44,0,0,1-1-4.45,25.53,25.53,0,0,1-.16-3,28.2,28.2,0,0,1,.16-3,14.25,14.25,0,0,1,1-4.38,15,15,0,0,1,14-9.51H70.31V28.65Z"/><path class="cls-5" d="M221.13,28.65A27.57,27.57,0,0,0,196.91,43.1a29.1,29.1,0,0,0-1.5,3.31q-.32.84-.57,1.71a20,20,0,0,0-.72,2.88.2.2,0,0,1,0,.07c-.05.28-.1.57-.14.87,0,.14-.05.28-.06.42a80.79,80.79,0,0,0-.68,11,83.9,83.9,0,0,0,.54,9.92,27,27,0,0,0,.44,2.88c0,.22.09.43.14.64a.43.43,0,0,0,0,.11c.11.49.23.94.35,1.33.21.71.43,1.4.69,2.08a26,26,0,0,0,1.5,3.31,27.48,27.48,0,0,0,24.22,14.46h33.49V80.3H229a15,15,0,0,1-13.92-9.5,14.44,14.44,0,0,1-1-4.45,25.76,25.76,0,0,1-.15-3,26.08,26.08,0,0,1,.15-3,14.25,14.25,0,0,1,1-4.38,15,15,0,0,1,14-9.51h25.51V28.65Z"/><path class="cls-6" d="M99.9,46.41a12.69,12.69,0,0,1,5.95-3,12.93,12.93,0,0,1,2.59-.26h31.72V28.65h-38A27.52,27.52,0,0,0,77.9,43.1a31,31,0,0,0-1.5,3.31,27.43,27.43,0,0,0-1.32,4.8,72.08,72.08,0,0,0-.77,12.12,87.56,87.56,0,0,0,.56,10.87,27.54,27.54,0,0,0,1.53,6.1,26,26,0,0,0,1.5,3.31,27.45,27.45,0,0,0,24.22,14.46h38V83.61H108.44a12.93,12.93,0,0,1-2.59-.26A12.81,12.81,0,0,1,95.73,70.9v-.1h38V55.92h-38v-.11A12.61,12.61,0,0,1,99.9,46.41Z"/></svg>